<svg width="29" height="40" viewBox="0 0 29 40" fill="none" xmlns="http://www.w3.org/2000/svg">
<path fill-rule="evenodd" clip-rule="evenodd" d="M19.4145 12.7016C17.7698 12.0224 15.9714 11.6452 14.0864 11.6452C10.5577 11.6452 7.32857 12.9586 4.85437 15.1243C4.3979 14.1372 4.14158 13.0374 4.14158 11.8767V4.16817H11.8006C16.0305 4.16817 19.4597 7.61948 19.4597 11.8767C19.4597 12.1557 19.4432 12.4304 19.4145 12.7016ZM23.1818 15.009C23.4536 14.0104 23.6011 12.9609 23.6011 11.8767C23.6011 5.32783 18.3073 0 11.8006 0H4.14158H0V4.16817V11.8767C0 18.4256 5.29373 23.7536 11.8006 23.7536C15.1174 23.7536 18.117 22.3671 20.2628 20.1423L20.2623 20.1416C19.2911 19.0734 18.0583 18.2703 16.6968 17.8195L16.6839 17.8151C15.3582 18.9205 13.6566 19.5854 11.8006 19.5854C10.2255 19.5854 8.7621 19.1063 7.54479 18.2859C9.29306 16.7466 11.5809 15.8134 14.0864 15.8134C19.5789 15.8134 24.0314 20.2946 24.0314 25.8226C24.0314 31.3506 19.5789 35.8318 14.0864 35.8318L4.14158 35.9329V25.8226C4.14158 25.8226 4.26879 24.0024 4.5023 23.152L4.49296 23.1457C3.23365 22.3162 2.12886 21.2873 1.20849 20.0878C0.434 21.8426 0 23.7819 0 25.8226V40H14.0864C21.8537 40 28.1728 33.64 28.1728 25.8226C28.1728 21.4923 26.2319 17.6115 23.1818 15.009Z" fill="#0AE88D"/>
</svg>
