<svg width="1077" height="1296" viewBox="0 0 1077 1296" fill="none" xmlns="http://www.w3.org/2000/svg">
<path d="M519.112 160.331C597.552 297.518 749.08 459.917 773.54 601.501C797.999 743.085 695.173 864.048 560.456 903.321C425.755 943.046 259.162 901.082 97.7248 884.864C-63.7121 868.645 -219.777 877.978 -284.862 783.953C-349.714 690.188 -323.138 493.131 -312.726 360.979C-302.099 228.635 -307.652 160.743 -330.877 72.2325C-354.102 -16.2778 -395.23 -125.666 -388.897 -241.091C-382.565 -356.515 -328.539 -477.716 -228.899 -538.381C-129.042 -599.239 15.9811 -599.626 133.323 -533.21C250.665 -466.794 340.093 -333.834 387.482 -211.366C434.872 -88.8982 440.672 23.1435 519.112 160.331Z" fill="#F7F9FC"/>
</svg>
