<svg width="48" height="48" viewBox="0 0 48 48" fill="none" xmlns="http://www.w3.org/2000/svg">
<path fill-rule="evenodd" clip-rule="evenodd" d="M25.6866 31.9994H22.3127L21.9701 33.2781C20.6702 38.1294 15.6836 41.0083 10.8323 39.7084C5.98104 38.4085 3.10207 33.422 4.40197 28.5707L7.84137 15.7347C9.14127 10.8834 14.1278 8.00441 18.9791 9.30431C21.084 9.86831 22.8176 11.1263 23.9996 12.7662C25.1817 11.1263 26.9153 9.86831 29.0202 9.30431C33.8715 8.00441 38.858 10.8834 40.1579 15.7347L43.5973 28.5707C44.8972 33.422 42.0182 38.4085 37.1669 39.7084C32.3156 41.0083 27.3291 38.1294 26.0292 33.2781L25.6866 31.9994ZM34.9123 36.2098C37.9258 36.2098 40.3687 33.675 40.3687 30.5482C40.3687 27.4214 37.9258 24.8866 34.9123 24.8866C31.8989 24.8866 29.456 27.4214 29.456 30.5482C29.456 33.675 31.8989 36.2098 34.9123 36.2098ZM13.0869 36.2098C16.1004 36.2098 18.5433 33.675 18.5433 30.5482C18.5433 27.4214 16.1004 24.8866 13.0869 24.8866C10.0735 24.8866 7.63058 27.4214 7.63058 30.5482C7.63058 33.675 10.0735 36.2098 13.0869 36.2098Z" fill="#0AE88D"/>
</svg>
