<svg width="48" height="48" viewBox="0 0 48 48" fill="none" xmlns="http://www.w3.org/2000/svg">
<path fill-rule="evenodd" clip-rule="evenodd" d="M10 14H38C40.2091 14 42 15.7909 42 18V34C42 36.2091 40.2091 38 38 38H10C7.79086 38 6 36.2091 6 34V18C6 15.7909 7.79086 14 10 14ZM24 34C28.4183 34 32 30.4183 32 26C32 21.5817 28.4183 18 24 18C19.5817 18 16 21.5817 16 26C16 30.4183 19.5817 34 24 34Z" fill="#0AE88D"/>
<path opacity="0.3" d="M28 8H20C18.8954 8 18 8.89543 18 10C18 11.1046 18.8954 12 20 12H28C29.1046 12 30 11.1046 30 10C30 8.89543 29.1046 8 28 8Z" fill="#0AE88D"/>
<path opacity="0.3" d="M24 30C26.2091 30 28 28.2091 28 26C28 23.7909 26.2091 22 24 22C21.7909 22 20 23.7909 20 26C20 28.2091 21.7909 30 24 30Z" fill="#0AE88D"/>
</svg>
