<svg width="48" height="48" viewBox="0 0 48 48" fill="none" xmlns="http://www.w3.org/2000/svg">
<path d="M22.1718 32.0715L19.3434 29.2431L24.2931 24.2934C25.4647 23.1218 25.4647 21.2223 24.2931 20.0507C23.1215 18.8791 21.222 18.8791 20.0505 20.0507L12.9794 27.1218C10.2457 29.8555 10.2457 34.2876 12.9794 37.0213C15.7131 39.7549 20.1452 39.7549 22.8789 37.0213L37.021 22.8791C39.7547 20.1455 39.7547 15.7133 37.021 12.9796L36.3139 12.2725C33.9708 9.9294 30.1718 9.9294 27.8286 12.2725L25.0002 9.44411C28.9055 5.53887 35.2371 5.53887 39.1424 9.44411L39.8495 10.1512C44.1452 14.447 44.1452 21.4118 39.8495 25.7076L25.7073 39.8497C21.4116 44.1455 14.4467 44.1455 10.151 39.8497C5.85521 35.5539 5.85521 28.5891 10.151 24.2934L17.222 17.2223C19.9557 14.4886 24.3879 14.4886 27.1215 17.2223C29.8552 19.956 29.8552 24.3881 27.1215 27.1218L22.1718 32.0715Z" fill="#0AE88D"/>
</svg>
