<svg width="48" height="48" viewBox="0 0 48 48" fill="none" xmlns="http://www.w3.org/2000/svg">
<path opacity="0.3" fill-rule="evenodd" clip-rule="evenodd" d="M22 40V34C22 32.8954 22.8954 32 24 32C25.1046 32 26 32.8954 26 34V40H31C31.5523 40 32 40.4477 32 41C32 41.5523 31.5523 42 31 42H17C16.4477 42 16 41.5523 16 41C16 40.4477 16.4477 40 17 40H22Z" fill="#0AE88D"/>
<path fill-rule="evenodd" clip-rule="evenodd" d="M6 10H42C43.1046 10 44 10.8954 44 12V32C44 33.1046 43.1046 34 42 34H6C4.89543 34 4 33.1046 4 32V12C4 10.8954 4.89543 10 6 10ZM9 16C8.44772 16 8 16.4477 8 17C8 17.5523 8.44772 18 9 18H27C27.5523 18 28 17.5523 28 17C28 16.4477 27.5523 16 27 16H9ZM9 20C8.44772 20 8 20.4477 8 21C8 21.5523 8.44772 22 9 22H15C15.5523 22 16 21.5523 16 21C16 20.4477 15.5523 20 15 20H9Z" fill="#0AE88D"/>
</svg>
