<svg width="48" height="48" viewBox="0 0 48 48" fill="none" xmlns="http://www.w3.org/2000/svg">
<path opacity="0.3" d="M40 12H8C5.79086 12 4 13.7909 4 16V36C4 38.2091 5.79086 40 8 40H40C42.2091 40 44 38.2091 44 36V16C44 13.7909 42.2091 12 40 12Z" fill="#0AE88D"/>
<path fill-rule="evenodd" clip-rule="evenodd" d="M10 8H14C15.1046 8 16 8.89543 16 10V12H8V10C8 8.89543 8.89543 8 10 8ZM34 8H38C39.1046 8 40 8.89543 40 10V12H32V10C32 8.89543 32.8954 8 34 8Z" fill="#0AE88D"/>
<path fill-rule="evenodd" clip-rule="evenodd" d="M14 24V22C14 20.8954 14.8954 20 16 20C17.1046 20 18 20.8954 18 22V24H20C21.1046 24 22 24.8954 22 26C22 27.1046 21.1046 28 20 28H18V30C18 31.1046 17.1046 32 16 32C14.8954 32 14 31.1046 14 30V28H12C10.8954 28 10 27.1046 10 26C10 24.8954 10.8954 24 12 24H14Z" fill="#0AE88D"/>
<path d="M34 24H30C28.8954 24 28 24.8954 28 26C28 27.1046 28.8954 28 30 28H34C35.1046 28 36 27.1046 36 26C36 24.8954 35.1046 24 34 24Z" fill="#0AE88D"/>
</svg>
