<svg width="587" height="375" viewBox="0 0 587 375" fill="none" xmlns="http://www.w3.org/2000/svg">
<g clip-path="url(#clip0)">
<path d="M587 0.332031H0.250977V375H587V0.332031Z" fill="#E6E6E6"/>
<path d="M570.222 47.3242H17.0283V352.834H570.222V47.3242Z" fill="white"/>
<path d="M586.75 0H0V24.8535H586.75V0Z" fill="#15CC86"/>
<path d="M18.5244 17.3124C21.076 17.3124 23.1444 15.2501 23.1444 12.706C23.1444 10.162 21.076 8.09961 18.5244 8.09961C15.9728 8.09961 13.9043 10.162 13.9043 12.706C13.9043 15.2501 15.9728 17.3124 18.5244 17.3124Z" fill="white"/>
<path d="M36.0605 17.3124C38.6121 17.3124 40.6806 15.2501 40.6806 12.706C40.6806 10.162 38.6121 8.09961 36.0605 8.09961C33.5089 8.09961 31.4404 10.162 31.4404 12.706C31.4404 15.2501 33.5089 17.3124 36.0605 17.3124Z" fill="white"/>
<path d="M53.5976 17.3124C56.1492 17.3124 58.2177 15.2501 58.2177 12.706C58.2177 10.162 56.1492 8.09961 53.5976 8.09961C51.046 8.09961 48.9775 10.162 48.9775 12.706C48.9775 15.2501 51.046 17.3124 53.5976 17.3124Z" fill="white"/>
<path d="M193.289 72.4531H85.0928V189.489H193.289V72.4531Z" fill="#E6E6E6"/>
<path d="M347.723 72.4531H239.526V189.489H347.723V72.4531Z" fill="#E6E6E6"/>
<path d="M502.155 72.4531H393.959V189.489H502.155V72.4531Z" fill="#E6E6E6"/>
<path d="M193.289 210.672H85.0928V327.708H193.289V210.672Z" fill="#E6E6E6"/>
<path d="M347.723 210.672H239.526V327.708H347.723V210.672Z" fill="#E6E6E6"/>
<path d="M502.155 210.672H393.959V327.708H502.155V210.672Z" fill="#E6E6E6"/>
<path d="M127.119 143.221C137.22 143.221 145.409 135.056 145.409 124.985C145.409 114.914 137.22 106.75 127.119 106.75C117.019 106.75 108.83 114.914 108.83 124.985C108.83 135.056 117.019 143.221 127.119 143.221Z" fill="#FFB9B9"/>
<path d="M119.976 138.947C119.976 138.947 122.262 149.774 122.262 150.913C122.262 152.053 133.121 157.182 133.121 157.182L142.837 155.472L146.267 145.215C146.267 145.215 140.551 136.667 140.551 133.248L119.976 138.947Z" fill="#FFB9B9"/>
<path d="M111.259 110.294C111.259 110.294 117.066 97.7498 128.196 100.645C139.326 103.539 145.616 107.882 146.1 112.224C146.584 116.566 145.858 123.079 145.858 123.079C145.858 123.079 144.649 114.154 136.906 116.084C129.164 118.013 117.066 116.566 117.066 116.566L115.131 133.935C115.131 133.935 112.953 130.799 110.534 132.729C108.114 134.659 103.517 114.154 111.259 110.294Z" fill="#2F2E41"/>
<path d="M185.129 185.106L180.561 164.588C178.269 157.749 172.559 152.055 172.559 152.055L144.373 142.172H144.366C144.311 144.656 143.471 147.059 141.966 149.04C140.461 151.02 138.367 152.476 135.983 153.201C127.407 156.044 121.503 146.462 121.503 146.462L97.6768 164.588C97.6768 164.588 90.2497 170.862 90.8243 182.829L90.0342 189.489H187.327L185.129 185.106Z" fill="#15CC86"/>
<path d="M281.14 152.308C294.85 152.308 305.964 140.545 305.964 126.034C305.964 111.523 294.85 99.7598 281.14 99.7598C267.43 99.7598 256.315 111.523 256.315 126.034C256.315 140.545 267.43 152.308 281.14 152.308Z" fill="#2F2E41"/>
<path d="M303.166 165.793C310.378 165.793 316.225 159.964 316.225 152.773C316.225 145.582 310.378 139.752 303.166 139.752C295.953 139.752 290.106 145.582 290.106 152.773C290.106 159.964 295.953 165.793 303.166 165.793Z" fill="#2F2E41"/>
<path d="M294.071 135.334L301.067 153.47L283.344 160.91L281.787 157.393L276.347 145.1L294.071 135.334Z" fill="#9F616A"/>
<path d="M280.078 147.192C288.707 147.192 295.702 140.217 295.702 131.614C295.702 123.01 288.707 116.035 280.078 116.035C271.448 116.035 264.453 123.01 264.453 131.614C264.453 140.217 271.448 147.192 280.078 147.192Z" fill="#9F616A"/>
<path d="M267.307 129.906C277.128 123.373 280.063 121.811 291.32 124.334L291.995 107.961L262.906 114.045L267.307 129.906Z" fill="#2F2E41"/>
<path d="M330.447 166.95L330.016 167.001C330.006 166.985 329.994 166.971 329.98 166.958C328.271 165.253 320.111 162.152 314.027 160.004H314.02C310.156 158.636 307.132 157.655 307.132 157.655L299.776 150.113C297.923 152.19 294.008 153.794 290.288 154.926C287.439 155.786 284.542 156.474 281.611 156.988H281.603L280.081 161.837C280.081 161.837 262.82 174.864 261.427 176.253H261.419V176.268C261.308 176.426 261.262 176.621 261.29 176.812V176.848C260.42 181.006 259.972 185.241 259.954 189.488H335.116V185.091C335.116 179.046 330.447 166.95 330.447 166.95Z" fill="#575A89"/>
<path d="M468.661 189.489H431.497L429.449 169.357L429.327 168.132L429.076 165.705L428.049 155.557L426.763 166.457L424.048 189.489H417.296L417.547 182.32L417.799 175.051L417.906 172.122L419.293 132.274C419.186 125.959 421.19 119.789 424.989 114.735C427.098 111.998 429.819 109.789 432.935 108.286C436.052 106.783 439.477 106.026 442.939 106.077C446.471 106.065 449.957 106.869 453.125 108.426C456.293 109.983 459.056 112.25 461.198 115.05C465.124 120.155 467.225 126.422 467.167 132.854L467.806 156.975L468.661 189.489Z" fill="#2F2E41"/>
<path d="M442.94 146.533C451.968 146.533 459.287 139.236 459.287 130.234C459.287 121.233 451.968 113.936 442.94 113.936C433.912 113.936 426.593 121.233 426.593 130.234C426.593 139.236 433.912 146.533 442.94 146.533Z" fill="#FBBEBE"/>
<path d="M434.766 141.877C434.766 141.877 439.436 157.594 434.766 162.25C430.095 166.907 428.928 168.653 428.928 168.653L442.356 186.698L465.708 158.176C465.708 158.176 449.361 153.519 453.448 140.713L434.766 141.877Z" fill="#FBBEBE"/>
<path d="M485.196 189.488H471.405L471.175 187.132L470.967 184.954L477.317 184.16L484.974 183.207L485.06 185.649L485.196 189.488Z" fill="#FBBEBE"/>
<path d="M486.142 185.533C486.142 185.533 483.807 170.981 482.055 165.16C480.304 159.339 478.552 159.339 478.552 159.339H478.552L478.552 159.338C476.491 157.282 471.535 156.917 467.807 156.974C465.192 157.003 463.181 157.232 463.181 157.232L442.357 179.132L431.87 165.232V165.224C430.926 165.298 429.991 165.458 429.076 165.704C428.29 165.904 427.517 166.155 426.763 166.456C423.516 167.84 420.522 169.755 417.907 172.121H417.9C416.391 173.475 415.501 174.47 415.501 174.47C413.191 179.258 411.45 184.298 410.314 189.488H477.044L477.195 186.495V186.489L486.142 185.533Z" fill="#15CC86"/>
<path d="M429.22 127.615C439.777 121.94 444.114 122.18 457.243 127.615L460.746 119.106C460.744 117.503 460.105 115.967 458.968 114.834C457.832 113.702 456.292 113.064 454.685 113.062H431.194C429.587 113.064 428.046 113.702 426.91 114.834C425.774 115.967 425.135 117.503 425.133 119.106L429.22 127.615Z" fill="#2F2E41"/>
<path d="M137.761 239.001C136.891 238.93 136.02 239.123 135.263 239.557C134.545 240.167 133.969 240.926 133.574 241.78C131.746 244.98 129.272 247.767 126.308 249.964C124.148 251.541 121.404 253.507 121.773 256.415C121.968 257.375 122.324 258.296 122.825 259.138C124.817 263.147 130.252 266.245 129.718 270.819C131.697 267.516 129.05 265.883 131.029 262.58C131.971 261.007 133.608 259.231 135.031 260.219C135.507 260.55 135.82 261.143 136.316 261.433C137.5 262.126 138.759 260.802 139.807 259.864C143.42 256.63 148.558 257.477 153.053 258.485C155.176 258.961 157.507 259.585 158.762 261.607C160.412 264.267 157.195 267.139 156.382 270.145C156.315 270.401 156.312 270.67 156.373 270.927C156.433 271.185 156.555 271.424 156.728 271.625C156.902 271.825 157.121 271.981 157.368 272.078C157.614 272.175 157.881 272.212 158.145 272.184C159.494 272.051 161.092 271.943 161.172 271.352C162.869 271.413 164.949 271.221 165.676 269.459C165.898 268.762 166.016 268.035 166.025 267.304C166.292 264.344 167.552 261.644 168.386 258.827C169.221 256.01 169.584 252.708 168.175 250.21C167.673 249.379 167.051 248.626 166.33 247.974C158.336 240.261 147.826 238.989 137.761 239.001Z" fill="#2F2E41"/>
<path d="M131.456 276.596C131.456 276.596 133.194 291.041 126.82 292.196C120.445 293.352 132.615 312.996 132.615 312.996L161.589 316.463L154.635 293.352C154.635 293.352 149.999 291.618 152.897 280.063C155.794 268.507 131.456 276.596 131.456 276.596Z" fill="#9F616A"/>
<path d="M144.494 286.129C154.095 286.129 161.879 278.369 161.879 268.796C161.879 259.223 154.095 251.463 144.494 251.463C134.893 251.463 127.109 259.223 127.109 268.796C127.109 278.369 134.893 286.129 144.494 286.129Z" fill="#9F616A"/>
<path d="M114.571 327.709C117.646 315.656 121.891 299.42 121.891 299.42C121.891 299.42 123.543 299.757 126.143 300.137C129.941 300.701 133.769 301.047 137.607 301.175C142.52 301.311 147.692 300.989 151.693 299.607C153.201 299.124 154.61 298.374 155.852 297.394C156.375 296.974 156.843 296.49 157.245 295.954C164.198 286.709 167.093 321.951 167.093 321.951L167.632 327.709L114.571 327.709Z" fill="#15CC86"/>
<path d="M170.117 364.95C169.887 364.95 169.658 364.957 169.428 364.971L169.758 364.355C169.873 364.549 169.988 364.749 170.117 364.95Z" fill="#FFB8B8"/>
<path d="M138.607 243.536C137.906 243.484 137.204 243.62 136.574 243.929C136.003 244.344 135.534 244.881 135.198 245.501C133.653 247.819 131.638 249.789 129.283 251.285C127.526 252.399 125.291 253.789 125.592 255.844C125.755 256.533 126.046 257.186 126.449 257.769C128.076 260.631 128.723 263.944 128.294 267.205L133.126 260.202C133.894 259.09 135.226 257.835 136.385 258.533C136.772 258.767 137.027 259.186 137.431 259.391C138.394 259.881 139.419 258.945 140.272 258.282C143.213 255.997 147.396 256.595 151.055 257.308C152.783 257.644 154.681 258.085 155.702 259.514C157.4 261.89 155.627 265.323 156.618 268.067C156.895 267.873 157.131 267.626 157.311 267.34C157.49 267.054 157.611 266.735 157.664 266.402C159.046 266.445 160.739 266.309 161.331 265.064C161.511 264.576 161.607 264.061 161.615 263.541C161.832 261.449 162.858 259.54 163.537 257.549C164.217 255.558 164.512 253.224 163.365 251.459C162.946 250.861 162.44 250.328 161.863 249.878C155.356 244.427 146.8 243.528 138.607 243.536Z" fill="#2F2E41"/>
<path d="M136.961 299.994C132.996 295.475 130.64 288.886 130.532 288.592V288.585C130.532 288.585 124.211 284.976 122.473 288.442C120.735 291.908 104.509 300.574 102.77 300.574C102.756 300.58 102.742 300.585 102.727 300.588C102.038 300.817 93.4037 303.947 91.1842 315.599C90.5814 319.608 90.2598 323.655 90.2217 327.709H137.478C137.967 322.603 138.333 317.826 138.477 313.701C138.685 307.95 138.484 303.481 137.607 301.175C137.467 300.745 137.248 300.344 136.961 299.994Z" fill="#2F2E41"/>
<path d="M177.594 303.245C177.565 303.109 177.544 302.994 177.522 302.887C177.445 302.58 177.314 302.289 177.134 302.028C177.131 302.021 177.128 302.014 177.127 302.006C173.78 296.835 152.253 289.717 152.253 289.717L151.448 292.488C151.448 292.488 151.549 295.224 151.692 299.607C151.836 303.711 152.009 309.254 152.174 315.341C152.289 319.316 152.389 323.527 152.483 327.709H184.684C182.879 319.404 180.511 311.23 177.594 303.245Z" fill="#2F2E41"/>
<path d="M478.875 327.708L481.339 315.705L483.63 314.738L483.644 314.745C483.853 314.824 486.345 315.877 486.345 319.866C486.345 320.668 486.223 323.554 486.022 327.708H478.875Z" fill="#575A89"/>
<path d="M452.997 285.783C464.047 285.783 473.005 276.852 473.005 265.834C473.005 254.816 464.047 245.885 452.997 245.885C441.946 245.885 432.988 254.816 432.988 265.834C432.988 276.852 441.946 285.783 452.997 285.783Z" fill="#FFB8B8"/>
<path d="M465.503 277.471L463.835 311.55L437.991 296.589L441.326 277.471H465.503Z" fill="#FFB8B8"/>
<path d="M473.007 313.214L471.312 327.709H457.743L443.018 299.5L438.867 291.557L436.877 290.261L439.183 289.738L441 291.049L461.335 305.737L464.596 295.976L464.682 295.725L465.501 293.269L473.007 313.214Z" fill="#15CC86"/>
<path d="M440.909 246.3C440.909 246.3 443.41 233.832 457.583 236.326L455.915 237.157C455.915 237.157 469.254 235.495 467.587 242.976C467.587 242.976 478.425 249.625 475.924 257.106C474.453 261.442 473.338 265.89 472.589 270.406L470.088 267.912C470.088 267.912 467.587 251.288 452.581 252.95C441.326 254.197 436.741 259.496 435.568 263.314C435.028 265.11 434.339 266.857 433.508 268.539L432.572 268.743C432.572 268.743 427.57 250.457 440.909 246.3Z" fill="#2F2E41"/>
<path d="M483.644 314.746L483.63 314.739L473.007 304.899V298.253L464.804 291.807L464.682 295.725L463.834 322.359L450.194 303.653L440.999 291.048L439.347 288.792L439.75 286.68L434.657 292.431L416.225 306.217L414.645 307.398C412.832 309.207 411.161 311.151 409.646 313.214C409.15 313.951 406.895 319.824 403.957 327.709H486.022C486.223 323.555 486.345 320.669 486.345 319.867C486.345 315.878 483.853 314.825 483.644 314.746Z" fill="#2F2E41"/>
<path d="M291.977 243.922C278.419 243.922 267.428 256.084 267.428 271.086V290.147H273.307L276.711 283.084L275.86 290.147H313.652L316.746 283.726L315.973 290.147H320.228V275.181C320.228 257.917 307.579 243.922 291.977 243.922Z" fill="#2F2E41"/>
<path d="M272.165 327.709H256.197L256.046 314.725C256.039 314.589 256.039 314.46 256.039 314.324L259.235 310.736L259.293 310.672L271.497 318.378L272.165 327.709Z" fill="#D0CDE1"/>
<path d="M289.805 287.483C299.457 287.483 307.282 279.682 307.282 270.058C307.282 260.434 299.457 252.633 289.805 252.633C280.153 252.633 272.328 260.434 272.328 270.058C272.328 279.682 280.153 287.483 289.805 287.483Z" fill="#FBBEBE"/>
<path d="M279.785 280.512C279.785 280.512 284.912 306.998 282.581 309.786C280.251 312.574 307.282 304.675 307.282 304.675C307.282 304.675 298.427 286.553 303.088 276.33L279.785 280.512Z" fill="#FBBEBE"/>
<path d="M327.201 298.424H327.194C326.782 297.556 326.07 296.864 325.19 296.476C321.763 295.036 318.811 293.933 316.383 293.096C312.089 291.626 307.404 291.771 303.21 293.504C302.8 293.668 302.398 293.847 302.003 294.048C302.003 294.048 284.915 297.292 282.882 296.884C282.731 296.855 282.573 296.834 282.422 296.82C282.115 296.776 281.806 296.749 281.496 296.741C277.52 296.557 273.576 297.532 270.147 299.548C264.537 302.792 256.219 308.543 256.047 314.144L255.889 314.323L256.047 327.708H331.051C331.202 314.881 331.288 305.242 331.288 304.59C331.288 302.563 327.201 298.424 327.201 298.424Z" fill="#15CC86"/>
<path d="M298.956 251.405C297.775 249.823 296.244 248.534 294.482 247.638C292.721 246.742 290.775 246.262 288.798 246.236H288.316C279.023 246.236 271.489 254.621 271.489 264.963V264.963H274.603L275.106 261.147L275.843 264.963H294.311L295.858 261.734L295.472 264.963H299.105C300.8 273.358 298.364 281.752 291.797 290.147H297.986L301.08 283.689L300.307 290.147H312.105L314.425 275.295C314.425 264.172 307.943 254.74 298.956 251.405Z" fill="#2F2E41"/>
<path d="M302.348 252.968C307.427 252.968 311.543 248.864 311.543 243.801C311.543 238.737 307.427 234.633 302.348 234.633C297.27 234.633 293.153 238.737 293.153 243.801C293.153 248.864 297.27 252.968 302.348 252.968Z" fill="#2F2E41"/>
</g>
<defs>
<clipPath id="clip0">
<rect width="587" height="375" rx="5" fill="white"/>
</clipPath>
</defs>
</svg>
