<svg width="590" height="388" viewBox="0 0 590 388" fill="none" xmlns="http://www.w3.org/2000/svg">
<g clip-path="url(#clip0)">
<path opacity="0.1" d="M547.128 318.376C545.287 319.995 543.404 321.569 541.481 323.096C541.157 323.357 540.823 323.609 540.495 323.876C533.633 329.2 526.43 334.067 518.93 338.446L517.529 339.262C517.19 339.468 516.856 339.658 516.502 339.848C508.667 344.372 500.539 348.537 492.314 352.481L492.227 352.528L491.605 352.82C484.972 356.001 478.239 359.045 471.407 361.952L471.242 362.013C468.162 363.311 465.081 364.574 462.001 365.803C460.743 366.317 459.48 366.794 458.217 367.282C455.839 368.191 453.457 369.085 451.054 369.943L450.756 370.055L450.243 370.235L449.601 370.471C443.334 372.711 436.982 374.779 430.547 376.675L430.434 376.706C425.947 378.014 421.431 379.224 416.885 380.337L416.264 380.491C409.589 382.104 402.806 383.49 395.983 384.6L394.412 384.851C389.421 385.635 384.396 386.275 379.337 386.772C350.898 389.519 322.12 387.285 293.855 383.454C236.782 375.71 180.463 361.191 129.099 338.436C119.241 334.07 109.574 329.397 100.1 324.415C100.023 324.374 99.956 324.333 99.879 324.297C94.2072 321.315 88.6125 318.208 83.0948 314.976C81.4774 314.041 79.8704 313.086 78.2736 312.126C76.3088 310.941 74.3526 309.743 72.405 308.531C69.8378 306.929 67.2706 305.285 64.7035 303.606L63.502 302.805L63.0399 302.491C62.3879 302.055 61.7461 301.618 61.0991 301.177C36.9676 284.743 15.4495 264.827 5.28347 239.904C-6.46396 211.144 1.05275 174.682 30.1492 157.683C40.1509 151.828 51.7751 148.649 63.5226 146.025L64.724 145.758C66.711 145.321 68.698 144.9 70.6747 144.479C77.601 143.01 84.5632 141.552 91.4586 139.924C95.0527 139.077 98.6108 138.188 102.148 137.228L103.596 136.827C112.128 134.538 120.472 131.598 128.554 128.035H128.606C129.473 127.65 130.331 127.249 131.173 126.838C131.717 126.582 132.261 126.325 132.806 126.042C141.534 121.698 150.776 115.674 157.887 108.494C158.457 107.919 159.011 107.333 159.551 106.748C159.966 106.291 160.377 105.829 160.773 105.366C165.758 99.5529 169.208 93.0975 169.865 86.2466C170.087 83.9445 169.983 81.6227 169.557 79.3495C168.751 75.0407 167.971 70.8244 167.396 66.7108C166.323 58.9817 165.958 51.5915 167.447 44.4685C168.962 37.2067 172.397 30.2172 178.953 23.4382C179.943 22.411 181.009 21.3839 182.152 20.3568C187.454 15.7037 193.454 11.912 199.932 9.12009C200.733 8.77772 201.539 8.43535 202.351 8.09297C220.362 0.800414 242.003 -0.719723 262.222 0.286855C281.112 1.25922 299.882 3.87107 318.32 8.09297C319.784 8.42165 321.247 8.76574 322.7 9.12009C338.385 12.9205 353.818 17.6938 368.909 23.4125C408.126 38.1671 445.139 58.653 479.719 81.2599C480.058 81.4808 480.397 81.7016 480.746 81.9276C482.191 82.8691 483.626 83.814 485.054 84.7624C487.816 86.5941 490.554 88.4378 493.269 90.2934L495.102 91.5414C496.005 92.1577 496.904 92.7757 497.797 93.3954L500.549 95.3007C500.679 95.3786 500.803 95.4661 500.919 95.5626L503.26 97.1854C504.616 98.1304 505.961 99.0805 507.311 100.036L510.207 102.09C510.808 102.521 511.414 102.948 512.014 103.384L515.095 105.633L515.783 106.147C515.927 106.25 516.07 106.352 516.209 106.465L516.296 106.522C524.645 112.649 532.793 119.001 540.428 125.734L541.414 126.607L541.516 126.7C542.348 127.439 543.18 128.189 543.996 128.944C553.967 138.024 562.901 147.781 570.202 158.566C603.74 208.382 593.784 277.358 547.128 318.376Z" fill="#15CC86"/>
<path d="M416.685 181.677C416.685 181.677 419.673 166.014 429.274 165.932L436.298 180.383L431.574 183.593C431.574 183.593 421.429 183.917 416.685 181.677Z" fill="#65617D"/>
<path opacity="0.1" d="M436.277 180.363L431.574 183.593C431.574 183.593 424.417 183.819 419.303 182.566C418.403 182.357 417.526 182.059 416.685 181.678C416.685 181.678 416.685 181.59 416.736 181.426C416.734 181.405 416.734 181.385 416.736 181.364C417.178 179.399 417.786 177.475 418.553 175.612C418.846 174.909 419.185 174.185 419.544 173.461C420.951 170.754 422.928 168.099 425.634 166.784C426.633 166.294 427.721 166.01 428.832 165.947H429.12H429.259L429.418 166.266L431.79 171.15L436.277 180.363Z" fill="black"/>
<path d="M516.024 245.436C516.024 245.436 526.113 244.471 527.001 245.195C527.889 245.919 533.619 249.637 537.013 247.295C540.407 244.954 538.143 236.798 538.143 236.475C538.143 236.151 537.819 224.606 537.819 224.606L531.766 216.451L524.177 202.164L508.682 200.623L509.082 223.312L509.005 234.939L516.024 245.436Z" fill="#65617D"/>
<path opacity="0.1" d="M516.024 245.436C516.024 245.436 526.113 244.471 527.001 245.195C527.889 245.919 533.619 249.637 537.013 247.295C540.407 244.954 538.143 236.798 538.143 236.475C538.143 236.151 537.819 224.606 537.819 224.606L531.766 216.451L524.177 202.164L508.682 200.623L509.082 223.312L509.005 234.939L516.024 245.436Z" fill="black"/>
<path d="M427.236 165.511C427.236 165.511 426.44 175.361 420.279 175.515C420.279 175.515 418.543 174.488 416.202 172.716C410.811 168.685 402.262 160.93 404.624 153.714C408.013 143.382 424.479 162.445 424.479 162.445L425.747 163.862L427.236 165.511Z" fill="#A5636D"/>
<path opacity="0.1" d="M427.236 165.51C427.236 165.51 426.44 175.36 420.279 175.515C420.279 175.515 418.543 174.487 416.202 172.716L415.688 172.043C416.729 172.589 417.877 172.899 419.051 172.952C420.592 172.983 422.327 172.438 423.441 170.184C424.085 168.916 424.653 167.611 425.141 166.276C425.432 165.492 425.638 164.679 425.757 163.852L427.236 165.51Z" fill="black"/>
<path d="M424.571 183.351L423.19 181.574L418.569 175.591L416.171 172.536C417.211 173.079 418.357 173.388 419.529 173.439C421.069 173.475 422.805 172.926 423.919 170.671C424.565 169.405 425.132 168.099 425.618 166.763C426.383 164.586 426.368 163.466 426.096 163.086C425.824 162.706 427.811 164.55 428.766 165.459L428.801 165.49L429.243 165.911L429.412 166.239L431.749 170.918C431.749 170.918 431.749 170.985 431.749 171.113C431.964 172.597 432.75 182.016 424.571 183.351Z" fill="#E7EFFD"/>
<path d="M513.765 119.325L501.818 132.087C501.818 132.087 486.486 125.925 488.099 123.87C488.725 123.059 488.612 120.496 488.263 117.667C487.698 113.193 486.486 108.042 486.486 108.042C486.486 108.042 513.283 103.682 511.018 108.207C510.197 109.855 510.335 111.802 510.849 113.568C511.508 115.63 512.493 117.574 513.765 119.325Z" fill="#A5636D"/>
<path opacity="0.1" d="M511.018 108.188C510.197 109.836 509.802 109.995 510.315 111.783C506.813 115.542 502.357 119.656 496.817 119.656C493.849 119.661 490.92 118.975 488.263 117.653C487.698 113.18 486.486 108.029 486.486 108.029C486.486 108.029 513.283 103.663 511.018 108.188Z" fill="black"/>
<path d="M516.029 99.9492C516.029 105.046 514.005 109.934 510.402 113.538C506.799 117.142 501.912 119.167 496.816 119.167C491.721 119.167 486.834 117.142 483.231 113.538C479.628 109.934 477.604 105.046 477.604 99.9492C477.604 99.8568 477.604 99.7643 477.604 99.6719C477.714 94.6251 479.805 89.8245 483.425 86.3074C487.045 82.7902 491.904 80.8391 496.95 80.8755C501.997 80.9119 506.827 82.933 510.396 86.502C513.965 90.0711 515.986 94.9014 516.024 99.9492H516.029Z" fill="#A5636D"/>
<path opacity="0.1" d="M518.807 226.716C516.24 226.716 507.788 226.809 498.321 226.958H498.203L495.076 227.009H494.978C483.749 227.189 472.685 224.996 468.244 225.412C458.796 226.3 471.632 216.681 471.632 216.681C478.67 218.389 485.908 219.122 493.145 218.859L495.861 218.715C504.441 218.232 513.067 217.426 517.575 216.07C517.888 218.576 518.345 222.207 518.807 226.716Z" fill="black"/>
<path d="M518.807 226.234C516.24 226.234 507.788 226.321 498.321 226.475H498.203L495.076 226.527H494.978C483.749 226.707 472.685 224.514 468.244 224.93C458.796 225.813 471.632 216.199 471.632 216.199C478.67 217.907 485.909 218.638 493.145 218.371L495.861 218.233C504.441 217.75 513.067 216.939 517.575 215.588C517.888 218.094 518.345 221.735 518.807 226.234Z" fill="#5F5D7E"/>
<path opacity="0.1" d="M491.646 124.671L476.793 131.614L465.338 220.244C465.338 220.244 472.115 217.163 475.992 219.115C479.868 221.066 491.811 219.279 491.811 219.279C491.811 219.279 500.539 218.765 501.818 219.762C503.096 220.758 518.289 215.725 518.289 215.725C518.289 215.725 521.03 209.588 518.93 208.623C516.83 207.657 519.577 198.11 519.577 198.11L518.289 134.167L515.721 125.95L508.78 121.754L501.679 127.403L498.29 127.891L491.646 124.671Z" fill="black"/>
<path d="M491.646 123.686L476.798 130.63L465.338 219.28C465.338 219.28 472.115 216.199 475.992 218.151C479.868 220.102 491.811 218.31 491.811 218.31C491.811 218.31 500.539 217.827 501.818 218.792C503.096 219.758 518.289 214.756 518.289 214.756C518.289 214.756 521.03 208.624 518.93 207.653C516.83 206.683 519.577 197.156 519.577 197.156L518.289 133.213L515.721 124.996L508.78 120.795L501.679 126.444L498.29 126.927L491.646 123.686Z" fill="#E7EFFD"/>
<path opacity="0.1" d="M491.405 127.804C491.405 127.804 495.687 132.888 495.605 133.941C495.523 134.994 495.364 137.49 495.364 137.49L492.16 144.032C492.16 144.032 490.383 152.188 490.383 153.883C490.383 155.577 487.559 170.27 487.559 170.27L484.171 192.867L479.889 222.499L484.248 230.008L489.413 225.647L496.267 172.853L497.72 162.438C497.72 162.438 499.261 143.709 499.261 141.773C499.261 139.837 498.372 134.747 498.372 134.747C498.372 134.747 499.425 129.904 503.784 128.775C508.143 127.645 503.461 128.528 503.461 128.528L500.96 126.51L498.778 127.398C498.778 127.398 492.699 125.544 491.405 127.804Z" fill="black"/>
<path d="M490.922 127.322C490.922 127.322 495.199 132.406 495.122 133.453C495.045 134.501 494.876 137.007 494.876 137.007L491.646 143.55C491.646 143.55 489.87 151.7 489.87 153.395C489.87 155.09 487.046 169.788 487.046 169.788L483.652 192.384L479.375 222.012L483.734 229.52L488.899 225.16L495.754 172.371L497.207 161.956C497.207 161.956 498.747 143.226 498.747 141.285C498.747 139.344 497.859 134.265 497.859 134.265C497.859 134.265 498.886 129.417 503.265 128.287C507.645 127.157 502.947 128.046 502.947 128.046L500.441 126.027L498.264 126.916C498.264 126.916 492.216 125.057 490.922 127.322Z" fill="#15CC86"/>
<path opacity="0.1" d="M488.098 118.844C488.098 118.844 487.451 119.327 487.292 122.557C487.132 125.787 484.868 133.054 484.868 133.054C484.868 133.054 493.263 127.24 497.463 127.888L488.098 118.844Z" fill="black"/>
<path d="M488.098 117.873C488.098 117.873 487.451 118.361 487.292 121.586C487.132 124.811 484.868 132.083 484.868 132.083C484.868 132.083 493.263 126.27 497.463 126.917L488.098 117.873Z" fill="#E7EFFD"/>
<path opacity="0.1" d="M511.023 116.26L497.808 127.887C497.808 127.887 508.949 134.507 510.402 136.104C511.855 137.701 513.308 120.281 513.308 120.281L511.023 116.26Z" fill="black"/>
<path d="M511.506 115.289L498.27 126.916C498.27 126.916 509.406 133.536 510.859 135.133C512.312 136.73 513.765 119.305 513.765 119.305L511.506 115.289Z" fill="#E7EFFD"/>
<path opacity="0.1" d="M488.565 118.843C488.565 118.843 487.112 118.114 485.741 120.214C484.371 122.315 481.788 123.296 481.788 123.296C481.788 123.296 467.093 125.638 466.529 127.574L459.669 127.974C459.669 127.974 457.246 128.267 457.02 133.403C456.794 138.538 455.479 138.97 455.479 138.97C455.479 138.97 452.65 143.977 452.912 146.56C453.174 149.143 450.73 150.437 450.73 150.437L460.84 176.65C460.84 176.65 461.163 187.47 459.299 191.425C457.436 195.379 453.97 212.902 453.97 212.902C453.97 212.902 455.423 212.578 455.341 213.549C455.259 214.519 453.564 225.094 453.564 225.094C453.564 225.094 453.082 229.289 452.276 230.743C451.47 232.196 451.387 239.787 451.387 239.787L450.058 245.277C450.058 245.277 453.138 252.138 457.81 251.167C462.483 250.197 470.965 231.873 470.965 231.873L476.371 212.095L480.571 192.554L481.783 179.315L483.718 150.006L486.542 130.629C486.542 130.629 489.71 120.214 488.565 118.843Z" fill="black"/>
<path d="M488.098 117.873C488.098 117.873 486.645 117.148 485.274 119.249C483.904 121.349 481.316 122.33 481.316 122.33C481.316 122.33 466.626 124.672 466.062 126.608L459.202 127.014C459.202 127.014 456.779 127.337 456.537 132.422C456.296 137.506 454.997 137.994 454.997 137.994C454.997 137.994 452.173 143.001 452.43 145.584C452.687 148.167 450.253 149.457 450.253 149.457L460.327 175.679C460.327 175.679 460.65 186.5 458.786 190.454C456.922 194.408 453.462 211.931 453.462 211.931C453.462 211.931 454.915 211.608 454.833 212.578C454.751 213.549 453.056 224.123 453.056 224.123C453.056 224.123 452.574 228.319 451.768 229.772C450.961 231.226 450.879 238.816 450.879 238.816L449.596 244.332C449.596 244.332 452.676 251.193 457.343 250.227C462.011 249.262 470.503 230.928 470.503 230.928L475.909 211.151L480.109 191.635L481.316 178.396L483.257 149.092L486.081 129.715C486.081 129.715 489.228 119.249 488.098 117.873Z" fill="#65617D"/>
<path opacity="0.1" d="M436.278 180.363L431.574 183.593C431.574 183.593 424.417 183.819 419.303 182.566L416.695 181.41L416.182 181.179L416.721 181.349C419.421 182.15 421.532 182.135 423.18 181.58C429.808 179.351 429.074 168.407 428.828 165.932C428.828 165.685 428.786 165.526 428.776 165.464C428.775 165.454 428.775 165.444 428.776 165.434L428.817 165.495C428.905 165.646 429.007 165.789 429.12 165.921C429.213 166.032 429.312 166.137 429.418 166.235L431.754 170.913C431.754 170.913 431.754 170.98 431.754 171.108L436.278 180.363Z" fill="black"/>
<path d="M452.502 148.809L450.243 149.456L449.919 154.078C449.919 154.078 447.255 153.677 446.531 156.825C445.807 159.973 444.513 161.447 444.513 161.447C444.513 161.447 440.072 165.16 439.83 168.308L437.083 170.003C437.083 170.003 430.707 168.55 429.254 165.967C429.254 165.967 432.16 186.797 416.664 181.712C416.664 181.712 434.018 189.303 434.824 190.35C435.63 191.398 440.96 194.459 445.802 191.891C450.643 189.323 451.696 185.271 451.696 185.271C451.696 185.271 456.378 178.734 456.538 177.763C456.697 176.792 460.332 175.663 460.332 175.663L467.274 158.874L452.502 148.809Z" fill="#65617D"/>
<path opacity="0.1" d="M509.164 125.945L511.506 115.289C511.506 115.289 512.533 118.761 513.606 119.567C514.679 120.373 517.076 122.232 517.076 122.232C517.076 122.232 520.547 123.85 521.754 123.85C522.96 123.85 529.507 125.545 530.313 126.418C531.119 127.291 534.349 126.659 534.349 126.659C534.349 126.659 537.013 127.548 539.355 128.113C541.696 128.678 542.825 132.555 542.338 134.085C542.143 134.848 542.144 135.648 542.342 136.411C542.539 137.173 542.926 137.873 543.467 138.445C544.438 139.416 544.92 142.554 544.92 142.554C546.109 142.941 547.097 143.783 547.667 144.896C548.473 146.673 548.232 150.545 548.232 150.545L536.207 167.492C536.207 167.492 536.366 174.03 535.884 175.483C535.401 176.937 537.578 201.644 537.578 201.644L540.078 244.111C540.078 244.111 536.772 246.935 536.043 247.259C535.314 247.582 534.59 232.242 534.59 231.677C534.59 231.112 515.947 203.74 515.947 203.74C515.947 203.74 513.441 199.703 513.441 198.815C513.441 197.926 511.1 189.776 511.1 189.776L507.562 174.066L509.164 125.945Z" fill="black"/>
<path d="M549.234 149.645C549.234 150.2 549.203 150.57 549.203 150.57L537.183 167.517C537.183 167.517 537.348 174.06 536.865 175.513C536.583 176.356 537.199 185.045 537.769 192.178C538.174 197.314 538.559 201.669 538.559 201.669L539.617 219.685L541.055 244.14C541.055 244.14 537.748 246.965 537.024 247.289C536.3 247.612 535.571 232.272 535.571 231.702C535.571 231.132 516.913 203.759 516.913 203.759C516.913 203.759 514.413 199.717 514.413 198.829C514.413 197.941 512.071 189.785 512.071 189.785L508.523 174.045L510.136 125.924L511.506 115.268C511.506 115.268 513.524 118.744 514.587 119.546C515.65 120.347 518.053 122.211 518.053 122.211C518.053 122.211 521.524 123.829 522.735 123.829C523.947 123.829 530.483 125.523 531.294 126.396C532.106 127.269 535.33 126.638 535.33 126.638C535.33 126.638 537.989 127.526 540.331 128.091C542.672 128.656 543.802 132.533 543.319 134.064C543.123 134.827 543.124 135.627 543.321 136.39C543.519 137.152 543.907 137.852 544.448 138.424C545.414 139.39 545.902 142.532 545.902 142.532C547.09 142.921 548.077 143.763 548.648 144.874C549.198 146.148 549.249 148.387 549.234 149.645Z" fill="#65617D"/>
<path opacity="0.1" d="M462.006 365.805C460.748 366.319 459.485 366.796 458.222 367.284C454.263 366.128 450.566 364.768 450.566 364.768C454.396 364.905 458.214 365.251 462.006 365.805Z" fill="black"/>
<path opacity="0.1" d="M500.205 322.701C500.205 322.701 509.811 324.961 510.376 326.496L500.205 322.701Z" fill="black"/>
<path opacity="0.1" d="M463.156 329.645C463.156 329.645 458.15 331.098 462.996 334.005C467.843 336.911 463.156 329.645 463.156 329.645Z" fill="black"/>
<path opacity="0.1" d="M485.352 252.034C485.916 252.034 494.717 249.128 497.782 250.422C500.847 251.716 504.647 251.711 504.647 251.711L485.352 252.034Z" fill="black"/>
<path opacity="0.1" d="M486.512 261.278L486.425 262.079L478.898 281.769C478.898 281.769 477.686 287.742 476.634 291.131C475.974 293.435 475.449 295.776 475.062 298.141L481.737 256.82L486.512 261.278Z" fill="black"/>
<path d="M498.203 226.475L495.076 226.526H494.979L493.146 218.386C494.044 218.345 494.953 218.299 495.862 218.242L498.203 226.475Z" fill="#3F3D56"/>
<path d="M536.284 216.6L534.277 218.259L527.587 223.79C527.587 223.79 509.426 233.481 504.426 224.273C500.015 216.163 520.604 210.376 525.564 209.112C526.236 208.943 526.621 208.855 526.621 208.855L536.284 216.6Z" fill="#A5636D"/>
<path opacity="0.1" d="M458.72 137.248C458.72 137.248 462.268 138.866 463.074 141.125C463.88 143.385 458.72 137.248 458.72 137.248Z" fill="black"/>
<path opacity="0.1" d="M447.737 161.475C447.737 161.475 442.572 167.771 444.657 170.205C446.741 172.639 447.737 161.475 447.737 161.475Z" fill="black"/>
<path opacity="0.1" d="M540.079 140.803C540.079 140.803 535.238 141.285 535.073 145.486L540.079 140.803Z" fill="black"/>
<path opacity="0.1" d="M495.199 207.005C495.713 206.523 506.823 190.058 509.406 191.506L495.199 207.005Z" fill="black"/>
<path opacity="0.1" d="M516.029 99.9502C516.032 103.115 515.25 106.231 513.755 109.02H513.611C512.394 108.763 511.762 107.345 510.833 106.452C510.261 105.908 509.533 105.557 508.752 105.447C507.97 105.337 507.174 105.475 506.474 105.841C505.766 106.263 505.191 106.875 504.813 107.608C504.434 108.34 504.268 109.163 504.333 109.985C503.717 107.417 503.912 104.649 503.306 102.061C502.7 99.4726 500.898 96.8483 498.423 96.802C497.355 96.802 496.113 97.1975 495.343 96.3963C494.876 95.9136 494.783 95.1535 494.434 94.5681C492.663 91.7075 487.282 93.1558 485.084 94.6245C482.887 96.0933 480.335 98.4352 477.604 99.6934C477.714 94.6466 479.805 89.846 483.425 86.3289C487.045 82.8117 491.904 80.8606 496.95 80.897C501.997 80.9334 506.827 82.9545 510.396 86.5235C513.965 90.0926 515.986 94.9229 516.024 99.9707L516.029 99.9502Z" fill="black"/>
<path d="M494.44 94.0632C494.789 94.6487 494.881 95.4087 495.348 95.8915C496.119 96.6875 497.361 96.2767 498.429 96.2972C500.904 96.3383 502.711 98.9626 503.312 101.551C503.912 104.139 503.717 106.892 504.339 109.475C504.275 108.654 504.441 107.832 504.82 107.1C505.198 106.369 505.773 105.758 506.48 105.336C507.178 104.97 507.974 104.832 508.755 104.942C509.536 105.051 510.263 105.403 510.834 105.947C511.763 106.83 512.374 108.248 513.616 108.515C514.859 108.782 516.009 107.601 516.451 106.317C516.892 105.033 516.856 103.626 517.144 102.296C517.693 99.774 519.336 97.7095 520.224 95.3163C521.307 92.4025 521.278 89.1917 520.142 86.2982C519.536 84.7575 518.638 83.4171 518.022 81.9021C517.097 79.6013 516.851 77.0079 515.722 74.815C513.822 71.143 509.345 69.3096 505.668 70.7065C503.912 71.369 502.388 72.6477 500.606 73.2178C498.224 73.983 495.672 73.4078 493.202 73.0637C490.733 72.7196 488.001 72.6888 486.014 74.3117C483.729 76.181 483.103 79.6938 480.957 81.748C480.053 82.6108 478.934 83.1603 477.984 83.9563C477.034 84.7524 476.213 85.9387 476.32 87.2329C476.464 88.9071 478.102 90.4272 477.496 91.973C477.278 92.4228 476.973 92.8244 476.598 93.1542C474.801 95.0412 473.464 97.317 472.69 99.8048C477.014 101.155 481.686 96.3896 485.069 94.1557C487.293 92.6509 492.673 91.1975 494.44 94.0632Z" fill="#4C3E42"/>
<path opacity="0.1" d="M536.285 216.599L534.277 218.258C532.506 215.305 525.23 209.409 525.23 209.409L525.544 209.106C526.216 208.937 526.601 208.85 526.601 208.85L536.285 216.599Z" fill="black"/>
<path d="M538.225 213.626C538.225 213.626 537.501 215.424 536.757 216.98C536.012 218.536 535.217 219.943 535.155 218.798C535.073 216.533 525.713 208.943 525.713 208.943L526.981 207.71L528.455 206.277L538.225 213.626Z" fill="#E7EFFD"/>
<path opacity="0.1" d="M538.548 201.676L539.606 219.692C537.1 215.794 530.215 205.795 525.789 206.118L536.525 193.793C536.974 193.296 537.385 192.767 537.757 192.211C538.163 197.336 538.548 201.676 538.548 201.676Z" fill="black"/>
<path opacity="0.1" d="M538.226 213.626C538.226 213.626 537.502 215.424 536.757 216.98C533.944 213.118 530.083 208.563 527.002 207.71L528.476 206.277L538.226 213.626Z" fill="black"/>
<path d="M546.296 148.295L549.202 150.555C549.202 150.555 554.044 150.637 554.527 154.663C555.009 158.689 559.45 160.559 559.45 160.559C559.45 160.559 562.762 163.866 562.762 165.402C562.762 166.937 565.263 169.68 565.263 169.921C565.263 170.162 567.686 175.087 567.362 175.976C567.039 176.864 569.93 180.742 569.057 182.195C568.328 183.499 567.681 184.847 567.121 186.232C567.121 186.232 563.327 193.499 561.386 194.87C559.445 196.241 550.573 207.786 550.573 207.786C550.573 207.786 541.049 218.766 541.049 222.165C541.049 222.165 531.766 206.661 526.277 207.067L537.013 194.716C537.013 194.716 538.867 192.697 538.949 191.485C539.031 190.273 544.114 184.701 546.538 184.46C546.538 184.46 546.938 181.147 545.891 181.07C544.843 180.993 543.955 178.405 543.955 178.405C543.955 178.405 536.849 170.008 536.767 164.677C536.685 159.347 546.296 148.295 546.296 148.295Z" fill="#65617D"/>
<path opacity="0.1" d="M550.574 156C550.574 156 543.791 161.002 545.244 162.62C546.697 164.238 550.574 156 550.574 156Z" fill="black"/>
<path opacity="0.1" d="M550.896 176.65C550.896 176.65 563.486 172.613 564.759 176.65H550.896Z" fill="black"/>
<path opacity="0.1" d="M462.066 155.014C462.066 155.014 462.066 173.42 460.49 175.238C458.914 177.056 462.066 155.014 462.066 155.014Z" fill="black"/>
<path opacity="0.1" d="M534.831 160.945L537.172 167.524C537.172 167.524 538.102 161.069 534.831 160.945Z" fill="black"/>
<g opacity="0.1">
<path opacity="0.1" d="M477.784 90.376C478.374 88.861 476.829 87.3768 476.623 85.7539C476.42 86.212 476.332 86.7126 476.367 87.2124C476.469 88.4398 477.393 89.5799 477.614 90.7149C477.681 90.6074 477.738 90.4939 477.784 90.376Z" fill="black"/>
<path opacity="0.1" d="M504.549 107.766C503.969 105.198 504.138 102.522 503.553 99.9803C502.968 97.4382 501.145 94.7625 498.67 94.7215C497.602 94.7215 496.36 95.1118 495.59 94.3158C495.122 93.833 495.03 93.0729 494.681 92.4875C492.915 89.6269 487.534 91.0752 485.331 92.544C482.03 94.7369 477.496 99.3281 473.26 98.2907C473.06 98.7786 472.87 99.2716 472.711 99.78C477.034 101.131 481.706 96.3649 485.09 94.1309C487.293 92.6672 492.668 91.2138 494.44 94.0795C494.789 94.665 494.881 95.425 495.348 95.9078C496.118 96.7038 497.361 96.293 498.429 96.3135C500.904 96.3546 502.711 98.9789 503.312 101.567C503.912 104.156 503.717 106.908 504.339 109.491C504.293 108.908 504.365 108.321 504.549 107.766Z" fill="black"/>
<path opacity="0.1" d="M516.687 104.735C516.246 106.019 515.096 107.195 513.853 106.933C512.611 106.671 512.005 105.259 511.075 104.365C510.502 103.823 509.774 103.473 508.993 103.364C508.211 103.256 507.416 103.394 506.716 103.759C506.043 104.16 505.49 104.734 505.113 105.421C504.737 106.109 504.551 106.884 504.575 107.667C504.899 106.681 505.576 105.849 506.475 105.331C507.174 104.965 507.969 104.827 508.75 104.936C509.531 105.046 510.258 105.398 510.829 105.942C511.758 106.825 512.369 108.243 513.612 108.51C514.854 108.777 516.004 107.595 516.446 106.312C516.674 105.555 516.822 104.777 516.888 103.99C516.834 104.242 516.767 104.49 516.687 104.735Z" fill="black"/>
<path opacity="0.1" d="M520.481 93.7403C519.572 96.1335 517.914 98.198 517.4 100.714C517.287 101.228 517.226 101.742 517.164 102.255C517.713 99.749 519.351 97.6896 520.245 95.3015C520.649 94.2261 520.9 93.0988 520.989 91.9531C520.867 92.5614 520.697 93.159 520.481 93.7403Z" fill="black"/>
</g>
<path d="M403.833 152.199C403.944 152.199 404.033 152.11 404.033 151.999C404.033 151.889 403.944 151.799 403.833 151.799C403.722 151.799 403.633 151.889 403.633 151.999C403.633 152.11 403.722 152.199 403.833 152.199Z" fill="#E6E8EC"/>
<path d="M242.476 264.684C242.476 264.684 248.123 260.632 253.992 263.143C253.992 263.143 252.349 266.625 245.058 266.579L242.476 264.684Z" fill="#15CC86"/>
<path d="M241.773 264.92C241.773 264.92 240.263 271.714 244.853 276.121C244.853 276.121 247.421 273.245 244.509 266.553L241.773 264.92Z" fill="#15CC86"/>
<path d="M234.286 258.737C234.286 258.737 234.497 253 247.481 254.402C247.481 254.402 247.687 258.095 243.22 260.016C238.753 261.936 236.622 260.545 234.286 258.737Z" fill="#15CC86"/>
<path d="M233.491 258.711C233.491 258.711 228.099 260.673 233.429 272.603C233.429 272.603 237.023 271.658 237.454 266.815C237.886 261.972 235.924 260.395 233.491 258.711Z" fill="#15CC86"/>
<path d="M225.871 250.895C225.871 250.895 224.772 241.512 238.009 241.969C238.009 241.969 239.272 250.453 228.289 253.067L225.871 250.895Z" fill="#15CC86"/>
<path d="M216.742 240.602C216.742 240.602 218.144 229.864 231.457 232.54C231.457 232.54 231.858 241.784 218.991 243.062L216.742 240.602Z" fill="#15CC86"/>
<path d="M209.949 229.86C209.949 229.86 212.578 219.332 225.768 221.966C225.768 221.966 223.016 231.426 210.879 231.724L209.949 229.86Z" fill="#15CC86"/>
<path d="M203.485 219.363C203.485 219.363 206.053 208.465 218.77 211.223C218.77 211.223 214.95 221.627 204.394 221.17L203.485 219.363Z" fill="#15CC86"/>
<path d="M199.188 209.322C199.188 209.322 200.959 196.057 212.85 198.512C212.85 198.512 209.893 210.642 200.137 211.207L199.188 209.322Z" fill="#15CC86"/>
<path d="M195.06 197.146C195.06 197.146 197.283 183.747 209.323 187.157C209.323 187.157 205.138 199.899 195.973 198.969L195.06 197.146Z" fill="#15CC86"/>
<path d="M192.354 185.785C192.354 185.785 196.184 172.325 205.405 172.33C205.405 172.33 201.503 186.54 193.226 188.42L192.354 185.785Z" fill="#15CC86"/>
<path d="M190.49 174.646C190.49 174.646 194.598 158.464 202.135 159.409C202.135 159.409 199.337 171.765 190.839 177.127L190.49 174.646Z" fill="#15CC86"/>
<path d="M189.16 161.32C189.16 161.32 193.073 147.813 200.456 147.002C200.456 147.002 197.945 160.236 189.463 164.776L189.16 161.32Z" fill="#15CC86"/>
<path d="M187.789 148.917C187.789 148.917 192.795 135.359 197.673 134.871C197.673 134.871 195.778 148.106 188.359 151.089L187.789 148.917Z" fill="#15CC86"/>
<path d="M186.731 137.362C186.731 137.362 189.571 122.73 194.402 121.344C194.402 121.344 194.192 133.228 187.265 138.425L186.731 137.362Z" fill="#15CC86"/>
<path d="M184.313 122.278C184.313 122.278 187.44 110.584 191.327 108.674C191.327 108.674 191.065 122.324 185.34 125.067L184.313 122.278Z" fill="#15CC86"/>
<path d="M182.408 112.382L180.909 92.0293C180.909 92.0293 188.873 107.128 183.071 115.941L182.408 112.382Z" fill="#15CC86"/>
<path d="M175.924 92.3476C175.924 92.3476 170.04 77.6751 168.736 76.8945C168.736 76.8945 179.518 86.1386 179.005 98.6027L175.924 92.3476Z" fill="#15CC86"/>
<path d="M225.506 250.838C225.506 250.838 216.1 249.975 216.885 263.194C216.885 263.194 225.398 264.221 227.74 253.2L225.506 250.838Z" fill="#15CC86"/>
<path d="M216.285 240.264C216.285 240.264 205.467 240.644 206.868 254.13C206.868 254.13 216.008 255.403 218.518 242.718L216.285 240.264Z" fill="#15CC86"/>
<path d="M209.877 230.742C209.877 230.742 199.88 226.511 194.053 238.636C194.053 238.636 203.269 242.128 210.816 232.627L209.877 230.742Z" fill="#15CC86"/>
<path d="M203.269 219.47C203.269 219.47 193.026 214.956 187.568 226.794C187.568 226.794 198.181 229.998 204.168 221.278L203.269 219.47Z" fill="#15CC86"/>
<path d="M199.327 209.604C199.327 209.604 189.299 200.73 181.937 210.375C181.937 210.375 192.113 217.601 199.85 211.643L199.327 209.604Z" fill="#15CC86"/>
<path d="M195.599 196.811C195.599 196.811 185.499 187.726 178.219 197.91C178.219 197.91 189.442 205.249 196.02 198.778L195.599 196.811Z" fill="#15CC86"/>
<path d="M193.34 185.359C193.34 185.359 185.386 173.845 176.663 176.813C176.663 176.813 184.919 189.015 193.36 188.112L193.34 185.359Z" fill="#15CC86"/>
<path d="M190.706 174.565C190.706 174.565 182.579 159.98 175.534 162.835C175.534 162.835 181.418 174.057 190.999 177.056L190.706 174.565Z" fill="#15CC86"/>
<path d="M189.649 160.539C189.649 160.539 181.434 149.133 174.215 150.843C174.215 150.843 181.013 162.465 190.532 163.897L189.649 160.539Z" fill="#15CC86"/>
<path d="M188.601 148.624C188.601 148.624 182.08 135.724 177.177 135.785C177.177 135.785 180.571 148.717 188.277 150.838L188.601 148.624Z" fill="#15CC86"/>
<path d="M186.962 137.064C186.962 137.064 179.774 124.02 174.732 124.189C174.732 124.189 178.593 135.431 186.783 138.245L186.962 137.064Z" fill="#15CC86"/>
<path d="M185.417 123.05C185.417 123.05 179.99 112.234 175.801 111.15C175.801 111.15 178.815 124.467 184.981 125.992L185.417 123.05Z" fill="#15CC86"/>
<path d="M181.798 112.017L169.958 95.3984C169.958 95.3984 173.47 112.099 183.554 115.196L181.798 112.017Z" fill="#15CC86"/>
<path d="M173.414 93.8167C173.414 93.8167 160.064 85.3379 159.551 83.9102C159.551 83.9102 166.667 96.2356 179.01 97.9766L173.414 93.8167Z" fill="#15CC86"/>
<path d="M172.479 89.8104C172.479 89.8104 157.004 76.0316 153.194 76.1908C153.194 76.1908 165.517 76.2833 172.808 89.0298L172.479 89.8104Z" fill="#15CC86"/>
<path d="M185.356 125.187L184.811 125.279C181.166 103.427 176.596 90.6034 171.898 89.1757L172.058 88.6621C177.023 90.1617 181.618 102.8 185.356 125.187Z" fill="#444053"/>
<path d="M191.487 177.538L190.67 177.64C190.419 175.586 190.208 173.501 190.033 171.416C188.555 153.267 186.701 136.622 184.627 124.168L185.079 123.562C187.133 136.037 189.376 153.174 190.86 171.324C191.024 173.424 191.24 175.514 191.487 177.538Z" fill="#444053"/>
<path d="M258.207 274.554C258.058 274.493 243.348 268.592 227.745 253.755C218.609 245.073 210.906 234.999 204.922 223.907C197.442 210.041 192.544 192.826 190.479 176.002L191.352 176.372C195.973 214.129 214.221 239.365 228.469 252.923C243.918 267.626 258.464 273.465 258.607 273.532L258.207 274.554Z" fill="#444053"/>
<g opacity="0.7">
<path opacity="0.7" d="M268.43 257.801C268.43 257.801 275.032 255.618 279.879 259.747C279.879 259.747 277.276 262.587 270.329 260.369L268.43 257.801Z" fill="#15CC86"/>
<path opacity="0.7" d="M267.685 257.812C267.685 257.812 264.225 263.852 267.305 269.429C267.305 269.429 270.607 267.442 269.821 260.185L267.685 257.812Z" fill="#15CC86"/>
<path opacity="0.7" d="M262.376 249.688C262.376 249.688 264.286 244.27 276.239 249.478C276.239 249.478 275.335 253.073 270.499 253.586C265.662 254.1 264.07 252.107 262.376 249.688Z" fill="#15CC86"/>
<path opacity="0.7" d="M261.627 249.467C261.627 249.467 255.892 249.739 257.437 262.712C257.437 262.712 261.124 262.876 262.998 258.387C264.872 253.899 263.45 251.757 261.627 249.467Z" fill="#15CC86"/>
<path opacity="0.7" d="M256.672 239.709C256.672 239.709 258.418 230.423 270.915 234.799C270.915 234.799 269.595 243.273 258.335 242.502L256.672 239.709Z" fill="#15CC86"/>
<path opacity="0.7" d="M251.02 227.152C251.02 227.152 255.553 217.318 267.449 223.835C267.449 223.835 265.093 232.755 252.421 230.167L251.02 227.152Z" fill="#15CC86"/>
<path opacity="0.7" d="M247.729 214.874C247.729 214.874 253.376 205.604 265.185 212.044C265.185 212.044 259.743 220.261 248.067 216.954L247.729 214.874Z" fill="#15CC86"/>
<path opacity="0.7" d="M244.684 202.928C244.684 202.928 250.362 193.283 261.704 199.702C261.704 199.702 254.963 208.5 245.007 204.92L244.684 202.928Z" fill="#15CC86"/>
<path opacity="0.7" d="M243.569 192.061C243.569 192.061 249.217 179.915 259.814 185.806C259.814 185.806 253.381 196.503 243.898 194.141L243.569 192.061Z" fill="#15CC86"/>
<path opacity="0.7" d="M243.246 179.211C243.246 179.211 249.356 167.081 259.835 173.921C259.835 173.921 252.046 184.84 243.57 181.199L243.246 179.211Z" fill="#15CC86"/>
<path opacity="0.7" d="M244.047 167.549C244.047 167.549 251.707 155.84 260.508 158.588C260.508 158.588 252.555 170.995 244.078 170.327L244.047 167.549Z" fill="#15CC86"/>
<path opacity="0.7" d="M245.577 156.37C245.577 156.37 254.305 142.139 261.227 145.292C261.227 145.292 254.875 156.251 245.182 158.845L245.577 156.37Z" fill="#15CC86"/>
<path opacity="0.7" d="M248.277 143.246C248.277 143.246 256.03 131.522 263.31 132.939C263.31 132.939 256.98 144.828 247.527 146.641L248.277 143.246Z" fill="#15CC86"/>
<path opacity="0.7" d="M250.649 131.002C250.649 131.002 259.465 119.545 264.266 120.531C264.266 120.531 258.52 132.6 250.552 133.247L250.649 131.002Z" fill="#15CC86"/>
<path opacity="0.7" d="M253.078 119.654C253.078 119.654 260.138 106.532 265.17 106.645C265.17 106.645 261.432 117.944 253.268 120.83L253.078 119.654Z" fill="#15CC86"/>
<path opacity="0.7" d="M255.261 104.534C255.261 104.534 261.72 94.3036 266.002 93.6309C266.002 93.6309 261.689 106.588 255.41 107.497L255.261 104.534Z" fill="#15CC86"/>
<path opacity="0.7" d="M256.38 94.5161L261 74.6465C261 74.6465 264.117 91.4245 255.969 98.1316L256.38 94.5161Z" fill="#15CC86"/>
<path opacity="0.7" d="M256.149 73.4645C256.149 73.4645 254.896 57.7033 253.874 56.5684C253.874 56.5684 261.437 68.6165 257.211 80.3462L256.149 73.4645Z" fill="#15CC86"/>
<path opacity="0.7" d="M256.344 239.535C256.344 239.535 247.615 235.904 244.442 248.779C244.442 248.779 252.252 252.317 257.792 242.467L256.344 239.535Z" fill="#15CC86"/>
<path opacity="0.7" d="M250.686 226.691C250.686 226.691 240.248 223.836 237.567 237.147C237.567 237.147 245.911 241.086 252.087 229.721L250.686 226.691Z" fill="#15CC86"/>
<path opacity="0.7" d="M247.399 215.696C247.399 215.696 239.117 208.681 229.942 218.526C229.942 218.526 237.7 224.601 247.733 217.776L247.399 215.696Z" fill="#15CC86"/>
<path opacity="0.7" d="M244.442 202.969C244.442 202.969 236.012 195.609 227.278 205.3C227.278 205.3 236.453 211.514 244.766 204.967L244.442 202.969Z" fill="#15CC86"/>
<path opacity="0.7" d="M243.616 192.374C243.616 192.374 236.679 180.917 226.785 187.932C226.785 187.932 234.348 197.864 243.508 194.475L243.616 192.374Z" fill="#15CC86"/>
<path opacity="0.7" d="M243.862 179.048C243.862 179.048 236.921 167.374 226.919 174.939C226.919 174.939 235.452 185.287 243.657 181.066L243.862 179.048Z" fill="#15CC86"/>
<path opacity="0.7" d="M245.105 167.441C245.105 167.441 240.941 154.088 231.725 154.319C231.725 154.319 235.981 168.432 244.304 170.101L245.105 167.441Z" fill="#15CC86"/>
<path opacity="0.7" d="M245.808 156.353C245.808 156.353 242.384 140.011 234.811 140.643C234.811 140.643 237.09 153.107 245.346 158.818L245.808 156.353Z" fill="#15CC86"/>
<path opacity="0.7" d="M248.97 142.645C248.97 142.645 244.519 129.293 237.115 128.779C237.115 128.779 240.155 141.906 248.811 146.102L248.97 142.645Z" fill="#15CC86"/>
<path opacity="0.7" d="M251.513 130.963C251.513 130.963 249.125 116.706 244.422 115.314C244.422 115.314 243.816 128.667 250.548 132.991L251.513 130.963Z" fill="#15CC86"/>
<path opacity="0.7" d="M253.412 119.438C253.412 119.438 250.418 104.843 245.566 103.518C245.566 103.518 245.905 115.396 252.893 120.522L253.412 119.438Z" fill="#15CC86"/>
<path opacity="0.7" d="M256.082 105.604C256.082 105.604 254.115 93.6635 250.434 91.373C250.434 91.373 249.35 104.988 254.783 108.279L256.082 105.604Z" fill="#15CC86"/>
<path opacity="0.7" d="M255.908 93.9924L249.546 74.6055C249.546 74.6055 247.929 91.5992 256.637 97.5565L255.908 93.9924Z" fill="#15CC86"/>
<path opacity="0.7" d="M253.315 74.122C253.315 74.122 243.092 62.0533 243.046 60.5332C243.046 60.5332 246.173 74.3993 257.422 79.7506L253.315 74.122Z" fill="#15CC86"/>
<path opacity="0.7" d="M253.613 70.0184C253.613 70.0184 242.938 52.2543 239.236 51.2734C239.236 51.2734 250.984 55.0327 254.126 69.3713L253.613 70.0184Z" fill="#15CC86"/>
<path opacity="0.7" d="M255.384 107.622L254.84 107.545C257.859 85.6004 257.294 71.991 253.248 69.2332L253.561 68.7812C257.848 71.7034 258.48 85.1279 255.384 107.622Z" fill="#444053"/>
<path opacity="0.7" d="M245.67 159.429L244.858 159.28C245.228 157.252 245.644 155.172 246.106 153.148C250.09 135.384 253.294 118.94 254.994 106.414L255.605 105.973C253.879 118.498 250.902 135.523 246.907 153.308C246.455 155.362 246.034 157.411 245.67 159.429Z" fill="#444053"/>
<path opacity="0.7" d="M280.511 271.904C280.388 271.806 268.096 261.787 257.617 242.985C251.466 231.979 247.101 220.067 244.683 207.693C241.664 192.225 242.116 174.312 245.14 157.662L245.864 158.273C239.061 195.702 248.945 225.221 258.531 242.405C268.907 261.037 281.055 270.948 281.178 271.046L280.511 271.904Z" fill="#444053"/>
</g>
<path d="M157.81 224.595C156.603 225.093 155.349 225.468 154.067 225.715C151.827 226.134 149.553 226.349 147.274 226.357C147.341 226.958 147.392 227.517 147.444 228.026C147.567 229.423 147.639 230.383 147.639 230.383L145.231 230.219L125.371 228.863L113.757 227.143C114.318 227.895 114.926 228.61 115.58 229.284C116.256 230 117.039 230.608 117.9 231.087C117.9 231.087 128.38 239.576 130.192 239.653C130.449 239.653 130.531 239.91 130.49 240.315C134.9 240.315 148.614 240.957 144.81 248.594C144.18 249.955 143.07 251.036 141.693 251.629C137.293 253.493 130.654 250.14 127.235 248.08C126.901 248.733 126.583 249.339 126.3 249.857C125.72 250.951 125.314 251.675 125.314 251.675L124.97 251.429L107.349 238.877L103.488 235.601C102.354 235.549 101.231 235.354 100.146 235.021L99.6324 234.856C99.61 234.901 99.5912 234.947 99.5759 234.995C99.4353 235.396 99.3305 235.808 99.2627 236.227C99.2627 236.289 99.2627 236.351 99.2627 236.412C99.1906 236.891 99.1426 237.372 99.1189 237.855C99.1189 238.184 99.0932 238.533 99.0932 238.882C99.0624 245.877 101.866 257.119 101.866 257.119C101.866 257.119 109.131 275.653 106.553 279.931C106.421 280.148 106.246 280.337 106.04 280.486C105.131 281.143 104.587 282.314 104.305 283.706C103.344 288.246 105.029 295.174 105.029 295.174C105.029 295.174 104.875 295.431 104.613 295.831C104.046 296.737 103.407 297.596 102.703 298.399C102.595 298.522 102.482 298.651 102.364 298.769C102.046 299.103 101.703 299.412 101.337 299.693C101.404 299.893 101.476 300.099 101.547 300.32C101.619 300.541 101.712 300.885 101.784 301.193C102.355 303.717 102.131 306.356 101.142 308.747C100.469 310.49 100.034 312.316 99.848 314.176C99.5141 317.58 99.6021 321.013 100.11 324.395C100.033 324.354 99.9661 324.313 99.8891 324.277C94.2105 321.309 88.6123 318.209 83.0946 314.977C81.4772 314.042 79.8702 313.087 78.2734 312.126C76.3087 310.942 74.3525 309.744 72.4048 308.532C69.8376 306.929 67.2705 305.286 64.7033 303.607L63.5018 302.805L63.0397 302.492C62.3877 302.056 61.7459 301.619 61.099 301.177C58.4445 297.746 56.0192 294.143 53.839 290.393C53.4744 289.74 53.1458 289.119 52.8737 288.549V288.518L52.6991 288.143L51.9752 287.886C50.6146 287.409 49.752 287.075 49.752 287.075C50.38 284.784 50.6808 282.415 50.6454 280.039C50.6043 275.417 49.3259 269.254 44.058 264.314C36.2743 256.955 35.2012 249.688 35.0883 246.899C35.0883 246.704 35.0883 246.529 35.0883 246.386C35.0857 246.151 35.096 245.916 35.1191 245.682L35.7147 245.112C34.2052 244.809 32.7881 244.67 32.7881 244.67C32.7881 244.67 37.9533 225.977 46.6509 219.737C50.9637 216.656 54.5527 211.52 57.089 207.114C61.7159 199.15 66.9117 191.531 72.6359 184.317L74.2019 182.339L74.6588 181.759L74.7564 181.641L74.8796 181.477C74.6674 181.155 74.4517 180.836 74.2327 180.521L74.0889 180.311C73.406 179.284 72.8207 178.257 72.9131 177.029C72.9131 177.029 72.9131 177.004 72.9131 176.993C72.9131 176.906 72.9131 176.824 72.9131 176.731C72.9349 176.527 72.9727 176.324 73.0261 176.125C73.0436 176.158 73.0642 176.189 73.0877 176.218C73.8219 174.081 76.6509 173.136 78.7355 171.955C83.6491 169.192 85.7439 163.148 86.7964 157.524C87.6128 153.149 88.2905 148.244 91.6792 145.435C93.8665 143.627 96.8136 143.032 99.0265 141.239C100.307 140.108 101.365 138.747 102.148 137.228C102.662 136.355 103.103 135.451 103.581 134.578C105.768 130.624 108.643 126.947 112.448 124.579C116.252 122.212 121.079 121.293 125.248 122.885C126.855 123.496 128.328 124.425 129.869 125.108C130.82 125.496 131.802 125.802 132.805 126.022C135.943 126.757 139.244 126.947 142.191 128.256C146.981 130.383 150.098 135.087 152.942 139.555C154.416 141.866 156.732 145.245 158.046 148.645C158.046 148.522 158.046 148.409 158.046 148.29C158.68 149.788 159.028 151.39 159.073 153.015C159.099 153.707 159.024 154.399 158.852 155.069C158.38 156.816 157.173 157.92 155.659 158.731L155.417 158.849C155.093 159.016 154.761 159.165 154.421 159.296C154.37 159.579 154.313 159.866 154.252 160.143C154.226 160.262 154.195 160.385 154.164 160.503C154.098 160.79 154.021 161.073 153.939 161.355C152.841 165.026 150.7 168.298 147.777 170.774C145.753 172.506 143.413 173.832 140.887 174.677C140.707 174.739 140.517 174.785 140.338 174.842C140.185 175.271 139.967 175.675 139.691 176.038C139.491 176.294 139.256 176.521 138.992 176.711C138.828 176.822 138.657 176.922 138.479 177.009C138.435 177.036 138.389 177.059 138.34 177.076C136.492 177.907 133.961 177.255 132.179 176.012C132.087 175.951 131.999 175.879 131.912 175.812C131.912 176.105 131.866 176.413 131.815 176.731C131.763 177.05 131.727 177.245 131.671 177.512C131.614 177.779 131.594 177.907 131.558 178.097C131.522 178.288 131.496 178.416 131.465 178.565L131.404 178.827C130.387 183.784 128.446 188.505 125.684 192.744C125.284 193.351 124.85 193.936 124.385 194.495L123.112 196.437V196.699C123.353 201.167 121.885 205.332 119.81 208.916C119.116 210.105 118.353 211.252 117.526 212.352L117.813 212.521C120.688 214.16 126.357 217.072 129.94 216.825C129.94 216.825 143.495 218.576 145.066 217.698C145.282 217.575 145.492 217.744 145.688 218.109C147.88 216.774 152.922 213.944 156.901 213.569C159.684 213.302 161.948 214.232 162.369 217.678C162.79 221.124 160.716 223.347 157.81 224.595Z" fill="url(#paint0_linear)"/>
<path d="M83.6137 295.215C84.4815 296.696 84.9993 298.356 85.1274 300.068C85.2556 301.779 84.9907 303.498 84.3531 305.091C83.1054 308.219 82.9668 312.117 83.0951 314.977C81.4778 314.043 79.8708 313.087 78.274 312.127C76.3092 310.942 74.353 309.744 72.4054 308.532C69.8382 306.93 67.271 305.286 64.7038 303.607L63.5024 302.806L63.0403 302.493C62.9999 302.418 62.9499 302.349 62.8914 302.287C62.2034 301.558 58.1935 295.806 55.8111 291.441C55.3798 290.64 55.005 289.9 54.7072 289.222V289.186C54.1938 288.046 53.9525 287.132 54.1065 286.716C54.2932 286.061 54.6099 285.451 55.0378 284.922C55.4656 284.392 55.9958 283.955 56.5967 283.635C59.5541 282.094 64.2982 283.517 68.991 285.781C73.0287 287.823 76.8984 290.18 80.5639 292.833L80.9798 293.136L81.0209 293.166C82.5612 294.26 83.4545 294.984 83.4545 294.984C83.4545 294.984 83.5213 295.067 83.6137 295.215Z" fill="#FBBEBE"/>
<path opacity="0.05" d="M82.8332 294.533C83.7026 296.015 84.2212 297.676 84.3494 299.39C84.4776 301.103 84.2118 302.824 83.5725 304.419C82.3249 307.546 82.1862 311.444 82.3146 314.31C80.699 313.368 79.0919 312.417 77.4934 311.454C75.5252 310.27 73.569 309.072 71.6248 307.86C69.0577 306.252 66.4905 304.609 63.949 302.929L62.7475 302.128L62.2854 301.815C62.2438 301.741 62.1938 301.672 62.1365 301.61C61.4485 300.885 57.4386 295.133 55.0562 290.763C54.6249 289.962 54.2501 289.222 53.9523 288.545V288.514C53.4389 287.368 53.1976 286.459 53.3516 286.038C53.5391 285.384 53.8561 284.774 54.2839 284.245C54.7117 283.715 55.2415 283.278 55.8418 282.957C58.7992 281.416 63.5433 282.839 68.2361 285.104C72.2738 287.145 76.1435 289.503 79.809 292.155L80.2249 292.458L80.266 292.489C81.8063 293.583 82.6997 294.307 82.6997 294.307C82.6997 294.307 82.7407 294.384 82.8332 294.533Z" fill="black"/>
<path d="M101.737 306.985C101.588 307.865 101.345 308.725 101.013 309.553C100.445 311.043 100.054 312.594 99.8478 314.175C99.4435 317.531 99.4573 320.924 99.8889 324.277C94.2103 321.309 88.6121 318.208 83.0944 314.976C81.4771 314.042 79.87 313.086 78.2732 312.126C77.9138 309.394 77.4004 306.99 76.8202 306.4C76.0603 305.599 71.7218 299.395 69.0262 294.501C68.6771 293.884 68.3742 293.289 68.0918 292.724V292.698C67.984 292.472 67.8813 292.256 67.7837 292.041C67.0906 290.551 66.7209 289.391 66.9057 288.831C67.266 287.614 68.0075 286.544 69.0211 285.78C73.5753 282.453 83.043 286.956 90.3133 291.43L90.493 291.537C91.869 292.395 93.1732 293.242 94.3438 294.033L95.0267 294.496C98.0354 296.55 100.033 298.147 100.033 298.147C100.529 298.912 100.927 299.737 101.219 300.602C101.39 301.089 101.532 301.587 101.645 302.091C102 303.7 102.032 305.364 101.737 306.985Z" fill="#FBBEBE"/>
<path opacity="0.1" d="M55.836 291.439C59.5687 292.744 65.0779 294.475 68.0763 294.521C68.3868 294.53 68.6976 294.515 69.0057 294.475C71.1159 294.187 77.6211 294.649 83.5924 295.188C85.985 295.399 88.2903 295.62 90.1952 295.815L94.9804 296.329V294.48C93.6506 293.566 92.1052 292.549 90.4519 291.522C83.156 287.013 73.5701 282.406 68.98 285.76C62.5158 282.637 55.9541 281.137 54.0903 286.694C53.8747 287.418 54.6602 289.257 55.836 291.439Z" fill="black"/>
<path d="M37.9016 248.4C38.0043 251.168 39.0414 258.353 46.4709 265.61C55.9489 274.854 51.9082 288.145 51.9082 288.145C51.9082 288.145 63.2038 292.582 68.0763 292.7C68.3868 292.709 68.6976 292.694 69.0056 292.654C71.927 292.248 83.541 293.321 90.2156 293.994L95.0009 294.508V255.21L42.6612 242.494L37.9222 247.219C37.8901 247.612 37.8833 248.006 37.9016 248.4Z" fill="#5C5C8E"/>
<g opacity="0.1">
<path opacity="0.1" d="M94.1437 294.017L95.0011 294.105V294.526L90.2159 294.012C85.4255 293.529 78.1039 292.841 73.2725 292.641C76.6149 292.343 87.6795 293.365 94.1437 294.017Z" fill="black"/>
<path opacity="0.1" d="M37.9226 247.242L42.6616 242.518L45.8244 243.283L41.8761 247.242C41.8509 247.636 41.8509 248.03 41.8761 248.424C41.9788 251.192 43.0159 258.371 50.4453 265.633C59.9234 274.877 55.8826 288.163 55.8826 288.163C55.8826 288.163 65.2272 291.835 70.5823 292.59C70.0676 292.588 69.5532 292.617 69.042 292.677C68.734 292.717 68.4232 292.733 68.1127 292.723C63.2402 292.6 51.9446 288.163 51.9446 288.163C51.9446 288.163 55.9853 274.877 46.5073 265.633C39.0419 258.371 38.0048 251.192 37.9021 248.439C37.8831 248.04 37.8899 247.64 37.9226 247.242Z" fill="black"/>
</g>
<path d="M142.51 220.646C142.51 220.646 158.339 209.667 159.494 219.547C160.649 229.428 142.51 228.042 142.51 228.042V220.646Z" fill="#FBBEBE"/>
<path d="M115.215 213.363C115.215 213.363 123.774 219.012 128.513 218.679C128.513 218.679 141.452 220.414 142.956 219.547C144.46 218.679 145.385 232.088 145.385 232.088L124.123 230.583L110.486 228.503C110.486 228.503 103.668 224.343 103.668 220.759C103.668 217.174 115.215 213.363 115.215 213.363Z" fill="#F7CDDD"/>
<path d="M115.215 213.363C115.215 213.363 123.774 219.012 128.513 218.679C128.513 218.679 141.452 220.414 142.956 219.547C144.46 218.679 145.385 232.088 145.385 232.088L124.123 230.583L110.486 228.503C110.486 228.503 103.668 224.343 103.668 220.759C103.668 217.174 115.215 213.363 115.215 213.363Z" fill="#15CC86"/>
<path d="M127.763 241.938C127.763 241.938 147.012 241.142 142.699 250.109C138.386 259.075 123.805 248.188 123.805 248.188L127.763 241.938Z" fill="#FBBEBE"/>
<path d="M108.407 222.84C108.407 222.84 124.005 211.167 121.813 196.952C119.621 182.736 108.407 207.818 108.407 207.818V222.84Z" fill="#5C5C8E"/>
<path d="M112.73 158.392C112.733 163.506 114.722 168.419 118.276 172.094C120.192 174.074 122.501 175.632 125.053 176.67C125.876 177.014 126.724 177.296 127.589 177.512C128.509 177.75 129.444 177.921 130.388 178.026C131.065 178.093 131.748 178.129 132.441 178.129C134.648 178.124 136.837 177.744 138.916 177.004C142.335 175.816 145.362 173.709 147.663 170.914C149.965 168.12 151.453 164.745 151.965 161.161C152.476 157.576 151.991 153.92 150.563 150.593C149.134 147.266 146.818 144.397 143.867 142.3C140.916 140.202 137.445 138.958 133.834 138.703C130.223 138.448 126.611 139.193 123.396 140.855C120.18 142.517 117.483 145.033 115.602 148.126C113.721 151.22 112.727 154.772 112.73 158.392Z" fill="#FBBEBE"/>
<path opacity="0.1" d="M37.9016 248.4C39.6678 248.724 41.8499 249.319 41.8499 250.234C41.8499 251.774 66.4949 260.099 66.4949 260.099C66.4949 260.099 65.5707 262.251 68.0352 265.954C70.4997 269.656 90.5391 290.918 90.5391 290.918L90.4724 291.544L90.2156 293.994L88.9937 305.708C88.9937 305.708 96.6952 302.935 99.1597 303.243C99.9555 303.341 100.823 302.832 101.619 302.093C101.326 300.693 100.782 299.359 100.012 298.154C100.012 298.154 98.0147 296.582 95.0009 294.502V255.21L42.6612 242.494L37.9222 247.219C37.8901 247.612 37.8833 248.006 37.9016 248.4Z" fill="black"/>
<path d="M35.6836 246.226C35.6836 246.226 41.8448 246.838 41.8448 248.383C41.8448 249.929 66.4898 258.249 66.4898 258.249C66.4898 258.249 65.5656 260.401 68.0301 264.103C70.4946 267.806 90.534 289.068 90.534 289.068L88.9937 303.858C88.9937 303.858 96.6952 301.085 99.1597 301.393C100.264 301.532 101.48 300.51 102.487 299.339C103.322 298.352 104.066 297.291 104.71 296.17C104.71 296.17 101.932 284.451 105.634 281.677C109.336 278.904 101.629 258.567 101.629 258.567C101.629 258.567 98.1431 244.105 99.17 237.902C99.2353 237.488 99.3349 237.081 99.4678 236.684C99.4678 236.638 99.4934 236.592 99.514 236.546C101.711 230.619 125.35 180.901 125.35 180.901C125.335 179.491 125.235 178.083 125.052 176.685C125.006 176.295 124.944 175.889 124.867 175.483C124.748 174.744 124.589 174.012 124.39 173.291C124.256 172.818 124.113 172.366 123.943 171.935C123.214 170.055 122.095 168.612 120.421 168.576C120.421 168.576 118.573 166.522 114.26 165.977C111.077 165.561 106.558 165.977 100.397 168.576C85.9182 174.739 82.5295 175.047 82.5295 175.047L75.249 184.584L73.7498 186.546C68.2702 193.695 63.3097 201.227 58.9063 209.086C56.4829 213.441 53.0531 218.52 48.9405 221.57C40.6177 227.738 35.6836 246.226 35.6836 246.226Z" fill="#15CC86"/>
<path opacity="0.1" d="M89.6874 210.59C89.6874 210.59 69.1192 215.674 61.1455 228.503L89.6874 210.59Z" fill="black"/>
<path opacity="0.1" d="M83.3305 233.125C83.3305 233.125 79.4438 259.245 80.522 261.212C81.6002 263.179 83.3305 233.125 83.3305 233.125Z" fill="black"/>
<path opacity="0.1" d="M84.7228 246.535C86.222 248.496 92.296 263.641 92.296 263.641L90.54 289.068L88.9997 303.858C88.9997 303.858 96.7012 301.085 99.1709 301.393C100.27 301.532 101.492 300.515 102.498 299.339C100.896 290.675 97.4765 272.551 96.8501 272.202C96.0338 271.74 91.8749 257.175 91.6542 253.129C91.4334 249.082 85.6418 239.961 85.6418 239.961C85.6418 239.961 83.2184 244.573 84.7228 246.535Z" fill="black"/>
<path opacity="0.1" d="M90.539 221.571C90.9138 222.727 91.5094 229.429 91.5094 229.429C91.9304 235.34 96.3973 237.271 99.1698 237.887C99.2352 237.474 99.3348 237.067 99.4676 236.67C101.316 231.437 125.35 180.887 125.35 180.887C125.325 178.321 125.003 175.767 124.39 173.276C119.158 171.735 110.871 174.108 110.871 174.108C108.478 173.795 100.669 189.33 100.669 189.33C100.669 189.33 95.4628 201.229 94.8929 202.847C94.323 204.465 94.8929 207.13 94.6619 208.054C94.4308 208.979 91.9971 209.78 91.6531 211.059C91.3091 212.337 91.535 214.864 91.304 215.326C91.0729 215.789 90.1385 220.416 90.539 221.571Z" fill="black"/>
<path d="M92.3879 220.646C92.7678 221.802 93.3583 228.504 93.3583 228.504C93.7074 233.424 96.8702 235.586 99.5195 236.531C100.709 236.956 101.955 237.205 103.216 237.27L106.934 240.495L124.087 253.155C124.087 253.155 130.485 241.343 128.749 241.266C127.014 241.189 117.007 232.792 117.007 232.792C113.927 231.159 110.877 225.694 109.455 222.89C109.538 222.552 109.6 222.209 109.639 221.863C110.261 216.63 123.199 196.596 123.199 196.596C123.199 196.596 128.2 190.706 130.151 179.792C130.208 179.546 130.244 179.279 130.29 179.027C130.345 178.687 130.379 178.344 130.392 178C130.623 173.804 127.574 172.279 123.949 171.914C122.065 171.768 120.172 171.827 118.301 172.089C116.43 172.323 114.577 172.687 112.756 173.178C111.216 172.978 107.385 179.423 104.88 183.988C103.529 186.464 102.559 188.4 102.559 188.4C102.559 188.4 97.3271 200.304 96.7418 201.922C96.1565 203.54 96.7418 206.2 96.5108 207.129C96.2797 208.059 93.846 208.855 93.5072 210.134C93.1683 211.412 93.3839 213.939 93.1529 214.401C92.9219 214.864 91.9977 219.491 92.3879 220.646Z" fill="#15CC86"/>
<path opacity="0.1" d="M72.4814 194.002C75.7366 197.35 81.0456 197.361 85.2865 195.661C89.5275 193.961 93.1267 190.859 97.0648 188.471C99.632 186.93 102.322 185.631 104.838 184.023C105.208 183.782 105.567 183.541 105.916 183.294C108.822 181.24 111.333 178.605 114.337 176.721C116.35 175.389 118.692 174.639 121.104 174.553C122.217 174.542 123.319 174.774 124.333 175.231C124.51 175.308 124.682 175.398 124.847 175.498C125.834 176.07 126.748 176.76 127.568 177.553C128.415 178.318 129.232 179.134 130.135 179.843C130.192 179.597 130.228 179.33 130.274 179.078C130.329 178.738 130.363 178.395 130.377 178.051C131.054 178.118 131.737 178.153 132.43 178.153C134.642 178.142 136.835 177.753 138.915 177.003C138.915 176.921 138.946 176.834 138.961 176.751C139.701 172.869 141.015 168.755 144.157 166.573C145.97 165.304 148.865 164.791 151.371 163.825C152.24 160.797 152.371 157.605 151.754 154.516C151.136 151.427 149.788 148.531 147.821 146.07C145.855 143.609 143.328 141.655 140.451 140.372C137.575 139.089 134.433 138.514 131.289 138.695C128.145 138.875 125.089 139.807 122.379 141.412C119.669 143.016 117.382 145.247 115.711 147.916C114.039 150.586 113.031 153.618 112.772 156.758C112.512 159.897 113.008 163.053 114.219 165.962C111.035 165.546 106.517 165.962 100.356 168.56C85.877 174.723 82.4883 175.031 82.4883 175.031L75.2489 184.583C76.0344 185.785 76.9227 186.971 77.0048 188.373C77.1691 190.972 74.6635 192.764 72.4814 194.002Z" fill="black"/>
<path d="M144.184 164.73C141.057 166.918 139.727 171.026 138.988 174.904C138.757 176.116 138.536 177.395 137.796 178.355C136.138 180.507 132.801 179.896 130.634 178.355C128.467 176.814 126.763 174.472 124.344 173.379C121.13 171.93 117.356 172.988 114.353 174.873C111.349 176.758 108.833 179.392 105.927 181.441C103.119 183.424 99.9869 184.836 97.0604 186.618C93.1274 189.016 89.5334 192.113 85.2873 193.808C81.0412 195.503 75.7374 195.503 72.4873 192.154C74.6694 190.942 77.175 189.15 77.0055 186.557C76.8361 183.963 73.812 182.017 74.0174 179.367C74.2227 176.717 77.3496 175.659 79.5933 174.354C84.2912 171.622 86.2679 165.624 87.2948 160.077C88.0752 155.748 88.717 150.905 91.9568 148.127C94.0414 146.334 96.8704 145.749 98.9703 143.977C100.962 142.293 102.051 139.74 103.324 137.393C105.414 133.475 108.156 129.839 111.786 127.497C115.416 125.155 120.032 124.251 124.016 125.828C125.556 126.429 126.932 127.369 128.442 128.021C132.19 129.644 136.487 129.428 140.204 131.133C144.779 133.239 147.752 137.892 150.473 142.308C152.799 146.083 157.348 152.764 156.075 157.643C154.776 162.619 147.577 162.352 144.184 164.73Z" fill="#7C5C5C"/>
<g opacity="0.1">
<path opacity="0.1" d="M74.0174 179.042C74.0341 178.839 74.0702 178.638 74.1252 178.441C74.9519 179.746 75.9839 181.009 76.0814 182.55C76.105 182.903 76.0756 183.258 75.9941 183.603C75.0751 182.124 73.889 180.742 74.0174 179.042Z" fill="black"/>
<path opacity="0.1" d="M84.3631 189.796C88.6092 188.091 92.2033 184.994 96.1362 182.606C99.0628 180.824 102.195 179.412 105.003 177.429C107.909 175.375 110.425 172.74 113.429 170.861C116.432 168.981 120.206 167.918 123.42 169.366C125.838 170.46 127.528 172.776 129.71 174.343C131.892 175.909 135.214 176.52 136.872 174.368C137.617 173.408 137.832 172.134 138.063 170.922C138.803 167.04 140.117 162.931 143.259 160.744C146.658 158.371 153.852 158.638 155.156 153.631C155.373 152.742 155.43 151.823 155.325 150.914C156.162 153.138 156.588 155.377 156.085 157.328C154.776 162.336 147.583 162.069 144.184 164.441C141.062 166.629 139.727 170.737 138.988 174.62C138.757 175.832 138.541 177.111 137.802 178.066C136.138 180.218 132.801 179.607 130.613 178.04C128.426 176.474 126.742 174.158 124.324 173.064C121.11 171.616 117.336 172.679 114.332 174.558C111.329 176.438 108.813 179.078 105.907 181.127C103.098 183.114 99.9664 184.521 97.0399 186.304C93.1069 188.707 89.5129 191.799 85.2668 193.493C81.0206 195.188 75.7168 195.183 72.4668 191.835C73.3066 191.38 74.1039 190.85 74.8491 190.253C77.8168 191.336 81.3595 190.997 84.3631 189.796Z" fill="black"/>
</g>
<path d="M418.738 139.381L397.687 118.207C396.655 117.151 395.424 116.311 394.066 115.734C392.707 115.156 391.248 114.854 389.772 114.844C388.296 114.834 386.833 115.116 385.466 115.675C384.1 116.234 382.858 117.058 381.812 118.099L249.622 249.201L193.73 192.858C191.654 190.752 188.828 189.558 185.872 189.536C182.916 189.515 180.073 190.669 177.967 192.745L156.69 213.801C154.588 215.901 153.397 218.746 153.377 221.718C153.357 224.691 154.509 227.551 156.583 229.68L241.464 315.25C243.563 317.354 246.407 318.545 249.378 318.566C252.35 318.587 255.21 317.436 257.339 315.363L418.62 155.255C419.675 154.224 420.516 152.993 421.093 151.635C421.671 150.277 421.974 148.818 421.985 147.343C421.996 145.867 421.714 144.404 421.157 143.037C420.6 141.671 419.778 140.428 418.738 139.381Z" fill="#3ACC6C"/>
<g opacity="0.5">
<path opacity="0.5" d="M387.018 309.169C387.018 309.169 371.317 308.224 373.156 319.229C373.061 319.787 373.145 320.361 373.396 320.868C373.647 321.375 374.052 321.79 374.552 322.054C374.552 322.054 374.552 321.237 376.159 321.515C376.724 321.611 377.298 321.639 377.869 321.597C378.639 321.547 379.371 321.245 379.953 320.739C379.953 320.739 384.364 318.916 386.084 311.695C386.084 311.695 387.352 310.124 387.301 309.718L384.651 310.853C384.651 310.853 385.56 312.764 384.846 314.351C384.846 314.351 384.759 310.92 384.251 311.002C384.148 311.002 382.875 311.665 382.875 311.665C382.875 311.665 384.415 314.992 383.255 317.416C383.255 317.416 383.702 313.308 382.387 311.906L380.523 312.995C380.523 312.995 382.341 316.436 381.109 319.24C381.109 319.24 381.427 314.936 380.128 313.262L378.439 314.577C378.439 314.577 380.149 317.966 379.106 320.298C379.106 320.298 378.973 315.285 378.079 314.905C378.079 314.905 376.601 316.21 376.375 316.749C376.375 316.749 377.545 319.209 376.821 320.508C376.821 320.508 376.375 317.165 376.01 317.155C376.01 317.155 374.537 319.363 374.383 320.878C374.454 319.477 374.891 318.118 375.651 316.939C374.802 317.102 374.018 317.509 373.397 318.11C373.397 318.11 373.623 316.569 376.015 316.405C376.015 316.405 377.232 314.731 377.556 314.628C377.556 314.628 375.178 314.428 373.736 315.07C373.736 315.07 375.004 313.59 377.987 314.263L379.656 312.902C379.656 312.902 376.529 312.471 375.199 312.943C375.199 312.943 376.739 311.639 380.107 312.589L381.925 311.505C381.925 311.505 379.255 310.93 377.663 311.136C377.663 311.136 379.342 310.232 382.459 311.213L383.758 310.627C383.758 310.627 381.802 310.242 381.227 310.186C380.652 310.129 380.626 309.965 380.626 309.965C381.864 309.76 383.135 309.902 384.297 310.376C384.297 310.376 387.064 309.343 387.018 309.169Z" fill="#15CC86"/>
</g>
<g opacity="0.5">
<path opacity="0.5" d="M358.846 232.308C358.846 232.308 350.873 245.871 361.521 249.22C361.976 249.558 362.525 249.743 363.091 249.751C363.657 249.758 364.211 249.587 364.674 249.261C364.674 249.261 363.96 248.866 364.92 247.582C365.261 247.122 365.547 246.624 365.773 246.097C366.072 245.386 366.135 244.598 365.952 243.848C365.952 243.848 366.327 239.087 360.679 234.28C360.679 234.28 359.853 232.432 359.473 232.293L359.278 235.169C359.278 235.169 361.388 235.231 362.481 236.586C362.481 236.586 359.401 235.107 359.226 235.595C359.195 235.698 359.19 237.136 359.19 237.136C359.19 237.136 362.867 237.259 364.489 239.406C364.489 239.406 361.039 237.146 359.185 237.68L359.308 239.837C359.308 239.837 363.2 239.776 365.141 242.148C365.141 242.148 361.449 239.909 359.37 240.304L359.776 242.41C359.776 242.41 363.575 242.41 365.172 244.408C365.172 244.408 360.648 242.256 359.904 242.867C359.904 242.867 360.417 244.778 360.767 245.224C360.767 245.224 363.493 245.296 364.32 246.534C364.32 246.534 361.141 245.414 360.962 245.733C360.962 245.733 362.266 248.049 363.529 248.876C362.313 248.175 361.303 247.167 360.597 245.954C360.344 246.791 360.344 247.684 360.597 248.521C360.597 248.521 359.308 247.607 360.274 245.44C360.274 245.44 359.329 243.596 359.385 243.257C359.385 243.257 358.133 245.286 358.045 246.852C358.045 246.852 357.306 245.05 359.257 242.693L358.805 240.587C358.805 240.587 357.003 243.186 356.818 244.582C356.818 244.582 356.351 242.626 358.733 240.048L358.59 237.937C358.59 237.937 356.864 240.053 356.33 241.563C356.33 241.563 356.284 239.657 358.569 237.326L358.641 235.903C358.641 235.903 357.409 237.475 357.101 237.958C356.793 238.44 356.633 238.394 356.633 238.394C357.01 237.199 357.713 236.132 358.661 235.313C358.661 235.313 359.021 232.344 358.846 232.308Z" fill="#15CC86"/>
</g>
<g opacity="0.5">
<path opacity="0.5" d="M308.976 124.096C308.976 124.096 301.007 137.664 311.651 141.008C312.105 141.347 312.654 141.534 313.221 141.541C313.787 141.548 314.341 141.376 314.803 141.049C314.803 141.049 314.09 140.653 315.055 139.369C315.394 138.91 315.679 138.411 315.902 137.885C316.205 137.175 316.268 136.385 316.082 135.636C316.082 135.636 316.462 130.875 310.809 126.068C310.809 126.068 309.982 124.225 309.602 124.086L309.407 126.957C309.407 126.957 311.523 127.018 312.611 128.374C312.611 128.374 309.53 126.895 309.361 127.383C309.325 127.486 309.325 128.924 309.325 128.924C309.325 128.924 312.996 129.047 314.619 131.194C314.619 131.194 311.168 128.934 309.315 129.468L309.443 131.625C309.443 131.625 313.33 131.563 315.271 133.936C315.271 133.936 311.579 131.702 309.5 132.092L309.905 134.198C309.905 134.198 313.705 134.198 315.307 136.201C315.307 136.201 310.778 134.044 310.034 134.66C310.034 134.66 310.547 136.565 310.901 137.012C310.901 137.012 313.623 137.084 314.449 138.322C314.449 138.322 311.271 137.202 311.096 137.521C311.096 137.521 312.395 139.842 313.664 140.664C312.447 139.964 311.434 138.959 310.727 137.747C310.481 138.574 310.481 139.456 310.727 140.284C310.727 140.284 309.438 139.369 310.403 137.177C310.403 137.177 309.459 135.333 309.515 134.994C309.515 134.994 308.262 137.023 308.175 138.589C308.175 138.589 307.436 136.786 309.392 134.429L308.935 132.323C308.935 132.323 307.133 134.922 306.953 136.319C306.953 136.319 306.481 134.362 308.863 131.784L308.719 129.673C308.719 129.673 306.994 131.789 306.46 133.299C306.46 133.299 306.414 131.394 308.699 129.067L308.771 127.64C308.771 127.64 307.538 129.211 307.23 129.694C306.922 130.177 306.763 130.131 306.763 130.131C307.149 128.933 307.86 127.866 308.817 127.049C308.817 127.049 309.151 124.158 308.976 124.096Z" fill="#15CC86"/>
</g>
<g opacity="0.5">
<path opacity="0.5" d="M137.303 21.3379C137.303 21.3379 107.627 42.9074 127.271 59.9936C127.271 59.9936 129.494 64.0404 133.976 63.0184C133.976 63.0184 132.816 61.5086 136.076 59.6598C137.232 58.9956 138.304 58.1956 139.27 57.2768C140.576 56.0462 141.446 54.4239 141.75 52.6548C141.75 52.6548 146.997 42.8253 139.393 27.2849C139.393 27.2849 139.347 22.5653 138.654 21.9131L135.573 27.8806C135.573 27.8806 140.035 29.9811 141.108 33.8996C141.108 33.8996 135.866 27.8447 135.07 28.764C134.911 28.9437 133.571 31.9994 133.571 31.9994C133.571 31.9994 141.318 35.6868 142.787 41.7879C142.787 41.7879 137.509 33.7352 133.031 33.1498L131.291 37.8797C131.291 37.8797 139.665 41.377 141.606 48.2587C141.606 48.2587 135.794 40.0418 130.978 38.9376L129.889 43.8216C129.889 43.8216 137.991 47.3908 139.567 53.1273C139.567 53.1273 131.866 44.3043 129.715 44.9565C129.715 44.9565 128.986 49.4964 129.371 50.7957C129.371 50.7957 135.131 53.4919 135.748 56.9071C135.748 56.9071 129.992 51.5558 129.314 52.0693C129.314 52.0693 129.941 58.2321 131.912 61.1953C131.912 61.1953 128.683 57.0406 128.354 52.2183C128.354 52.2183 126.151 54.7861 126.028 57.6671C126.028 57.6671 124.118 54.5088 128.221 50.7187C128.221 50.7187 127.928 45.8912 128.364 45.2236C128.364 45.2236 123.784 48.3922 122.136 51.679C122.136 51.679 122.234 47.1392 128.606 43.9191L129.591 38.9941C129.591 38.9941 123.322 42.8612 121.633 45.6704C121.633 45.6704 122.45 41.0483 129.941 37.7513L131.604 33.1036C131.604 33.1036 125.956 36.0257 123.389 38.7527C123.389 38.7527 125.068 34.6442 132.118 31.7837L133.591 28.8051C133.591 28.8051 129.484 31.0134 128.38 31.7529C127.276 32.4924 126.968 32.2665 126.968 32.2665C128.891 30.0576 131.39 28.4271 134.187 27.5571C134.187 27.5571 137.647 21.5793 137.303 21.3379Z" fill="#15CC86"/>
</g>
<g opacity="0.5">
<path opacity="0.5" d="M108.473 92.5122C108.473 92.5122 70.0838 76.3659 65.0521 105.48C65.0521 105.48 62.4284 110.019 66.079 113.768C66.079 113.768 66.8645 111.755 70.5767 113.835C71.9007 114.568 73.3071 115.14 74.7663 115.54C76.7369 116.084 78.8309 115.972 80.7324 115.222C80.7324 115.222 93.3527 114.539 103.976 98.0176C103.976 98.0176 108.525 95.2033 108.756 94.1453L101.142 94.6589C101.142 94.6589 101.727 100.231 98.5744 103.574C98.5744 103.574 101.373 94.9259 100.027 94.6846C99.7553 94.6332 96.0072 95.1262 96.0072 95.1262C96.0072 95.1262 96.9776 104.817 91.8997 109.829C91.8997 109.829 96.613 99.9742 94.5593 95.3008L88.9474 96.3845C88.9474 96.3845 90.4877 106.579 84.9324 112.505C84.9324 112.505 89.4968 102.028 87.7357 96.708L82.3549 98.5157C82.3549 98.5157 83.6539 108.484 79.0073 113.409C79.0073 113.409 83.0635 100.77 81.1535 99.0293C81.1535 99.0293 76.3169 100.991 75.2798 102.111C75.2798 102.111 76.0499 109.3 73.0925 111.894C73.0925 111.894 74.9101 103.163 74.0116 102.804C74.0116 102.804 68.3894 107.036 66.6746 110.687C66.6746 110.687 68.8156 105.11 73.303 101.957C73.303 101.957 69.5344 101.315 66.6284 102.896C66.6284 102.896 68.5743 99.1936 74.6636 100.95C74.6636 100.95 79.1767 97.8224 80.0804 97.8686C80.0804 97.8686 74.3196 95.3008 70.1557 95.6192C70.1557 95.6192 74.6174 93.0514 81.4872 97.3397L86.8423 95.3984C86.8423 95.3984 79.4027 91.5827 75.67 91.5981C75.67 91.5981 80.6298 89.6774 88.2389 95.0184L93.7327 93.8834C93.7327 93.8834 87.5714 90.1088 83.4126 89.2357C83.4126 89.2357 88.3981 88.4448 95.314 93.6266L99.0724 93.3134C99.0724 93.3134 94.5234 90.6326 93.1473 89.9804C91.7713 89.3281 91.8329 88.907 91.8329 88.907C95.108 89.4758 98.1603 90.9445 100.649 93.149C100.649 93.149 108.437 92.9898 108.473 92.5122Z" fill="#15CC86"/>
</g>
<g opacity="0.5">
<path opacity="0.5" d="M85.4872 51.7455C85.4872 51.7455 71.876 20.2796 52.3089 34.7107C52.3089 34.7107 48.1655 35.9124 48.2014 40.2057C48.2014 40.2057 49.8136 39.456 50.8302 42.8095C51.2092 43.9974 51.7262 45.1367 52.3705 46.2041C53.2306 47.6514 54.5394 48.7783 56.0981 49.4139C56.0981 49.4139 63.9844 56.2032 79.7161 52.4388C79.7161 52.4388 84.0239 53.358 84.7632 52.865L79.9523 48.8233C79.9523 48.8233 77.1284 52.4696 73.3392 52.6442C73.3392 52.6442 79.9266 49.1006 79.2643 48.1916C79.1308 48.0067 76.6252 46.1682 76.6252 46.1682C76.6252 46.1682 71.6808 52.4747 65.8431 52.5723C65.8431 52.5723 74.2583 49.3985 75.6959 45.4595L71.7425 42.8917C71.7425 42.8917 66.7775 49.8401 60.108 50.2048C60.108 50.2048 68.7851 46.5842 70.7721 42.4141L66.5465 40.4471C66.5465 40.4471 61.638 47.1234 56.0878 47.3751C56.0878 47.3751 65.6942 42.1778 65.5453 40.0568C65.5453 40.0568 61.5559 38.4648 60.2928 38.5572C60.2928 38.5572 56.6628 43.2563 53.4231 43.1228C53.4231 43.1228 59.4765 38.9681 59.1427 38.244C59.1427 38.244 53.3922 37.5558 50.2962 38.7575C50.2962 38.7575 54.7426 36.6622 59.2043 37.3504C59.2043 37.3504 57.3303 34.8185 54.7118 34.1149C54.7118 34.1149 57.9824 33.021 60.5958 37.5301C60.5958 37.5301 65.0575 38.2491 65.5761 38.7832C65.5761 38.7832 63.625 33.9609 60.9552 31.7885C60.9552 31.7885 65.0627 32.8156 66.7108 39.2711L70.998 41.1764C70.998 41.1764 68.7543 34.6644 66.5259 32.5537C66.5259 32.5537 70.5667 34.2382 72.0454 41.7464L75.9424 44.2064C75.9424 44.2064 74.4329 38.4545 72.4664 35.5632C72.4664 35.5632 75.8756 37.9358 77.036 44.9562L79.4491 46.9077C79.4491 46.9077 78.2682 42.7273 77.8215 41.5564C77.3749 40.3855 77.6573 40.1698 77.6573 40.1698C79.2767 42.3732 80.2526 44.9832 80.476 47.7089C80.476 47.7089 85.1996 52.0176 85.4872 51.7455Z" fill="#15CC86"/>
</g>
<g opacity="0.5">
<path opacity="0.5" d="M350.77 68.1186C350.77 68.1186 347.561 52.7117 337.42 57.3903C336.856 57.4443 336.324 57.6756 335.9 58.0512C335.475 58.4267 335.181 58.9271 335.059 59.4805C335.059 59.4805 335.854 59.2905 336.003 60.8928C336.06 61.4614 336.182 62.0215 336.368 62.5618C336.624 63.2905 337.109 63.9172 337.749 64.349C337.749 64.349 340.665 68.1289 348.074 67.8926C348.074 67.8926 349.928 68.704 350.308 68.55L348.516 66.2903C348.516 66.2903 346.909 67.6666 345.194 67.3945C345.194 67.3945 348.48 66.4136 348.275 65.9411C348.228 65.8435 347.273 64.7856 347.273 64.7856C347.273 64.7856 344.47 67.1634 341.826 66.6652C341.826 66.6652 345.897 66.0181 346.914 64.3799L345.374 62.8648C345.374 62.8648 342.529 65.5251 339.5 65.068C339.5 65.068 343.736 64.2463 345.014 62.5567L343.299 61.2728C343.299 61.2728 340.475 63.8098 337.954 63.4144C337.954 63.4144 342.755 61.9661 342.883 61.0006C342.883 61.0006 341.24 59.917 340.66 59.84C340.66 59.84 338.606 61.6169 337.153 61.2574C337.153 61.2574 340.234 59.953 340.178 59.5935C340.178 59.5935 337.657 58.7512 336.152 59.0029C337.523 58.7057 338.948 58.7712 340.285 59.1929C339.908 58.4144 339.31 57.7642 338.565 57.3235C338.565 57.3235 340.136 57.1335 340.896 59.3778C340.896 59.3778 342.832 60.1122 343.017 60.4049C343.017 60.4049 342.586 58.0579 341.59 56.81C341.59 56.81 343.345 57.6471 343.484 60.7079L345.235 61.961C345.235 61.961 344.829 58.8283 344.023 57.6676C344.023 57.6676 345.682 58.8026 345.651 62.2897L347.191 63.7584C347.191 63.7584 347.047 61.0314 346.431 59.5524C346.431 59.5524 347.741 60.9339 347.612 64.1744L348.516 65.2786C348.516 65.2786 348.377 63.2911 348.285 62.7108C348.192 62.1305 348.336 62.0688 348.336 62.0688C348.861 63.2114 349.058 64.4773 348.906 65.7254C348.906 65.7254 350.616 68.211 350.77 68.1186Z" fill="#15CC86"/>
</g>
<g opacity="0.5">
<path opacity="0.5" d="M295.513 353.72C295.513 353.72 292.309 338.313 282.164 342.992C281.599 343.046 281.066 343.277 280.641 343.652C280.216 344.028 279.92 344.528 279.797 345.082C279.797 345.082 280.593 344.892 280.742 346.494C280.797 347.064 280.921 347.624 281.111 348.163C281.366 348.891 281.849 349.518 282.487 349.951C282.487 349.951 285.404 353.73 292.818 353.494C292.818 353.494 294.671 354.306 295.046 354.152L293.259 351.892C293.259 351.892 291.652 353.268 289.932 352.996C289.932 352.996 293.218 352.015 293.013 351.543C292.972 351.445 292.012 350.387 292.012 350.387C292.012 350.387 289.208 352.765 286.564 352.267C286.564 352.267 290.641 351.62 291.652 349.981L290.112 348.441C290.112 348.441 287.298 351.111 284.259 350.639C284.259 350.639 288.494 349.817 289.773 348.127L288.058 346.844C288.058 346.844 285.239 349.381 282.718 348.985C282.718 348.985 287.519 347.542 287.647 346.571C287.647 346.571 285.999 345.488 285.424 345.411C285.424 345.411 283.37 347.188 281.912 346.828C281.912 346.828 284.993 345.524 284.936 345.164C284.936 345.164 282.415 344.322 280.911 344.574C282.284 344.276 283.71 344.342 285.049 344.764C284.67 343.986 284.072 343.337 283.329 342.894C283.329 342.894 284.895 342.704 285.655 344.949C285.655 344.949 287.596 345.683 287.781 345.976C287.781 345.976 287.35 343.629 286.353 342.381C286.353 342.381 288.109 343.218 288.243 346.279L289.999 347.532C289.999 347.532 289.588 344.399 288.782 343.238C288.782 343.238 290.446 344.373 290.415 347.86L291.955 349.329C291.955 349.329 291.811 346.602 291.19 345.123C291.19 345.123 292.504 346.505 292.376 349.745L293.28 350.849C293.28 350.849 293.136 348.862 293.044 348.281C292.951 347.701 293.095 347.645 293.095 347.645C293.62 348.785 293.817 350.05 293.665 351.296C293.665 351.296 295.369 353.797 295.513 353.72Z" fill="#15CC86"/>
</g>
</g>
<defs>
<linearGradient id="paint0_linear" x1="27975.7" y1="142537" x2="27975.7" y2="62830.8" gradientUnits="userSpaceOnUse">
<stop stop-color="#808080" stop-opacity="0.25"/>
<stop offset="0.54" stop-color="#808080" stop-opacity="0.12"/>
<stop offset="1" stop-color="#808080" stop-opacity="0.1"/>
</linearGradient>
<clipPath id="clip0">
<rect width="590" height="388" fill="white"/>
</clipPath>
</defs>
</svg>
