<svg width="48" height="48" viewBox="0 0 48 48" fill="none" xmlns="http://www.w3.org/2000/svg">
<path fill-rule="evenodd" clip-rule="evenodd" d="M4 26H44V36C44 38.2091 42.2091 40 40 40H8C5.79086 40 4 38.2091 4 36V26ZM37 36C38.6569 36 40 34.6569 40 33C40 31.3431 38.6569 30 37 30C35.3431 30 34 31.3431 34 33C34 34.6569 35.3431 36 37 36ZM27 36C28.6569 36 30 34.6569 30 33C30 31.3431 28.6569 30 27 30C25.3431 30 24 31.3431 24 33C24 34.6569 25.3431 36 27 36Z" fill="#0AE88D"/>
<path opacity="0.3" fill-rule="evenodd" clip-rule="evenodd" d="M11.5854 16H36.4146C37.0916 16 37.7226 16.3424 38.0915 16.91L44 26H4L9.90848 16.91C10.2774 16.3424 10.9084 16 11.5854 16Z" fill="#0AE88D"/>
</svg>
