<svg width="48" height="48" viewBox="0 0 48 48" fill="none" xmlns="http://www.w3.org/2000/svg">
<path opacity="0.3" fill-rule="evenodd" clip-rule="evenodd" d="M16 5C14.6193 5 13.5 6.11929 13.5 7.5V40.5C13.5 41.8807 14.6193 43 16 43H32C33.3807 43 34.5 41.8807 34.5 40.5V7.5C34.5 6.11929 33.3807 5 32 5H16Z" fill="#0AE88D"/>
<path d="M16 5C14.6193 5 13.5 6.11929 13.5 7.5V40.5C13.5 41.8807 14.6193 43 16 43H32C33.3807 43 34.5 41.8807 34.5 40.5V7.5C34.5 6.11929 33.3807 5 32 5H16ZM16 2H32C35.0376 2 37.5 4.46243 37.5 7.5V40.5C37.5 43.5376 35.0376 46 32 46H16C12.9624 46 10.5 43.5376 10.5 40.5V7.5C10.5 4.46243 12.9624 2 16 2ZM19 3.5H29C29.5523 3.5 30 3.94772 30 4.5V6.5C30 7.05228 29.5523 7.5 29 7.5H19C18.4477 7.5 18 7.05228 18 6.5V4.5C18 3.94772 18.4477 3.5 19 3.5Z" fill="#0AE88D"/>
</svg>
