<svg width="48" height="48" viewBox="0 0 48 48" fill="none" xmlns="http://www.w3.org/2000/svg">
<path opacity="0.3" d="M40 6H8C6.89543 6 6 6.89543 6 8V40C6 41.1046 6.89543 42 8 42H40C41.1046 42 42 41.1046 42 40V8C42 6.89543 41.1046 6 40 6Z" fill="#0AE88D"/>
<path opacity="0.8" d="M22 22V26H26V22H22ZM20 18H28C29.1046 18 30 18.8954 30 20V28C30 29.1046 29.1046 30 28 30H20C18.8954 30 18 29.1046 18 28V20C18 18.8954 18.8954 18 20 18Z" fill="#0AE88D"/>
<path opacity="0.8" d="M13 10H11C10.4477 10 10 10.4477 10 11V13C10 13.5523 10.4477 14 11 14H13C13.5523 14 14 13.5523 14 13V11C14 10.4477 13.5523 10 13 10Z" fill="#0AE88D"/>
<path opacity="0.8" d="M13 18H11C10.4477 18 10 18.4477 10 19V21C10 21.5523 10.4477 22 11 22H13C13.5523 22 14 21.5523 14 21V19C14 18.4477 13.5523 18 13 18Z" fill="#0AE88D"/>
<path opacity="0.8" d="M13 26H11C10.4477 26 10 26.4477 10 27V29C10 29.5523 10.4477 30 11 30H13C13.5523 30 14 29.5523 14 29V27C14 26.4477 13.5523 26 13 26Z" fill="#0AE88D"/>
<path opacity="0.8" d="M21 10H19C18.4477 10 18 10.4477 18 11V13C18 13.5523 18.4477 14 19 14H21C21.5523 14 22 13.5523 22 13V11C22 10.4477 21.5523 10 21 10Z" fill="#0AE88D"/>
<path opacity="0.8" d="M29 10H27C26.4477 10 26 10.4477 26 11V13C26 13.5523 26.4477 14 27 14H29C29.5523 14 30 13.5523 30 13V11C30 10.4477 29.5523 10 29 10Z" fill="#0AE88D"/>
<path opacity="0.8" d="M37 10H35C34.4477 10 34 10.4477 34 11V13C34 13.5523 34.4477 14 35 14H37C37.5523 14 38 13.5523 38 13V11C38 10.4477 37.5523 10 37 10Z" fill="#0AE88D"/>
<path opacity="0.8" d="M37 18H35C34.4477 18 34 18.4477 34 19V21C34 21.5523 34.4477 22 35 22H37C37.5523 22 38 21.5523 38 21V19C38 18.4477 37.5523 18 37 18Z" fill="#0AE88D"/>
<path opacity="0.8" d="M37 26H35C34.4477 26 34 26.4477 34 27V29C34 29.5523 34.4477 30 35 30H37C37.5523 30 38 29.5523 38 29V27C38 26.4477 37.5523 26 37 26Z" fill="#0AE88D"/>
<path opacity="0.8" d="M13 34H11C10.4477 34 10 34.4477 10 35V37C10 37.5523 10.4477 38 11 38H13C13.5523 38 14 37.5523 14 37V35C14 34.4477 13.5523 34 13 34Z" fill="#0AE88D"/>
<path opacity="0.8" d="M21 34H19C18.4477 34 18 34.4477 18 35V37C18 37.5523 18.4477 38 19 38H21C21.5523 38 22 37.5523 22 37V35C22 34.4477 21.5523 34 21 34Z" fill="#0AE88D"/>
<path opacity="0.8" d="M29 34H27C26.4477 34 26 34.4477 26 35V37C26 37.5523 26.4477 38 27 38H29C29.5523 38 30 37.5523 30 37V35C30 34.4477 29.5523 34 29 34Z" fill="#0AE88D"/>
<path opacity="0.8" d="M37 34H35C34.4477 34 34 34.4477 34 35V37C34 37.5523 34.4477 38 35 38H37C37.5523 38 38 37.5523 38 37V35C38 34.4477 37.5523 34 37 34Z" fill="#0AE88D"/>
</svg>
