<svg width="589" height="395" viewBox="0 0 589 395" fill="none" xmlns="http://www.w3.org/2000/svg">
<g clip-path="url(#clip0)">
<path d="M386.771 386.131C378.677 384.33 368.827 376.84 370.936 366.544C371.982 361.437 375.996 358.132 380.158 355.995C385.915 353.038 392.471 351.924 398.79 351.643C406.078 351.318 413.357 352.137 420.591 353.002C427.732 353.857 434.873 354.622 442.046 355.089C456.179 356.007 470.356 356.024 484.491 355.141C498.351 354.283 512.144 352.555 525.787 349.967C532.558 348.679 539.288 347.169 545.978 345.436C552.271 343.912 558.465 342.005 564.525 339.724C572.479 336.578 585.413 330.456 584.359 319.118C583.799 313.107 579.502 308.305 575.168 304.96C569.927 300.915 563.863 298.254 557.924 295.67C530.297 283.65 502.616 271.772 474.962 259.824C468.508 257.035 462.011 254.321 455.747 251.054C449.883 247.994 444.046 244.44 439.326 239.526C435.204 235.234 431.521 229.472 431.651 223.031C431.759 217.69 434.709 213.157 438.322 209.769C447.269 201.382 459.924 197.982 471.362 196.2C485.572 193.987 499.988 193.999 514.208 191.862C525.689 190.136 537.957 186.805 547.295 179C550.875 176.007 554.033 172.155 555.36 167.389C556.551 162.751 555.959 157.835 553.702 153.612C551.172 148.634 547.138 144.669 542.895 141.422C537.879 137.665 532.362 134.628 526.505 132.4C513.893 127.448 500.632 124.87 487.714 121.071C481.378 119.207 474.979 117.164 469.096 113.963C464.112 111.251 458.683 107.596 455.91 102.161C450.189 90.9459 463.838 84.262 471.571 81.7302C476.87 80.0777 482.278 78.802 487.757 77.9126C488.923 77.7064 488.428 75.7886 487.268 75.9939C481.505 76.9161 475.822 78.2832 470.271 80.0829C465.607 81.6793 460.795 83.7773 457.132 87.3875C454.055 90.4196 452.142 94.728 452.962 99.2759C453.932 104.657 458.15 108.803 462.111 111.806C467.349 115.778 473.322 118.371 479.377 120.485C485.755 122.712 492.268 124.447 498.778 126.149C511.788 129.551 525.382 132.582 537.126 139.819C545.341 144.882 556.502 154.375 553.769 166.141C552.556 171.364 548.872 175.448 544.897 178.451C540.092 182.081 534.589 184.561 529.008 186.411C502.982 195.04 474.339 188.87 448.985 200.59C440.364 204.575 429.893 211.83 429.808 223.246C429.765 229.177 432.65 234.615 436.217 238.914C440.489 244.063 446.022 247.871 451.65 251.053C457.634 254.308 463.786 257.243 470.08 259.845C477.016 262.846 483.953 265.843 490.892 268.837L533 287.03L553.921 296.069C560.306 298.828 566.856 301.474 572.661 305.524C577.415 308.84 583.031 314.28 582.546 321.035C582.161 326.4 577.836 330.271 573.883 332.859C568.765 336.211 563.015 338.379 557.295 340.18C550.697 342.258 543.99 343.981 537.27 345.531C523.43 348.713 509.396 350.976 495.258 352.306C481.074 353.65 466.818 354.088 452.578 353.617C445.38 353.378 438.193 352.904 431.017 352.194C423.621 351.46 416.255 350.329 408.84 349.827C402.132 349.373 395.36 349.479 388.754 350.937C383.238 352.155 377.411 354.325 373.224 358.561C371.741 360.049 370.588 361.832 369.839 363.794C369.091 365.757 368.764 367.855 368.879 369.952C369.226 374.189 371.023 378.176 373.969 381.24C377.293 384.7 381.584 387.073 386.281 388.05C387.437 388.307 387.932 386.39 386.771 386.131L386.771 386.131Z" fill="#E6E6E6"/>
<path d="M589 387.621H0V389.107H589V387.621Z" fill="#3F3D56"/>
<path d="M539.586 316.812L567.284 357.881L541.496 383.669L538.154 376.983L543.884 363.612C543.884 363.612 542.929 351.196 539.586 347.853C536.243 344.51 521.439 324.453 521.439 324.453L539.586 316.812Z" fill="#FFB8B8"/>
<path d="M504.248 184.055C504.248 184.055 509.5 192.367 498.516 228.183C498.516 228.183 549.748 314.65 541.63 320.38C533.512 326.111 511.543 338.793 505.812 334.973C500.082 331.152 458.403 201.724 458.403 201.724L504.248 184.055Z" fill="#2F2E41"/>
<path d="M562.27 350.48L570.627 358.838C574.925 363.135 577.79 369.344 569.672 374.597C561.553 379.85 533.378 399.429 523.827 393.221C514.276 387.013 535.288 381.282 535.288 381.282C535.288 381.282 538.763 368.4 540.607 371.259C542.452 374.119 542.451 379.85 542.451 379.85L562.27 350.48Z" fill="#2F2E41"/>
<path d="M461.268 339.257C461.268 339.257 445.987 367.432 445.987 370.775C445.987 374.118 446.942 383.669 446.942 383.669L417.812 390.832L407.783 386.056L411.126 377.461C411.126 377.461 429.273 371.252 433.093 359.314C436.913 347.375 441.211 334.959 441.211 334.959L461.268 339.257Z" fill="#FFB8B8"/>
<path d="M478.938 58.9381C490.015 58.9381 498.995 49.9583 498.995 38.8811C498.995 27.804 490.015 18.8242 478.938 18.8242C467.861 18.8242 458.881 27.804 458.881 38.8811C458.881 49.9583 467.861 58.9381 478.938 58.9381Z" fill="#FFB8B8"/>
<path d="M473.685 56.0743L483.26 83.5881L504.247 74.2211C504.247 74.2211 489.921 52.254 489.921 49.3887L473.685 56.0743Z" fill="#FFB8B8"/>
<path d="M470.819 153.971H496.129C496.129 153.971 514.276 181.669 503.77 210.799C502.161 215.26 500.564 221.508 498.97 228.896C495.304 245.886 491.654 268.9 487.914 290.048C482.66 319.754 477.227 345.778 471.321 346.25C459.383 347.205 436.167 347.046 436.167 342.27C436.167 337.495 451.718 199.338 451.718 199.338L455.06 193.607L455.692 168.646C455.792 164.707 457.432 160.964 460.26 158.22C463.088 155.477 466.879 153.951 470.819 153.971L470.819 153.971Z" fill="#2F2E41"/>
<path d="M445.748 370.537C445.748 370.537 451.24 379.849 449.808 386.535C448.375 393.221 445.987 392.265 435.481 393.221C424.975 394.176 389.159 394.176 389.159 387.49C389.159 380.804 417.099 372.122 417.217 374.792C417.334 377.462 418.289 382.715 415.424 383.67C412.559 384.625 415.185 383.908 415.185 383.908L445.748 370.537Z" fill="#2F2E41"/>
<path d="M461.679 211.082C461.679 211.082 455.935 244.58 443.257 233.038C430.578 221.496 451.698 205.449 451.698 205.449L461.679 211.082Z" fill="#FFB8B8"/>
<path d="M501.342 168.898C502.008 169.198 502.743 169.311 503.469 169.225C504.194 169.14 504.882 168.858 505.46 168.41C506.298 167.752 506.856 166.802 507.022 165.749C509.025 154.201 511.464 122.186 512.869 105.997C514.632 85.6837 505.827 69.9501 505.753 69.8544L500.564 62.7198C500.025 61.9744 499.25 61.4333 498.364 61.1847C497.479 60.9362 496.535 60.9947 495.687 61.3508C495.687 61.3508 479.488 78.1575 479.428 78.8064C479.174 81.5929 477.246 87.7679 467.197 97.8169C456.202 108.812 456.141 118.408 456.384 121.088C456.4 121.264 456.408 121.44 456.409 121.616C456.388 122.818 456.551 124.016 456.893 125.169C461.498 139.688 457.892 157.071 452.1 175.216C451.881 176.036 451.921 176.904 452.217 177.699C452.513 178.495 453.048 179.179 453.75 179.657C455.441 180.807 453.413 179.1 454.016 179.839C458.008 184.73 463.752 177.914 470.322 170.475C472.611 167.884 475.205 164.947 478.263 161.89C482.466 157.686 490.499 167.279 494.233 167.279C496.691 167.309 499.114 167.86 501.342 168.898Z" fill="#15CC86"/>
<path d="M506.165 78.8131C506.165 78.8131 515.634 88.7455 508.465 99.505C501.296 110.265 501.166 118.763 501.166 118.763C501.166 118.763 491.042 196.946 472.944 191.119L461.988 213.45L447.378 206.302L458.409 186.755C458.409 186.755 451.413 185.548 453.995 180.974C455.808 177.76 467.587 142.03 474.437 121.045C477.341 112.152 479.359 105.908 479.359 105.908C479.359 105.908 488.846 74.5227 506.165 78.8131Z" fill="#15CC86"/>
<path opacity="0.2" d="M504.009 118.871L493.948 156.704L501.6 115.912L504.009 118.871Z" fill="black"/>
<path d="M457.055 29.9946C457.055 29.9946 453.683 3.75255 481.195 12.3579C481.195 12.3579 500.845 8.75246 507.289 33.3314L513.814 59.0962L510.634 57.3654L509.152 60.606L503.999 61.911L501.794 57.5343L500.727 62.8492L458.521 67.0568C458.521 67.0568 477.424 55.8777 477.724 35.842L474.124 39.6469L457.055 29.9946Z" fill="#2F2E41"/>
<path d="M62.76 2.20508C62.1219 2.20746 61.5107 2.46288 61.0607 2.91529C60.6106 3.3677 60.3584 3.98015 60.3594 4.61828V200.105C60.3584 200.743 60.6106 201.356 61.0606 201.808C61.5107 202.26 62.1218 202.516 62.76 202.518H341.847C342.485 202.516 343.096 202.26 343.546 201.808C343.996 201.356 344.248 200.743 344.247 200.105V4.61828C344.248 3.98018 343.996 3.36773 343.546 2.91532C343.096 2.4629 342.485 2.20748 341.846 2.20508H62.76Z" fill="#3F3D56"/>
<path d="M61.7556 117.093C70.269 117.069 78.3064 120.094 85.3163 124.799C92.6741 129.738 98.8928 136.28 104.355 143.209C110.392 150.867 115.564 159.152 121.117 167.155C126.245 174.547 131.739 181.732 138.348 187.873C144.6 193.684 151.842 198.569 160.008 201.218C161.003 201.541 162.009 201.826 163.024 202.081C164.167 202.368 164.655 200.602 163.511 200.315C155.124 198.21 147.626 193.651 141.179 187.969C134.453 182.041 128.86 175.005 123.719 167.693C118.121 159.732 112.971 151.454 107.052 143.72C101.576 136.564 95.4171 129.836 88.1021 124.519C81.3142 119.585 73.4513 116.071 65.0222 115.385C63.9353 115.296 62.846 115.259 61.7556 115.262C61.5182 115.27 61.2933 115.37 61.1283 115.541C60.9633 115.712 60.8711 115.94 60.8711 116.178C60.8711 116.415 60.9633 116.643 61.1283 116.814C61.2933 116.985 61.5182 117.085 61.7556 117.093L61.7556 117.093Z" fill="#15CC86"/>
<path d="M62.7073 201.643C77.6831 186.495 98.156 179.335 118.487 174.69C139.751 169.832 161.688 167.224 181.892 158.556C191.539 154.529 200.395 148.82 208.046 141.697C215.19 134.872 221.116 126.878 225.569 118.059C234.657 100.18 237.483 79.7688 233.596 60.0931C229.483 40.0899 219.287 21.8475 204.403 7.86469C202.59 6.15982 200.712 4.52759 198.77 2.96799C197.86 2.23544 196.557 3.52335 197.475 4.26297C213.294 17.0184 224.749 34.3827 230.25 53.9451C235.624 73.2427 234.233 93.7983 226.308 112.196C222.463 121.133 217.141 129.36 210.567 136.531C203.591 144.011 195.296 150.141 186.098 154.613C166.5 164.289 144.565 167.284 123.406 171.74C103.455 175.941 83.1044 181.933 67.1089 195.133C65.1233 196.775 63.222 198.515 61.4123 200.348C60.5829 201.187 61.8771 202.483 62.7073 201.643Z" fill="#15CC86"/>
<path d="M61.5834 86.9686C84.567 80.7521 108.888 81.5851 131.393 89.3594C137.931 91.6016 144.636 94.2075 150.106 98.5426C154.811 102.272 158.942 107.918 157.767 114.256C156.683 120.099 151.309 124.715 145.524 125.56C139.558 126.431 134.122 122.8 131.385 117.655C129.988 115.104 129.35 112.206 129.546 109.303C129.742 106.401 130.764 103.615 132.491 101.275C135.95 96.6163 141.7 93.9561 147.351 93.2186C153.81 92.3755 160.163 94.2795 165.75 97.4631C178.378 104.658 186.441 117.202 197.046 126.765C202.128 131.493 208.096 135.168 214.605 137.578C220.9 139.754 227.541 140.759 234.199 140.542C248.153 140.186 261.534 135.145 272.935 127.238C284.371 119.306 293.816 108.891 302.086 97.7767C306.509 91.8335 310.352 85.4476 314.98 79.6613C319.535 73.9656 325.171 68.9021 332.379 66.9954C335.659 66.0881 339.122 66.069 342.412 66.94C342.643 66.9951 342.887 66.9584 343.091 66.8375C343.296 66.7167 343.445 66.5211 343.508 66.2921C343.572 66.0631 343.543 65.8185 343.43 65.6099C343.316 65.4013 343.126 65.2451 342.899 65.174C335.891 63.2631 328.525 65.4998 322.715 69.5781C316.501 73.9405 312.048 80.2635 307.823 86.4559C299.383 98.8277 290.293 110.817 278.756 120.496C267.238 130.159 253.375 137.083 238.263 138.47C231.035 139.199 223.733 138.488 216.781 136.377C209.513 134.094 203.211 129.971 197.641 124.831C186.696 114.732 178.183 101.476 164.484 94.7161C158.71 91.8669 152.392 90.4999 145.993 91.5848C140.36 92.54 134.818 95.3179 131.267 99.8815C129.467 102.176 128.293 104.897 127.859 107.78C127.425 110.664 127.746 113.61 128.79 116.332C130.814 121.645 135.329 126.234 141.063 127.28C146.85 128.336 152.897 125.667 156.511 121.124C158.32 118.845 159.419 116.084 159.671 113.184C159.922 110.285 159.315 107.376 157.926 104.819C154.953 99.0725 149.153 95.0995 143.504 92.2958C136.407 88.8888 128.958 86.2706 121.29 84.4883C105.554 80.6511 89.2089 80.0075 73.2203 82.5956C69.1381 83.2619 65.0917 84.1319 61.0965 85.2026C60.8698 85.2737 60.6796 85.4299 60.5659 85.6385C60.4522 85.8471 60.4239 86.0917 60.4871 86.3207C60.5502 86.5497 60.6998 86.7453 60.9043 86.8661C61.1088 86.987 61.3523 87.0237 61.5833 86.9686H61.5834Z" fill="#15CC86"/>
<path d="M252.654 202.448C259.134 193.747 265.759 184.517 268.556 173.872C269.948 168.791 270.153 163.457 269.153 158.284C268.186 153.774 266.301 149.511 263.616 145.76C258.109 137.938 249.99 132.125 241.351 128.201C230.652 123.341 219.114 120.849 207.947 117.344C197.654 114.114 187.1 109.899 179.411 102.048C172.146 94.6306 168.03 83.4655 172.082 73.4229C175.758 64.3107 184.718 58.268 193.662 55.0779C204.628 51.1666 216.374 50.4625 227.548 47.3625C236.891 44.7709 246.452 40.3519 252.236 32.2381C257.138 25.3621 258.712 15.4463 254.793 7.76105C253.838 5.89802 252.552 4.22409 250.998 2.82079C250.126 2.03095 248.827 3.32228 249.703 4.11577C256.31 10.104 256.389 20.3494 252.666 27.9336C248.295 36.8385 238.857 41.911 229.772 44.7922C218.96 48.2216 207.518 48.9535 196.653 52.1801C187.366 54.9378 178.283 59.8822 172.818 68.1459C170.164 72.1036 168.709 76.7428 168.627 81.507C168.655 86.6051 170.016 91.6072 172.573 96.0177C177.739 105.19 186.947 111.123 196.423 115.127C216.346 123.544 239.981 124.83 256.395 140.263C263.444 146.89 268.231 155.693 267.954 165.554C267.65 176.43 261.836 186.325 255.789 195.015C254.258 197.214 252.673 199.375 251.073 201.523C250.369 202.469 251.958 203.383 252.654 202.448V202.448Z" fill="#15CC86"/>
<path d="M103.084 4.65186C105.604 6.48892 107.644 8.90719 109.03 11.7013C110.416 14.4953 111.108 17.5827 111.045 20.701C110.946 23.8583 110.068 26.942 108.488 29.6774C106.908 32.4128 104.676 34.715 101.991 36.3788C96.9052 39.3808 89.7569 39.7586 85.7071 34.853C84.0318 32.8631 83.1966 30.2993 83.3785 27.7045C83.5226 26.4522 83.9662 25.253 84.6718 24.2085C85.3774 23.1639 86.3243 22.3047 87.4322 21.7035C92.5698 18.7722 98.7273 20.498 103.475 23.3067C106.414 25.0453 109.103 27.1602 111.913 29.0916C114.597 30.9527 117.464 32.5362 120.468 33.8176C132.43 38.8704 146.466 38.9304 158.258 33.3453C163.6 30.7872 168.385 27.1993 172.338 22.7874C176.291 18.3755 179.333 13.2264 181.291 7.63578C181.763 6.25359 182.161 4.8471 182.484 3.42236C182.744 2.27481 180.979 1.78487 180.718 2.93551C177.966 15.0445 169.559 25.5154 158.543 31.1673C146.536 37.3279 131.711 37.1556 119.575 31.4269C116.464 29.8943 113.498 28.0823 110.715 26.0133C107.852 23.9616 104.997 21.843 101.797 20.337C96.7662 17.9696 90.1818 17.3034 85.4643 20.8047C84.3578 21.6097 83.4359 22.6416 82.7604 23.8315C82.0849 25.0214 81.6712 26.3418 81.5471 27.7045C81.3689 30.4945 82.201 33.2554 83.8912 35.4823C87.815 40.7753 94.8785 41.5249 100.672 39.0811C106.766 36.5109 111.156 30.6914 112.459 24.2602C113.24 20.2895 112.857 16.1778 111.358 12.419C109.859 8.66025 107.307 5.41413 104.008 3.07052C103.049 2.38136 102.134 3.96921 103.084 4.65186H103.084Z" fill="#15CC86"/>
<path d="M297.301 202.095C299.244 193.268 303.118 184.982 308.647 177.832C314.152 170.661 321.112 164.735 329.068 160.442C333.537 158.039 338.296 156.219 343.228 155.03C344.373 154.754 343.888 152.987 342.741 153.264C333.737 155.487 325.335 159.674 318.139 165.525C310.911 171.339 304.996 178.618 300.784 186.882C298.411 191.546 296.647 196.495 295.535 201.608C295.288 202.757 297.053 203.248 297.301 202.095H297.301Z" fill="#15CC86"/>
<path d="M287.577 3.09182C283.673 3.13113 280.38 5.8338 278.781 9.27975C276.966 13.1903 277.462 17.4938 279.408 21.2615C283.946 30.0512 293.855 33.1662 300.99 39.2435C304.3 42.063 307.185 45.6509 307.945 50.0411C308.686 54.3206 307.157 58.731 304.653 62.1747C301.919 65.9349 297.796 68.52 293.501 70.1504C289.084 71.8301 284.418 72.7655 279.695 72.9184C275.132 73.0476 270.308 72.2504 266.529 69.5285C264.961 68.4074 263.642 66.9729 262.657 65.3157C261.672 63.6585 261.042 61.8148 260.807 59.9013C260.613 58.1711 260.907 56.4213 261.654 54.8488C262.401 53.2764 263.573 51.9438 265.036 51.0009C267.988 49.2558 271.489 48.6876 274.841 49.4099C283.192 51.0601 287.518 59.3465 289.364 66.9427C291.716 76.6154 290.782 86.8985 294.398 96.2975C297.482 104.251 303.095 110.97 310.373 115.419C318.715 120.493 327.697 122.136 337.163 119.657C339.573 119.013 341.917 118.141 344.163 117.053C345.225 116.544 344.297 114.965 343.238 115.472C333.828 119.976 324.201 120.12 314.731 115.681C306.883 111.958 300.594 105.595 296.963 97.7046C292.678 88.3791 293.53 77.908 291.49 68.0577C289.849 60.1292 285.861 51.2914 277.715 48.3102C271.16 45.9113 262.374 47.7734 259.645 54.8326C258.219 58.5227 259.044 62.7421 261.003 66.0734C263.214 69.7228 266.705 72.4174 270.796 73.631C275.39 75.0911 280.347 74.9687 285.06 74.2256C289.802 73.563 294.387 72.0566 298.599 69.7778C302.633 67.5872 305.914 64.2326 308.014 60.1507C309.971 56.161 310.601 51.5176 309.113 47.2659C305.825 37.8721 295.882 33.9934 288.459 28.5619C284.802 25.8857 281.368 22.3705 280.006 17.9409C279.367 16.0436 279.28 14.0042 279.755 12.0594C280.229 10.1146 281.245 8.34429 282.685 6.95399C284.003 5.68688 285.75 4.96192 287.577 4.92317C287.815 4.91494 288.04 4.81486 288.205 4.64403C288.37 4.4732 288.462 4.24499 288.462 4.00748C288.462 3.76998 288.37 3.54176 288.205 3.37093C288.04 3.20011 287.815 3.10003 287.577 3.0918L287.577 3.09182Z" fill="#15CC86"/>
<path d="M250.899 170.376C270.453 170.376 286.305 154.524 286.305 134.969C286.305 115.415 270.453 99.5625 250.899 99.5625C231.344 99.5625 215.492 115.415 215.492 134.969C215.492 154.524 231.344 170.376 250.899 170.376Z" fill="#15CC86"/>
<path d="M260.056 55.6104C267.811 55.6104 274.097 49.3242 274.097 41.5698C274.097 33.8155 267.811 27.5293 260.056 27.5293C252.302 27.5293 246.016 33.8155 246.016 41.5698C246.016 49.3242 252.302 55.6104 260.056 55.6104Z" fill="#15CC86"/>
<path d="M88.5171 65.9873C96.2715 65.9873 102.558 59.7012 102.558 51.9468C102.558 44.1924 96.2715 37.9062 88.5171 37.9062C80.7627 37.9062 74.4766 44.1924 74.4766 51.9468C74.4766 59.7012 80.7627 65.9873 88.5171 65.9873Z" fill="#15CC86"/>
<path opacity="0.2" d="M488.441 291.558L497.853 228.848L490.198 296.546L488.441 291.558Z" fill="black"/>
<path d="M503.823 23.2272C509.684 23.2272 514.435 18.4758 514.435 12.6146C514.435 6.75338 509.684 2.00195 503.823 2.00195C497.961 2.00195 493.21 6.75338 493.21 12.6146C493.21 18.4758 497.961 23.2272 503.823 23.2272Z" fill="#2F2E41"/>
<path d="M492.886 10.0173C493.06 7.32471 494.255 4.79987 496.225 2.95699C498.196 1.11411 500.796 0.0918112 503.494 0.0982978C503.275 0.0704927 503.057 0.0366966 502.834 0.0223297C501.443 -0.068069 500.047 0.116587 498.727 0.565735C497.407 1.01488 496.189 1.71972 495.141 2.63998C494.094 3.56024 493.238 4.67787 492.623 5.92902C492.007 7.18017 491.645 8.54031 491.555 9.93171C491.466 11.3231 491.651 12.7185 492.101 14.0381C492.551 15.3578 493.257 16.5758 494.178 17.6226C495.099 18.6694 496.217 19.5245 497.469 20.139C498.72 20.7535 500.081 21.1153 501.472 21.2038C501.696 21.2182 501.915 21.2124 502.136 21.213C499.459 20.8739 497.012 19.5271 495.294 17.4471C493.575 15.367 492.714 12.71 492.886 10.0173Z" fill="#2F2E41"/>
<path d="M477.291 45.1161C479.123 45.1161 480.607 43.0374 480.607 40.4731C480.607 37.9088 479.123 35.8301 477.291 35.8301C475.459 35.8301 473.975 37.9088 473.975 40.4731C473.975 43.0374 475.459 45.1161 477.291 45.1161Z" fill="#FFB8B8"/>
<path opacity="0.2" d="M470.658 127.364L455.949 176.101L473.975 122.465L470.658 127.364Z" fill="black"/>
</g>
<defs>
<clipPath id="clip0">
<rect width="589" height="394.424" fill="white"/>
</clipPath>
</defs>
</svg>
