<svg width="586" height="485" viewBox="0 0 586 485" fill="none" xmlns="http://www.w3.org/2000/svg">
<g clip-path="url(#clip0)">
<path d="M421.605 484.999C512.398 484.999 586 481.343 586 476.833C586 472.324 512.398 468.668 421.605 468.668C330.812 468.668 257.21 472.324 257.21 476.833C257.21 481.343 330.812 484.999 421.605 484.999Z" fill="#D0CDE1"/>
<path d="M207.887 61.6651C199.291 47.0995 187.363 34.7838 173.085 25.7307C158.806 16.6776 142.585 11.1456 125.754 9.58949C108.923 8.03338 91.963 10.4976 76.269 16.7796C60.5749 23.0616 46.5948 32.982 35.4779 45.7251L28.6045 39.7139C40.6692 25.8793 55.8429 15.1087 72.8779 8.28796C89.9128 1.46721 108.322 -1.20883 126.592 0.479923C144.862 2.16867 162.47 8.17397 177.969 18.0019C193.467 27.8299 206.413 41.1997 215.742 57.0118L207.887 61.6651Z" fill="#D0CDE1"/>
<path d="M212.189 180.672L204.614 175.574C215.834 158.827 222.094 139.247 222.673 119.092C223.252 98.9376 218.127 79.0297 207.888 61.665L215.743 57.0117C226.86 75.8621 232.426 97.4745 231.797 119.355C231.168 141.235 224.371 162.492 212.189 180.672Z" fill="#15CC86"/>
<path d="M29.556 193.398C10.6887 172.309 0.177409 145.043 0.00222543 116.736C-0.172958 88.4285 10 61.0342 28.6049 39.7129L35.4784 45.724C18.3396 65.3661 8.96842 90.6023 9.12981 116.679C9.2912 142.756 18.9741 167.875 36.3546 187.303L29.556 193.398Z" fill="#3F3D56"/>
<path d="M115.923 232.04C99.6237 232.027 83.5094 228.58 68.6291 221.923C53.7488 215.265 40.4358 205.546 29.5566 193.399L36.3552 187.304C47.2079 199.439 60.6876 208.931 75.7653 215.056C90.843 221.182 107.12 223.778 123.353 222.646C139.586 221.514 155.346 216.685 169.43 208.527C183.513 200.369 195.548 189.098 204.615 175.574L212.19 180.672C201.593 196.488 187.266 209.448 170.476 218.407C153.686 227.366 134.95 232.048 115.923 232.04Z" fill="#15CC86"/>
<path d="M320.15 237.122H195.371V182.365H197.291V235.201H320.15V237.122Z" fill="#3F3D56"/>
<path d="M196.331 201.804C202.162 201.804 206.889 197.073 206.889 191.237C206.889 185.401 202.162 180.67 196.331 180.67C190.5 180.67 185.772 185.401 185.772 191.237C185.772 197.073 190.5 201.804 196.331 201.804Z" fill="#3F3D56"/>
<path d="M347.559 254.133H289.969V256.054H347.559V254.133Z" fill="#15CC86"/>
<path d="M347.559 259.896H289.969V261.818H347.559V259.896Z" fill="#15CC86"/>
<path d="M347.559 265.66H289.969V267.581H347.559V265.66Z" fill="#15CC86"/>
<path d="M409.18 301.736L402.999 323.013C402.999 323.013 402.438 333.638 417.12 332.942L415.341 323.195L422.281 305.372L409.18 301.736Z" fill="#A0616A"/>
<path d="M428.442 178.216L434.764 197.987L425.281 215.386V235.157H437.924L455.308 194.033L445.826 173.471L428.442 178.216Z" fill="#A0616A"/>
<path d="M440.295 223.295H422.911L421.331 246.229L418.96 273.118L447.407 266.001L440.295 223.295Z" fill="#D0CDE1"/>
<path d="M410.268 337.967L395.254 384.627L379.45 453.43L394.464 458.175L417.379 393.326L433.973 358.529L437.924 397.28L443.455 461.339L458.469 463.711V395.698L468.741 337.967H410.268Z" fill="#A0616A"/>
<path d="M459.655 455.407L442.271 451.453L431.208 466.479C431.208 466.479 407.783 477.857 416.985 478.342C431.998 479.133 461.63 478.342 461.63 476.76C461.63 475.178 459.655 455.407 459.655 455.407Z" fill="#2F2E41"/>
<path d="M396.44 455.407L379.056 451.453L367.993 466.479C367.993 466.479 344.568 477.857 353.77 478.342C368.784 479.133 398.415 478.342 398.415 476.76C398.415 475.178 396.44 455.407 396.44 455.407Z" fill="#2F2E41"/>
<path d="M452.148 259.673L416.589 265.209L406.804 341.13C406.804 341.13 414.219 348.247 433.183 343.502V345.875C433.183 345.875 461.63 332.431 468.741 345.875L469.228 343.763C474.478 321.377 472.833 297.926 464.51 276.494C460.667 266.716 456.296 259.08 452.148 259.673Z" fill="#2F2E41"/>
<path d="M431.998 183.357C442.908 183.357 451.752 174.505 451.752 163.586C451.752 152.666 442.908 143.814 431.998 143.814C421.088 143.814 412.243 152.666 412.243 163.586C412.243 174.505 421.088 183.357 431.998 183.357Z" fill="#A0616A"/>
<path d="M455.309 183.752L431.603 231.203C431.603 231.203 427.652 248.601 437.925 266.791C443.737 277.082 457.706 298.812 468.742 315.743C477.212 328.738 465.987 338.905 465.987 338.905L506.671 333.221L482.175 259.673L479.014 196.405L462.421 191.66L455.309 183.752Z" fill="#575A89"/>
<path d="M468.741 267.582L450.567 280.236C450.567 280.236 443.455 288.144 455.308 296.843L460.049 288.144L476.643 278.654L468.741 267.582Z" fill="#A0616A"/>
<path d="M406.317 343.502L435.159 197.592L424.099 204.233C422.02 205.482 420.268 207.208 418.989 209.269C417.709 211.33 416.938 213.666 416.741 216.085L406.317 343.502Z" fill="#575A89"/>
<path opacity="0.2" d="M432.789 343.107L433.579 359.716L431.208 364.461L432.789 343.107Z" fill="#2F2E41"/>
<path d="M468.741 197.197H479.014C480.754 198.051 482.29 199.269 483.517 200.771C484.745 202.272 485.634 204.02 486.125 205.897C487.706 212.223 493.237 239.903 493.237 239.903L496.398 255.72L476.643 283.399L464.79 269.164L475.063 254.138L460.049 216.968C460.049 216.968 457.679 201.151 468.741 197.197Z" fill="#575A89"/>
<path opacity="0.2" d="M463.404 225.273L474.668 253.742L464.395 268.768L472.297 253.742L463.404 225.273Z" fill="#2F2E41"/>
<path d="M440.295 170.704C441.386 170.704 442.27 169.287 442.27 167.54C442.27 165.793 441.386 164.377 440.295 164.377C439.204 164.377 438.319 165.793 438.319 167.54C438.319 169.287 439.204 170.704 440.295 170.704Z" fill="#A0616A"/>
<path d="M450.572 178.894C445.114 179.909 439.474 179.074 434.543 176.521L429.76 174.044L428.748 168.593C428.643 168.025 428.394 167.494 428.026 167.05C427.658 166.606 427.183 166.264 426.646 166.055C426.108 165.846 425.526 165.779 424.955 165.859C424.385 165.938 423.843 166.163 423.384 166.511C423.384 166.511 404.926 147.522 420.874 139.575C436.822 131.629 439.899 134.793 439.899 134.793C439.899 134.793 435.739 105.674 457.978 111.504C480.216 117.335 474.081 144.631 456.792 145.354C456.792 145.354 471.555 171.257 450.572 178.894Z" fill="#2F2E41"/>
<path d="M442.634 136.705C442.634 136.705 428.822 110.739 451.716 108.648C455.04 108.279 458.403 108.697 461.535 109.868C458.439 108.148 454.499 107.26 449.692 107.699C426.798 109.79 440.61 135.756 440.61 135.756L442.634 136.705Z" fill="#2F2E41"/>
<path d="M548.572 473.574C548.572 473.574 556.133 448.112 527.378 433.615L548.572 473.574Z" fill="#D0CDE1"/>
<path d="M549.514 473.709C549.514 473.709 552.511 448.579 586 447.004L549.514 473.709Z" fill="#D0CDE1"/>
</g>
<defs>
<clipPath id="clip0">
<rect width="586" height="485" fill="white"/>
</clipPath>
</defs>
</svg>
