<svg width="589" height="367" viewBox="0 0 589 367" fill="none" xmlns="http://www.w3.org/2000/svg">
<path d="M309.555 337.305H267.389C262.017 337.305 257.662 341.663 257.662 347.04V357.265C257.662 362.641 262.017 367 267.389 367H309.555C314.927 367 319.282 362.641 319.282 357.265V347.04C319.282 341.663 314.927 337.305 309.555 337.305Z" fill="#D0CDE1"/>
<path d="M478.688 363.268H100.934V364.608H478.688V363.268Z" fill="#3F3D56"/>
<path d="M300.065 334.704L299.729 334.012C299.627 333.802 289.557 312.732 295.171 291.958C300.786 271.184 320.096 258.069 320.29 257.939L320.928 257.512L321.264 258.203C321.367 258.413 331.437 279.483 325.822 300.257C320.207 321.031 300.898 334.146 300.703 334.276L300.065 334.704ZM320.388 259.512C317.007 261.973 301.367 274.168 296.464 292.308C291.558 310.463 298.925 328.874 300.606 332.704C303.986 330.242 319.626 318.047 324.529 299.907C329.436 281.753 322.068 263.342 320.388 259.512Z" fill="#3F3D56"/>
<path d="M274.102 300.082C279.716 320.854 298.946 333.719 298.946 333.719C298.946 333.719 309.073 312.905 303.459 292.133C297.845 271.361 278.615 258.496 278.615 258.496C278.615 258.496 268.487 279.31 274.102 300.082Z" fill="#15CC86"/>
<path d="M300.369 334.413L299.603 334.371C299.369 334.359 276.078 332.922 260.671 317.91C245.264 302.899 243.203 279.634 243.184 279.4L243.121 278.635L243.888 278.677C244.121 278.689 267.412 280.126 282.819 295.138C298.226 310.15 300.288 333.414 300.307 333.648L300.369 334.413ZM244.605 280.08C245.11 284.233 248.152 303.841 261.605 316.949C275.059 330.058 294.724 332.574 298.886 332.968C298.38 328.814 295.339 309.207 281.885 296.099C268.421 282.98 248.765 280.472 244.605 280.08Z" fill="#3F3D56"/>
<path d="M316.926 295.618C301.52 310.628 299.639 333.702 299.639 333.702C299.639 333.702 322.734 332.44 338.14 317.43C353.545 302.42 355.427 279.346 355.427 279.346C355.427 279.346 332.331 280.608 316.926 295.618Z" fill="#3F3D56"/>
<path d="M299.318 212.836C304.867 212.836 309.365 208.334 309.365 202.78C309.365 197.227 304.867 192.725 299.318 192.725C293.77 192.725 289.271 197.227 289.271 202.78C289.271 208.334 293.77 212.836 299.318 212.836Z" fill="#15CC86"/>
<path d="M325.437 364.89H275.62C272.457 364.886 269.425 363.627 267.189 361.389C264.952 359.151 263.694 356.116 263.69 352.95V340.63C263.694 337.464 264.952 334.429 267.188 332.191C269.425 329.952 272.457 328.693 275.62 328.689H325.437C328.599 328.693 331.632 329.952 333.868 332.191C336.104 334.429 337.362 337.464 337.366 340.63V352.95C337.362 356.116 336.104 359.151 333.868 361.389C331.631 363.627 328.599 364.886 325.437 364.89ZM275.62 330.03C272.812 330.033 270.12 331.151 268.135 333.138C266.15 335.125 265.033 337.82 265.03 340.63V352.95C265.033 355.76 266.15 358.454 268.135 360.441C270.121 362.428 272.812 363.546 275.62 363.549H325.437C328.244 363.546 330.936 362.428 332.921 360.441C334.906 358.454 336.023 355.76 336.026 352.95V340.63C336.023 337.82 334.907 335.125 332.921 333.138C330.936 331.151 328.244 330.033 325.437 330.03H275.62Z" fill="#3F3D56"/>
<path d="M201.507 58.2129H0V229.539H201.507V58.2129Z" fill="#15CC86"/>
<path d="M38.2062 46.7752C44.043 46.7752 48.7747 42.0392 48.7747 36.1971C48.7747 30.3551 44.043 25.6191 38.2062 25.6191C32.3694 25.6191 27.6377 30.3551 27.6377 36.1971C27.6377 42.0392 32.3694 46.7752 38.2062 46.7752Z" fill="#FF6584"/>
<path d="M241.129 206.779H37.4355V33.2637H241.129V206.779ZM39.6225 204.59H238.942V35.4526H39.6225V204.59Z" fill="#3F3D56"/>
<path d="M217.286 100.167C217.283 114.281 213.459 128.131 206.222 140.244C198.985 152.358 188.604 162.283 176.183 168.965C175.251 169.471 174.305 169.955 173.344 170.418C162.685 175.586 150.99 178.26 139.146 178.239C127.302 178.218 115.617 175.501 104.976 170.295C103.142 169.398 101.351 168.43 99.6027 167.389C97.826 166.348 96.0998 165.227 94.4242 164.042C83.405 156.287 74.5795 145.809 68.807 133.627C63.0345 121.446 60.5115 107.976 61.4838 94.5284C62.4561 81.0812 66.8904 68.1151 74.3552 56.8922C81.8199 45.6694 92.0608 36.5723 104.081 30.4866C108.829 28.0711 113.815 26.1572 118.959 24.7757C121.227 24.1612 123.533 23.6504 125.878 23.2432C130.305 22.4747 134.79 22.0902 139.283 22.0938C140.207 22.0938 141.125 22.1082 142.042 22.1516C142.714 22.1661 143.385 22.195 144.057 22.2384C151.079 22.6584 158.011 24.0325 164.663 26.3227C165.233 26.5179 165.804 26.7203 166.367 26.93C168.332 27.6528 170.253 28.4577 172.131 29.3444C185.621 35.6111 197.04 45.608 205.04 58.1562C213.041 70.7045 217.29 85.2809 217.286 100.167Z" fill="#3F3D56"/>
<path d="M169.729 20.3312C162.632 3.57148 144.567 0.406247 144.567 0.406247C144.567 0.406247 127.173 -4.23827 112.646 17.8811C99.1067 38.4981 81.6465 57.8144 103.79 66.0437L109.639 53.7486L110.34 67.8982C113.56 68.5694 116.814 69.0637 120.088 69.3789C144.649 71.8763 167.802 76.0287 168.231 67.1446C168.801 55.3344 176.557 36.4574 169.729 20.3312Z" fill="#2F2E41"/>
<path d="M106.651 156.921L106.074 161.562L104.976 170.295C103.141 169.398 101.35 168.43 99.6023 167.389C97.8256 166.348 96.0994 165.227 94.4238 164.042L94.5972 159.538L94.7922 154.543L102.809 156.155L106.651 156.921Z" fill="#FFB8B8"/>
<path d="M187.348 161.664C183.841 164.412 180.106 166.854 176.182 168.965L172.398 155.844L171.899 154.116L170.657 149.801L171.993 149.591L185.673 147.43L186.113 151.153L187.348 161.664Z" fill="#FFB8B8"/>
<path d="M144.579 54.8914C156.362 54.8914 165.915 45.3305 165.915 33.5365C165.915 21.7425 156.362 12.1816 144.579 12.1816C132.795 12.1816 123.243 21.7425 123.243 33.5365C123.243 45.3305 132.795 54.8914 144.579 54.8914Z" fill="#FFB8B8"/>
<path d="M129.96 41.8398C129.96 41.8398 131.541 68.7312 126.799 70.313C122.058 71.8948 151.296 70.313 151.296 70.313C151.296 70.313 147.345 53.7037 151.296 48.9581C155.247 44.2126 129.96 41.8398 129.96 41.8398Z" fill="#FFB8B8"/>
<path d="M151.691 65.9628C151.691 65.9628 131.146 64.381 127.195 65.9628C123.244 67.5446 112.181 75.4539 112.181 75.4539L117.712 125.282L162.754 134.773L169.866 124.491L176.978 109.463L173.817 90.4814L173.027 79.4085L151.691 65.9628Z" fill="#D0CDE1"/>
<path d="M108.229 78.6172C108.229 78.6172 97.9561 80.99 97.1659 88.8992C96.3757 96.8084 96.3757 116.581 97.1659 119.745C97.9561 122.909 97.1659 124.491 96.3757 125.282C95.5855 126.072 94.0051 124.491 95.5855 126.863C97.1659 129.236 97.1659 129.236 96.3757 131.609C95.5855 133.982 93.2148 130.818 94.7953 134.773C96.3757 138.727 97.1659 139.518 96.3757 140.309C95.5855 141.1 93.2148 159.291 93.2148 159.291L106.648 161.664L120.082 115L108.229 78.6172Z" fill="#D0CDE1"/>
<path d="M169.865 78.6172C171.366 78.701 172.817 79.1853 174.068 80.0197C175.318 80.8542 176.323 82.0085 176.977 83.3627C179.348 88.1082 185.67 118.954 184.879 121.327C184.089 123.7 182.509 120.536 184.089 125.282C185.67 130.027 184.089 129.236 184.879 132.4C185.67 135.563 181.719 132.4 184.879 135.563C188.04 138.727 189.621 139.518 188.04 141.1C186.46 142.682 184.089 139.518 186.46 142.682C188.831 145.845 188.831 150.591 188.831 150.591L169.865 154.546L164.334 110.254L169.865 78.6172Z" fill="#D0CDE1"/>
<path d="M172.398 155.845L173.344 170.419C162.684 175.587 150.99 178.262 139.146 178.241C127.302 178.219 115.617 175.503 104.976 170.296C103.142 169.4 101.35 168.431 99.6025 167.39C100.209 165.156 100.823 162.93 101.451 160.747C101.899 159.192 102.352 157.662 102.809 156.156C106.356 144.539 110.176 134.657 113.759 130.819C113.759 130.819 113.759 122.122 115.34 121.327C115.918 121.031 116.51 120.098 117.016 119.028C117.605 117.722 118.102 116.377 118.504 115.002L115.889 108.915L104.189 81.6474C103.856 80.8674 103.832 79.9896 104.124 79.1931C104.415 78.3965 104.999 77.7412 105.756 77.3606L109.635 75.416C110.027 75.2208 110.455 75.1051 110.893 75.0758C111.331 75.0465 111.77 75.104 112.185 75.2451C112.601 75.3861 112.984 75.608 113.314 75.8978C113.643 76.1877 113.912 76.5398 114.105 76.9341L131.938 113.419L151.691 126.077L165.544 119.91L165.912 119.744C165.912 119.744 176.19 103.927 173.026 96.0185C171.676 92.6426 170.188 88.1317 168.909 84.0618C168.165 81.6618 167.501 79.4136 166.981 77.6497C166.899 77.3695 166.905 77.0709 166.999 76.7944C167.092 76.5178 167.268 76.2767 167.503 76.1039C167.738 75.931 168.021 75.8347 168.312 75.828C168.604 75.8213 168.891 75.9046 169.133 76.0666L171.827 77.8666C172.438 78.2765 172.921 78.8502 173.221 79.522C173.346 79.7845 173.438 80.0612 173.496 80.3461L179.346 108.676L171.445 125.281V141.098L171.993 149.592L172.282 154.038L172.398 155.845Z" fill="#2F2E41"/>
<path d="M165.716 14.2421L147.612 4.75L122.61 8.6329L117.438 31.5L130.314 31.0043L133.911 22.6032V30.8659L139.852 30.6372L143.301 17.2621L145.457 31.5L166.578 31.0686L165.716 14.2421Z" fill="#2F2E41"/>
<path d="M122.848 37.6875C124.157 37.6875 125.219 35.8284 125.219 33.5351C125.219 31.2419 124.157 29.3828 122.848 29.3828C121.539 29.3828 120.478 31.2419 120.478 33.5351C120.478 35.8284 121.539 37.6875 122.848 37.6875Z" fill="#FFB8B8"/>
<path d="M355.459 86.9197C361.296 86.9197 366.028 82.1837 366.028 76.3417C366.028 70.4996 361.296 65.7637 355.459 65.7637C349.622 65.7637 344.891 70.4996 344.891 76.3417C344.891 82.1837 349.622 86.9197 355.459 86.9197Z" fill="#FF6584"/>
<path d="M387.493 270.779H589V99.4529L387.493 99.4529V270.779Z" fill="#15CC86"/>
<path d="M557.592 248.019H353.898V74.5039H557.592V248.019ZM356.085 245.83H555.405V76.6929H356.085V245.83Z" fill="#3F3D56"/>
<path d="M533.21 127.569C533.207 141.684 529.383 155.534 522.146 167.647C514.908 179.761 504.527 189.686 492.106 196.368C491.176 196.871 490.225 197.364 489.263 197.824C478.607 203.005 466.912 205.686 455.066 205.666C443.22 205.645 431.534 202.922 420.897 197.703C419.06 196.806 417.278 195.832 415.528 194.792C413.746 193.752 412.018 192.636 410.345 191.443C399.326 183.689 390.501 173.212 384.728 161.03C378.955 148.849 376.432 135.38 377.405 121.933C378.377 108.487 382.811 95.5209 390.276 84.2987C397.74 73.0764 407.981 63.9798 420 57.8947C422.341 56.7017 424.757 55.6291 427.229 54.6659C429.736 53.7068 432.291 52.8775 434.883 52.1815C437.147 51.5686 439.454 51.0578 441.805 50.6492C442.483 50.5288 443.172 50.4194 443.861 50.3209C447.62 49.7749 451.413 49.5006 455.211 49.5C456.13 49.5 457.048 49.5109 457.967 49.5547C458.634 49.5657 459.312 49.5985 459.979 49.6423C466.64 50.0446 473.222 51.3026 479.563 53.3854C479.913 53.4949 480.252 53.6043 480.591 53.7247C481.16 53.9217 481.728 54.1296 482.286 54.3376C484.254 55.06 486.175 55.8626 488.049 56.7454C490.148 57.7195 492.193 58.7885 494.183 59.9522C506.052 66.7949 515.91 76.6484 522.761 88.5195C529.613 100.391 533.217 113.86 533.21 127.569Z" fill="#3F3D56"/>
<path d="M489.184 33.6175C480.405 18.7695 463.035 18.0775 463.035 18.0775C463.035 18.0775 446.109 15.9111 435.252 38.5248C425.131 59.6026 411.164 79.9537 433.003 84.8879L436.948 72.5991L439.391 85.8028C442.5 86.0266 445.619 86.08 448.735 85.9626C472.122 85.2068 494.396 86.1837 493.678 77.7837C492.725 66.617 497.632 47.9042 489.184 33.6175Z" fill="#2F2E41"/>
<path d="M443.656 174.767L436.723 168.166L422.519 149.887L412.212 154.734L428.945 176.29L436.195 185.884L436.216 185.937C436.216 185.937 448.053 200.154 456.17 194.061C464.286 187.968 443.656 174.767 443.656 174.767Z" fill="#A0616A"/>
<path d="M503.517 152.087L496.584 145.486L488.806 153.61L496.056 163.204L496.077 163.258C496.077 163.258 507.914 177.475 516.03 171.382C524.147 165.289 503.517 152.087 503.517 152.087Z" fill="#A0616A"/>
<path d="M489.145 136.348L501.32 147.518L493.541 151.919L482.381 138.379L489.145 136.348Z" fill="#CFCCE0"/>
<path d="M489.821 83.8786C489.821 83.8786 494.556 79.8165 496.585 93.0181C498.614 106.22 493.203 110.959 493.203 110.959L489.821 83.8786Z" fill="#CFCCE0"/>
<path d="M461.751 69.3245C471.65 69.3245 479.675 61.2922 479.675 51.3839C479.675 41.4756 471.65 33.4434 461.751 33.4434C451.851 33.4434 443.826 41.4756 443.826 51.3839C443.826 61.2922 451.851 69.3245 461.751 69.3245Z" fill="#A0616A"/>
<path d="M450.928 61.5391C450.928 61.5391 448.56 73.0481 439.091 74.4021C429.621 75.7561 414.741 80.4951 416.77 89.6346C418.799 98.7741 475.616 97.7586 475.616 97.7586L485.762 82.1876C485.762 82.1876 464.794 76.7716 466.823 64.5856L450.928 61.5391Z" fill="#A0616A"/>
<path d="M478.829 79.648C478.829 79.648 465.471 89.6338 434.018 88.9568C434.018 88.9568 416.244 91.8236 418.875 82.6047C418.875 82.6047 416.77 79.4788 414.741 89.2953C412.712 99.1118 397.493 132.623 398.846 133.977L403.919 139.055L415.079 160.719L426.916 153.949L422.858 145.148C422.858 145.148 430.636 151.579 434.356 142.101C434.356 142.101 437.4 151.241 443.826 151.579C450.252 151.918 491.85 140.07 491.85 140.07C491.85 140.07 489.482 130.592 491.85 126.53C494.217 122.468 497.937 114.344 496.246 108.251L493.203 83.8793C493.203 83.8793 480.52 78.6325 478.829 79.648Z" fill="#CFCCE0"/>
<path d="M515.189 171.894V171.927L514.828 177.903C508.487 185.439 500.777 191.704 492.105 196.367C491.176 196.87 490.224 197.363 489.262 197.822C472.434 205.978 453.243 207.83 435.167 203.043L436.381 197.954C436.14 194.021 436.148 190.076 436.403 186.144C436.679 180.886 437.687 175.691 439.399 170.712C442.1 163.291 445.522 160.719 445.522 160.719L444.396 151.581L444.33 151.066L484.221 140.603L490.159 139.049C490.159 139.049 490.301 139.574 490.629 140.417C491.568 142.989 492.924 145.389 494.642 147.52C495.371 148.404 496.196 149.205 497.103 149.906C497.579 150.277 498.084 150.61 498.612 150.902C504.702 154.284 515.189 171.894 515.189 171.894Z" fill="#2F2E41"/>
<path d="M485.302 32.8642L468.142 23.8672L444.444 27.548L439.541 49.2222L451.746 48.7519L455.156 40.7892V48.621L460.787 48.4039L464.056 35.7267L466.099 49.2222L486.119 48.8127L485.302 32.8642Z" fill="#2F2E41"/>
</svg>
