<svg width="586" height="507" viewBox="0 0 586 507" fill="none" xmlns="http://www.w3.org/2000/svg">
<g clip-path="url(#clip0)">
<path d="M142.798 81.9121C126.52 81.9121 114.669 94.0678 110.674 111.423L105.722 137.458H109.245L116.88 116.144L115.273 137.458H119.229L122.166 126.478L121.547 137.458H169.148V110.892C169.148 94.8867 157.351 81.9121 142.798 81.9121H142.798Z" fill="#2F2E41"/>
<path d="M121.286 221.668C121.286 221.668 97.2069 255.117 98.3815 268.614C99.5561 282.111 114.825 502.171 114.825 502.171L150.65 503.931L140.079 345.488L148.888 302.65L170.617 502.171L214.664 503.345L175.316 244.554L167.681 221.668L121.286 221.668Z" fill="#2F2E41"/>
<path d="M129.508 119.561C129.508 119.561 137.142 133.644 127.159 143.034C117.175 152.423 112.477 177.656 112.477 177.656L168.856 173.549L164.158 141.86C164.158 141.86 151.825 134.231 154.761 120.734L129.508 119.561Z" fill="#FFB8B8"/>
<path d="M120.111 157.117C120.111 157.117 123.635 167.68 138.904 166.506C148.2 165.731 157.121 162.49 164.744 157.117V225.776L117.762 224.015V182.351L120.111 157.117Z" fill="#15CC86"/>
<path d="M123.047 225.775L126.571 214.039C126.571 214.039 125.396 186.458 120.698 175.308C120.698 175.308 129.675 145.918 131.059 137.434L126.571 140.686L99.5557 153.596L108.952 202.302L115.412 212.865L108.719 240.617L123.047 225.775Z" fill="#3F3D56"/>
<path d="M145.951 223.43L159.459 150.076L155.752 131.885L166.506 142.448L187.648 148.903L177.665 204.064L171.792 215.801L174.696 242.134L145.951 223.43Z" fill="#3F3D56"/>
<path d="M199.981 272.723C199.981 272.723 205.854 297.956 194.108 300.89C182.362 303.824 186.473 272.723 186.473 272.723H199.981Z" fill="#FFB8B8"/>
<path d="M96.3906 246.531C96.3906 246.531 119.005 259.202 113.258 269.85C107.512 280.498 87.2871 256.502 87.2871 256.502L96.3906 246.531Z" fill="#FFB8B8"/>
<path d="M178.839 150.076L187.648 148.902C187.648 148.902 192.933 155.944 193.521 161.226C194.108 166.507 203.505 255.705 203.505 255.705C204.181 257.652 203.513 259.563 202.917 275.657L201.155 282.699C201.155 282.699 197.632 269.202 184.124 276.244L182.362 268.028C182.362 268.028 178.839 236.926 178.839 222.256C178.839 207.585 177.664 191.741 177.664 191.741L178.839 150.076Z" fill="#3F3D56"/>
<path d="M136.293 506.184C140.906 506.184 144.644 504.783 144.644 503.055C144.644 501.327 140.906 499.926 136.293 499.926C131.681 499.926 127.942 501.327 127.942 503.055C127.942 504.783 131.681 506.184 136.293 506.184Z" fill="#2F2E41"/>
<path d="M192.664 506.184C197.276 506.184 201.015 504.783 201.015 503.055C201.015 501.327 197.276 499.926 192.664 499.926C188.051 499.926 184.312 501.327 184.312 503.055C184.312 504.783 188.051 506.184 192.664 506.184Z" fill="#2F2E41"/>
<path d="M106.016 153.01L99.5557 153.597L84.8737 210.519C84.8737 210.519 83.09 284.43 97.7939 270.375C97.7939 270.375 92.5083 255.117 106.016 249.836V218.734L110.714 191.74L106.016 153.01Z" fill="#3F3D56"/>
<path d="M162.395 116.919C162.881 116.919 163.276 115.605 163.276 113.985C163.276 112.364 162.881 111.051 162.395 111.051C161.908 111.051 161.514 112.364 161.514 113.985C161.514 115.605 161.908 116.919 162.395 116.919Z" fill="#FFB8B8"/>
<path d="M122.46 116.919C122.947 116.919 123.341 115.605 123.341 113.985C123.341 112.364 122.947 111.051 122.46 111.051C121.974 111.051 121.579 112.364 121.579 113.985C121.579 115.605 121.974 116.919 122.46 116.919Z" fill="#FFB8B8"/>
<path d="M142.427 131.883C153.131 131.883 161.808 123.213 161.808 112.518C161.808 101.822 153.131 93.1523 142.427 93.1523C131.724 93.1523 123.047 101.822 123.047 112.518C123.047 123.213 131.724 131.883 142.427 131.883Z" fill="#FFB8B8"/>
<path d="M133.911 102.25L133.416 106.944H146.832L148.594 103.423L148.222 106.944H164.451L153.292 89.3398L128.626 89.9264L122.753 106.944H131.563L133.911 102.25Z" fill="#2F2E41"/>
<path d="M429.019 322.742C342.46 322.742 272.039 252.375 272.039 165.883C272.039 79.3916 342.46 9.02539 429.019 9.02539C515.579 9.02539 586 79.3916 586 165.883C586 252.375 515.579 322.742 429.019 322.742ZM429.019 10.5409C343.297 10.5409 273.556 80.2271 273.556 165.883C273.556 251.54 343.297 321.226 429.019 321.226C514.742 321.226 584.483 251.54 584.483 165.883C584.483 80.2271 514.742 10.5409 429.019 10.5409Z" fill="#E6E6E6"/>
<path d="M429.02 278.792C366.714 278.792 316.024 228.142 316.024 165.884C316.024 103.627 366.714 52.9766 429.02 52.9766C491.326 52.9766 542.015 103.627 542.015 165.884C542.015 228.142 491.326 278.792 429.02 278.792ZM429.02 54.4921C367.551 54.4921 317.541 104.462 317.541 165.884C317.541 227.306 367.551 277.276 429.02 277.276C490.489 277.276 540.499 227.306 540.499 165.884C540.499 104.462 490.489 54.4921 429.02 54.4921Z" fill="#E6E6E6"/>
<path d="M429.02 234.342C415.47 234.342 402.224 230.327 390.957 222.804C379.691 215.282 370.909 204.59 365.724 192.081C360.538 179.572 359.182 165.808 361.825 152.528C364.469 139.249 370.994 127.051 380.575 117.477C390.157 107.903 402.364 101.383 415.654 98.7412C428.944 96.0997 442.719 97.4554 455.238 102.637C467.757 107.818 478.457 116.593 485.985 127.85C493.513 139.108 497.531 152.344 497.532 165.884C497.511 184.034 490.286 201.434 477.442 214.268C464.598 227.102 447.184 234.321 429.02 234.342ZM429.02 98.9414C415.77 98.9414 402.817 102.868 391.8 110.223C380.783 117.579 372.196 128.034 367.125 140.266C362.054 152.498 360.728 165.958 363.313 178.944C365.898 191.929 372.279 203.857 381.648 213.219C391.017 222.581 402.955 228.957 415.95 231.54C428.946 234.123 442.416 232.797 454.658 227.73C466.9 222.664 477.363 214.084 484.724 203.075C492.086 192.066 496.015 179.124 496.015 165.884C495.995 148.136 488.93 131.12 476.37 118.57C463.811 106.021 446.782 98.9614 429.02 98.9414Z" fill="#E6E6E6"/>
<path d="M429.02 200.646C448.233 200.646 463.808 185.083 463.808 165.884C463.808 146.686 448.233 131.123 429.02 131.123C409.807 131.123 394.231 146.686 394.231 165.884C394.231 185.083 409.807 200.646 429.02 200.646Z" fill="#15CC86"/>
<path d="M453.907 22.0438C459.999 22.0438 464.938 17.1091 464.938 11.0219C464.938 4.93468 459.999 0 453.907 0C447.815 0 442.877 4.93468 442.877 11.0219C442.877 17.1091 447.815 22.0438 453.907 22.0438Z" fill="#15CC86"/>
<path d="M315.602 284.026C321.694 284.026 326.632 279.092 326.632 273.004C326.632 266.917 321.694 261.982 315.602 261.982C309.51 261.982 304.571 266.917 304.571 273.004C304.571 279.092 309.51 284.026 315.602 284.026Z" fill="#15CC86"/>
<path d="M317.118 189.306C323.21 189.306 328.149 184.371 328.149 178.284C328.149 172.196 323.21 167.262 317.118 167.262C311.026 167.262 306.088 172.196 306.088 178.284C306.088 184.371 311.026 189.306 317.118 189.306Z" fill="#E6E6E6"/>
<path d="M523.392 115.044C529.484 115.044 534.422 110.109 534.422 104.022C534.422 97.9347 529.484 93 523.392 93C517.3 93 512.361 97.9347 512.361 104.022C512.361 110.109 517.3 115.044 523.392 115.044Z" fill="#E6E6E6"/>
<path d="M566.618 252.2C572.71 252.2 577.649 247.265 577.649 241.178C577.649 235.091 572.71 230.156 566.618 230.156C560.526 230.156 555.588 235.091 555.588 241.178C555.588 247.265 560.526 252.2 566.618 252.2Z" fill="#E6E6E6"/>
<path d="M534.515 203.481C540.607 203.481 545.545 198.547 545.545 192.459C545.545 186.372 540.607 181.438 534.515 181.438C528.423 181.438 523.484 186.372 523.484 192.459C523.484 198.547 528.423 203.481 534.515 203.481Z" fill="#15CC86"/>
<path d="M292.693 98.3485C298.785 98.3485 303.723 93.4138 303.723 87.3266C303.723 81.2394 298.785 76.3047 292.693 76.3047C286.601 76.3047 281.662 81.2394 281.662 87.3266C281.662 93.4138 286.601 98.3485 292.693 98.3485Z" fill="#15CC86"/>
<path d="M470.029 328.114C476.121 328.114 481.06 323.18 481.06 317.092C481.06 311.005 476.121 306.07 470.029 306.07C463.938 306.07 458.999 311.005 458.999 317.092C458.999 323.18 463.938 328.114 470.029 328.114Z" fill="#15CC86"/>
<path d="M7.09216 490.592C18.0274 505.225 40.7269 506.765 40.7269 506.765C40.7269 506.765 45.6968 484.58 34.7615 469.947C23.8263 455.314 1.12681 453.773 1.12681 453.773C1.12681 453.773 -3.84311 475.958 7.09216 490.592Z" fill="#E6E6E6"/>
<path d="M62.7985 496.092C55.5826 505.748 40.6039 506.765 40.6039 506.765C40.6039 506.765 37.3244 492.125 44.5403 482.469C51.7561 472.813 66.7348 471.797 66.7348 471.797C66.7348 471.797 70.0143 486.436 62.7985 496.092Z" fill="#E6E6E6"/>
<path d="M509.751 505.303H6.2002V507.001H509.751V505.303Z" fill="#3F3D56"/>
</g>
<defs>
<clipPath id="clip0">
<rect width="586" height="507" fill="white"/>
</clipPath>
</defs>
</svg>
