<svg width="590" height="453" viewBox="0 0 590 453" fill="none" xmlns="http://www.w3.org/2000/svg">
<g clip-path="url(#clip0)">
<path d="M310.144 16.1543H159.918V178.891H310.144V16.1543Z" fill="#F2F2F2"/>
<path d="M325.287 0.597656H175.062V163.334H325.287V0.597656Z" stroke="#3F3D56" stroke-width="2" stroke-miterlimit="10"/>
<path d="M191.036 144.975H182.937V152.975H191.036V144.975Z" fill="#15CC86"/>
<path d="M202.735 144.975H194.636V152.975H202.735V144.975Z" fill="#3F3D56"/>
<path d="M214.436 144.975H206.336V152.975H214.436V144.975Z" fill="#575A89"/>
<path d="M305.298 148.449H273.799V149.71H305.298V148.449Z" fill="#3F3D56"/>
<path d="M305.298 152.234H273.799V153.496H305.298V152.234Z" fill="#3F3D56"/>
<path d="M305.298 156.018H273.799V157.279H305.298V156.018Z" fill="#3F3D56"/>
<path d="M250.175 29.3164V42.4789C258.082 42.4789 265.812 44.7948 272.386 49.1338C278.961 53.4727 284.085 59.6398 287.111 66.8552C290.137 74.0706 290.929 82.0102 289.386 89.6701C287.843 97.3299 284.036 104.366 278.445 109.888L287.868 119.196C295.323 111.832 300.4 102.451 302.457 92.238C304.513 82.0248 303.458 71.4387 299.423 61.8181C295.388 52.1976 288.556 43.9748 279.79 38.1895C271.024 32.4043 260.718 29.3164 250.175 29.3164Z" fill="#3F3D56"/>
<path d="M287.867 119.196L278.444 109.889C271.609 116.641 262.527 120.718 252.882 121.364C243.237 122.01 233.681 119.181 225.986 113.402L217.92 123.884C228.182 131.588 240.923 135.358 253.784 134.496C266.644 133.634 278.753 128.199 287.867 119.196Z" fill="#575A89"/>
<path d="M210.195 81.9665C210.195 71.4937 214.407 61.4499 221.904 54.0446C229.402 46.6392 239.571 42.4789 250.174 42.4789V29.3164C239.015 29.3163 228.137 32.7751 219.074 39.2053C210.011 45.6355 203.22 54.7129 199.658 65.1578C196.095 75.6028 195.941 86.8886 199.218 97.4245C202.494 107.96 209.035 117.215 217.92 123.884L225.986 113.401C221.075 109.722 217.093 104.969 214.353 99.5152C211.614 94.0613 210.19 88.0548 210.195 81.9665Z" fill="#15CC86"/>
<path d="M350.197 345.158C346.21 345.158 342.262 344.382 338.578 342.875C334.895 341.368 331.548 339.159 328.729 336.375C325.909 333.59 323.673 330.284 322.147 326.646C320.621 323.007 319.836 319.108 319.836 315.17V280.243C319.836 210.357 377.195 153.703 447.952 153.703H447.952C518.709 153.703 576.068 210.357 576.068 280.243V307.701C576.068 312.62 575.087 317.49 573.181 322.035C571.275 326.579 568.482 330.709 564.96 334.187C561.439 337.665 557.258 340.424 552.657 342.307C548.056 344.189 543.124 345.158 538.144 345.158" fill="#F2F2F2"/>
<path d="M550.864 382.849V381.653C560.758 381.641 570.244 377.755 577.24 370.845C584.236 363.935 588.171 354.566 588.182 344.794V273.062C588.182 203.617 530.981 147.12 460.672 147.12C390.362 147.12 333.162 203.617 333.162 273.062V352.263C333.171 360.055 336.308 367.525 341.887 373.035C347.465 378.544 355.028 381.644 362.917 381.653V382.849C354.707 382.84 346.836 379.614 341.031 373.88C335.225 368.146 331.959 360.372 331.95 352.263V273.062C331.95 202.958 389.695 145.924 460.672 145.924C531.649 145.924 589.394 202.958 589.394 273.062V344.794C589.382 354.883 585.319 364.556 578.096 371.69C570.873 378.825 561.079 382.838 550.864 382.849Z" fill="#3F3D56"/>
<path d="M590 336.781H331.345V442.082H590V336.781Z" fill="#3F3D56"/>
<path d="M500.198 228.546L475.513 245.879L493.062 270.26L517.747 252.927L500.198 228.546Z" fill="#15CC86"/>
<path d="M502.184 222.012L477.499 239.346L495.048 263.727L519.733 246.394L502.184 222.012Z" stroke="#3F3D56" stroke-width="2" stroke-miterlimit="10"/>
<path d="M454.313 217.123C461.338 217.123 467.033 211.497 467.033 204.558C467.033 197.619 461.338 191.994 454.313 191.994C447.287 191.994 441.592 197.619 441.592 204.558C441.592 211.497 447.287 217.123 454.313 217.123Z" fill="#15CC86"/>
<path d="M450.678 215.328C457.703 215.328 463.399 209.702 463.399 202.763C463.399 195.824 457.703 190.199 450.678 190.199C443.652 190.199 437.957 195.824 437.957 202.763C437.957 209.702 443.652 215.328 450.678 215.328Z" stroke="#3F3D56" stroke-width="2" stroke-miterlimit="10"/>
<path d="M416.716 254.766L431.941 263.421L447.165 272.077L431.963 280.772L416.762 289.467L416.739 272.116L416.716 254.766Z" fill="#15CC86"/>
<path d="M414.269 261.336L429.493 269.992L444.718 278.648L429.516 287.343L414.314 296.037L414.291 278.687L414.269 261.336Z" stroke="#3F3D56" stroke-width="2" stroke-miterlimit="10"/>
<path d="M354.627 226.589C356.936 218.444 361.201 210.969 367.06 204.8C372.919 198.631 380.199 193.95 388.282 191.154C390.481 190.407 389.536 186.939 387.315 187.692C378.632 190.666 370.806 195.669 364.504 202.276C358.202 208.883 353.611 216.897 351.123 225.635C350.499 227.865 354.005 228.817 354.627 226.589V226.589Z" fill="white"/>
<path d="M347.734 246.193C350.073 246.193 350.076 242.604 347.734 242.604C345.395 242.604 345.391 246.193 347.734 246.193Z" fill="white"/>
<path d="M196.779 209.122L140.195 191.389L118.21 259.822L174.794 277.555L196.779 209.122Z" fill="#F2F2F2"/>
<path d="M170.709 214.069L148.492 207.105L148.102 208.319L170.319 215.282L170.709 214.069Z" fill="#3F3D56"/>
<path d="M180.106 219.479L147.772 209.346L147.382 210.56L179.716 220.693L180.106 219.479Z" fill="#3F3D56"/>
<path d="M168.25 221.725L146.033 214.762L145.643 215.976L167.86 222.939L168.25 221.725Z" fill="#3F3D56"/>
<path d="M165.371 230.69L143.153 223.727L142.763 224.94L164.981 231.904L165.371 230.69Z" fill="#3F3D56"/>
<path d="M177.647 227.137L145.313 217.004L144.923 218.218L177.257 228.351L177.647 227.137Z" fill="#3F3D56"/>
<path d="M176.926 229.378L144.593 219.244L144.203 220.458L176.536 230.591L176.926 229.378Z" fill="#3F3D56"/>
<path d="M176.206 231.618L143.873 221.484L143.483 222.698L175.816 232.832L176.206 231.618Z" fill="#3F3D56"/>
<path d="M153.042 232.787L141.413 229.143L140.393 232.317L152.022 235.962L153.042 232.787Z" fill="#15CC86"/>
<path d="M79.3532 453C123.179 453 158.706 448.447 158.706 442.829C158.706 437.212 123.179 432.658 79.3532 432.658C35.5276 432.658 0 437.212 0 442.829C0 448.447 35.5276 453 79.3532 453Z" fill="#3F3D56"/>
<path d="M41.8713 161.256L39.2354 167.439L42.2008 207.468C42.2008 207.468 40.5533 209.746 42.2008 211.373C43.8482 213 43.5187 213.651 43.5187 213.651C43.5187 213.651 40.8828 213.651 42.2008 215.604C43.5187 217.556 43.5187 218.533 43.5187 218.533L42.8597 220.485C42.8597 220.485 44.1777 222.113 44.1777 223.414C44.1777 224.716 52.7445 264.745 52.7445 264.745L60.9817 248.798L56.3689 185.338L41.8713 161.256Z" fill="#15CC86"/>
<path d="M126.455 263.048C126.455 263.048 144.445 262.331 150.181 268.599C155.917 274.867 127.646 270.332 126.047 268.566C124.448 266.8 126.455 263.048 126.455 263.048Z" fill="#FFB9B9"/>
<path d="M37.588 420.955L33.9636 432.671C33.9636 432.671 28.6918 444.061 35.9405 445.688C43.1893 447.316 50.1087 441.132 50.1087 441.132V433.322L52.7446 420.955H37.588Z" fill="#2F2E41"/>
<path d="M96.896 420.955C96.896 420.955 95.2486 443.085 98.873 444.387C102.497 445.688 115.348 446.014 115.677 444.387C116.007 442.759 119.961 441.132 116.995 438.854C114.03 436.576 112.053 423.233 112.053 423.233L96.896 420.955Z" fill="#2F2E41"/>
<path d="M63.6174 211.374V221.137C63.6174 221.137 52.7442 243.592 48.7903 279.065C44.8364 314.537 31.3273 422.583 34.6222 424.535C37.9171 426.488 73.5022 427.79 74.4906 425.186C75.4791 422.583 76.4676 346.43 76.4676 346.43L88.6588 292.733C88.6588 292.733 90.9652 311.934 92.9422 315.188C94.9191 318.443 89.6472 424.21 92.9422 425.837C96.2371 427.464 140.718 430.393 140.059 425.186C139.4 419.979 124.573 278.739 124.573 278.739C124.573 278.739 116.995 212.024 114.689 211.374C112.382 210.723 91.2947 210.072 87.9998 210.723C84.7049 211.374 63.6174 211.374 63.6174 211.374Z" fill="#2F2E41"/>
<path d="M88.6599 130.664C99.0323 130.664 107.441 122.359 107.441 112.114C107.441 101.87 99.0323 93.5645 88.6599 93.5645C78.2874 93.5645 69.8789 101.87 69.8789 112.114C69.8789 122.359 78.2874 130.664 88.6599 130.664Z" fill="#FFB9B9"/>
<path d="M92.6127 127.737C92.6127 127.737 83.0574 142.382 85.3639 146.287C87.6703 150.192 60.9814 142.382 60.9814 142.382C60.9814 142.382 77.1266 122.856 76.7971 120.577C76.4676 118.299 92.6127 127.737 92.6127 127.737Z" fill="#FFB9B9"/>
<path d="M112.382 149.541C112.382 149.541 94.9194 144.008 92.6129 141.73C91.1333 140.238 89.8088 138.602 88.659 136.849C88.659 136.849 67.5716 133.92 66.9126 133.92C66.2537 133.92 61.3113 139.778 59.9933 141.08C58.6754 142.381 41.8713 151.168 41.8713 153.446C41.8713 155.724 39.2354 167.44 39.2354 167.44C39.2354 167.44 45.1662 179.481 48.7906 182.085C52.415 184.688 53.4035 184.037 53.733 188.268C54.0625 192.499 58.6754 199.333 58.6754 199.333C58.6754 199.333 61.6408 206.818 60.9818 209.096C60.3228 211.374 57.3574 213.327 64.2767 212.676C71.196 212.025 105.463 213.977 105.463 210.398C105.463 206.818 98.8733 172.647 98.8733 172.647L112.382 149.541Z" fill="#15CC86"/>
<path d="M106.122 150.192L112.383 149.541C112.383 149.541 114.689 150.843 115.018 163.535C115.348 176.227 115.348 206.818 117.654 209.422C119.961 212.025 129.516 252.379 129.516 252.379C129.516 252.379 132.152 253.03 132.152 255.308C132.152 257.586 135.117 259.539 133.799 262.142C132.481 264.746 135.117 264.095 133.47 265.722C131.823 267.349 123.915 270.604 123.585 268.651C123.256 266.699 124.574 266.373 123.256 265.722C121.938 265.071 121.938 264.746 121.608 262.468C121.279 260.19 118.313 257.912 118.643 256.935C118.972 255.959 104.145 227.646 104.145 226.67C104.145 225.693 103.157 222.114 101.839 221.463C100.521 220.812 98.5439 220.161 99.5324 218.534C100.521 216.907 96.8965 168.091 96.8965 168.091L106.122 150.192Z" fill="#15CC86"/>
<path d="M104.541 100.352C98.7819 94.1776 89.7375 90.9002 81.4433 92.7369C73.1491 94.5735 66.165 101.847 65.5164 110.218C65.3837 111.93 65.4942 113.679 65.0456 115.338C64.2911 118.129 62.046 120.341 61.2545 123.122C60.7243 124.984 60.8815 126.989 60.3196 128.843C59.2814 132.267 56.0679 134.5 53.6187 137.132C52.6268 138.097 51.8902 139.287 51.4737 140.599C51.2583 141.762 51.2037 142.949 51.3114 144.127C51.4146 150.476 49.0249 156.617 44.6436 161.263C47.2198 159.373 50.0031 157.775 52.941 156.499C51.4848 161.079 52.8161 166.499 56.4802 169.653C60.1442 172.807 66.0128 173.297 69.9745 170.516C72.328 168.864 73.8567 166.328 75.3167 163.867L80.8447 154.551C81.8446 152.866 82.8885 151.132 84.4861 149.981C85.7558 149.066 87.2984 148.58 88.5765 147.677C91.8004 145.398 92.666 140.939 92.0657 137.069C91.4654 133.198 89.7033 129.605 88.6926 125.819C87.8933 122.825 87.6425 119.393 89.4407 116.856C91.8277 113.489 96.7332 113.059 99.9767 110.483C101.198 109.514 101.743 108.334 102.618 107.12C103.425 105.999 103.631 106.401 104.882 106.35C108.317 106.209 105.814 101.717 104.541 100.352Z" fill="#2F2E41"/>
<path d="M88.1364 122.142C88.9728 122.142 89.6508 120.535 89.6508 118.553C89.6508 116.57 88.9728 114.963 88.1364 114.963C87.3001 114.963 86.6221 116.57 86.6221 118.553C86.6221 120.535 87.3001 122.142 88.1364 122.142Z" fill="#FFB9B9"/>
<path d="M255.021 377.465C265.726 377.465 274.405 368.893 274.405 358.319C274.405 347.746 265.726 339.174 255.021 339.174C244.315 339.174 235.637 347.746 235.637 358.319C235.637 368.893 244.315 377.465 255.021 377.465Z" fill="#F2F2F2"/>
<path d="M61.1799 48.4023C71.8853 48.4023 80.5638 39.8305 80.5638 29.2568C80.5638 18.683 71.8853 10.1113 61.1799 10.1113C50.4744 10.1113 41.7959 18.683 41.7959 29.2568C41.7959 39.8305 50.4744 48.4023 61.1799 48.4023Z" fill="#F2F2F2"/>
<path d="M467.032 93.2753C477.738 93.2753 486.416 84.7036 486.416 74.1298C486.416 63.5561 477.738 54.9844 467.032 54.9844C456.327 54.9844 447.648 63.5561 447.648 74.1298C447.648 84.7036 456.327 93.2753 467.032 93.2753Z" fill="#F2F2F2"/>
</g>
<defs>
<clipPath id="clip0">
<rect width="590" height="453" fill="white"/>
</clipPath>
</defs>
</svg>
