<svg width="588" height="498" viewBox="0 0 588 498" fill="none" xmlns="http://www.w3.org/2000/svg">
<g clip-path="url(#clip0)">
<path d="M228.151 12.824L230.463 9.39614C229.778 7.57916 228.986 5.80073 228.091 4.06931L226.596 5.22772L227.78 3.47268C226.652 1.34227 225.764 0 225.764 0C225.764 0 221.127 7.0098 219.578 14.4316L222.545 18.8303L219.26 16.2853C219.143 17.1499 219.083 18.0206 219.08 18.8924C219.08 27.6823 222.073 34.8079 225.764 34.8079C229.456 34.8079 232.448 27.6823 232.448 18.8924C232.379 16.0959 231.863 13.3261 230.919 10.6794L228.151 12.824Z" fill="#E6E6E6"/>
<path d="M244.517 20.445L248.679 19.5895C249.533 17.8396 250.284 16.0449 250.928 14.2138L249.017 14.0188L251.148 13.5808C251.92 11.3091 252.282 9.75781 252.282 9.75781C252.282 9.75781 243.836 11.5691 237.27 15.7662L236.126 20.8891L235.679 16.8616C234.959 17.3935 234.275 17.9684 233.63 18.5828C227.151 24.7982 224.014 31.8667 226.625 34.3707C229.235 36.8748 236.603 33.8661 243.082 27.6508C245.095 25.6263 246.772 23.318 248.055 20.8061L244.517 20.445Z" fill="#E6E6E6"/>
<path d="M246.037 54.4575C236.387 55.0497 225.872 54.423 214.686 54.4575V29.8887C224.542 31.3607 235.054 31.2095 246.037 29.8887V54.4575Z" fill="#E6E6E6"/>
<path d="M315.077 73.6131L316.585 71.3776C316.138 70.1927 315.621 69.0329 315.038 67.9038L314.063 68.6592L314.835 67.5147C314.099 66.1253 313.52 65.25 313.52 65.25C311.663 68.1616 310.301 71.3386 309.486 74.6614L311.421 77.53L309.279 75.8703C309.202 76.4342 309.163 77.002 309.161 77.5706C309.161 83.3028 311.113 87.9497 313.52 87.9497C315.928 87.9497 317.879 83.3028 317.879 77.5706C317.834 75.7468 317.498 73.9405 316.882 72.2145L315.077 73.6131Z" fill="#E6E6E6"/>
<path d="M325.751 78.5829L328.465 78.025C329.022 76.8838 329.511 75.7134 329.931 74.5193L328.685 74.392L330.075 74.1064C330.578 72.6249 330.814 71.6133 330.814 71.6133C327.355 72.412 324.05 73.7347 321.024 75.5316L320.278 78.8725L319.987 76.2459C319.517 76.5929 319.071 76.9678 318.65 77.3685C314.425 81.4218 312.38 86.0314 314.082 87.6644C315.784 89.2974 320.59 87.3353 324.815 83.282C326.127 81.9618 327.221 80.4564 328.058 78.8183L325.751 78.5829Z" fill="#E6E6E6"/>
<path d="M326.742 100.765C320.448 101.151 313.591 100.742 306.296 100.765V84.7422C313.078 85.6535 319.959 85.6535 326.742 84.7422V100.765Z" fill="#E6E6E6"/>
<path d="M322.855 148.249C317.298 148.59 311.243 148.23 304.802 148.249V134.102C310.79 134.906 316.867 134.906 322.855 134.102V148.249Z" fill="#E6E6E6"/>
<path d="M354.564 52.7285H111.628V59.2383H354.564V52.7285Z" fill="#E6E6E6"/>
<path d="M354.564 98.9473H111.628V105.457H354.564V98.9473Z" fill="#E6E6E6"/>
<path d="M354.564 145.168H111.628V151.678H354.564V145.168Z" fill="#E6E6E6"/>
<path d="M313.848 139.308C321.344 139.308 327.42 133.479 327.42 126.289C327.42 119.099 321.344 113.27 313.848 113.27C306.353 113.27 300.276 119.099 300.276 126.289C300.276 133.479 306.353 139.308 313.848 139.308Z" fill="#E6E6E6"/>
<path d="M313.849 136.704C319.845 136.704 324.706 132.041 324.706 126.289C324.706 120.536 319.845 115.873 313.849 115.873C307.852 115.873 302.991 120.536 302.991 126.289C302.991 132.041 307.852 136.704 313.849 136.704Z" fill="white"/>
<path d="M313.849 128.893C315.348 128.893 316.564 127.728 316.564 126.289C316.564 124.851 315.348 123.686 313.849 123.686C312.35 123.686 311.135 124.851 311.135 126.289C311.135 127.728 312.35 128.893 313.849 128.893Z" fill="#E6E6E6"/>
<path d="M323.35 126.941V125.639H312.492V126.941H323.35Z" fill="#E6E6E6"/>
<path d="M313.17 127.592H314.527V117.176H313.17V127.592Z" fill="#E6E6E6"/>
<path d="M235.374 67.1914H226.395V101.29H235.374V67.1914Z" fill="#E6E6E6"/>
<path d="M235.374 72.5762H226.395V76.5244H235.374V72.5762Z" fill="#CCCCCC"/>
<path d="M235.374 89.8047H226.395V93.7529H235.374V89.8047Z" fill="#CCCCCC"/>
<path d="M221.531 67.1914H212.551V101.29H221.531V67.1914Z" fill="#E6E6E6"/>
<path d="M221.531 72.5762H212.551V76.5244H221.531V72.5762Z" fill="#CCCCCC"/>
<path d="M221.531 89.8047H212.551V93.7529H221.531V89.8047Z" fill="#CCCCCC"/>
<path d="M243.112 67.0509L235.064 70.873L250.836 101.431L258.883 97.6094L243.112 67.0509Z" fill="#E6E6E6"/>
<path d="M245.602 71.8752L237.555 75.6973L239.381 79.2356L247.428 75.4135L245.602 71.8752Z" fill="#CCCCCC"/>
<path d="M253.571 87.3146L245.523 91.1367L247.35 94.6751L255.397 90.853L253.571 87.3146Z" fill="#CCCCCC"/>
<path d="M155.3 113.41H146.32V147.509H155.3V113.41Z" fill="#E6E6E6"/>
<path d="M155.3 118.795H146.32V122.743H155.3V118.795Z" fill="#CCCCCC"/>
<path d="M155.3 136.023H146.32V139.972H155.3V136.023Z" fill="#CCCCCC"/>
<path d="M141.457 113.41H132.478V147.509H141.457V113.41Z" fill="#E6E6E6"/>
<path d="M141.457 118.795H132.478V122.743H141.457V118.795Z" fill="#CCCCCC"/>
<path d="M141.457 136.023H132.478V139.972H141.457V136.023Z" fill="#CCCCCC"/>
<path d="M163.038 113.27L154.99 117.092L170.761 147.65L178.809 143.828L163.038 113.27Z" fill="#E6E6E6"/>
<path d="M165.528 118.094L157.48 121.916L159.307 125.454L167.354 121.632L165.528 118.094Z" fill="#CCCCCC"/>
<path d="M173.497 133.535L165.449 137.357L167.275 140.896L175.323 137.074L173.497 133.535Z" fill="#CCCCCC"/>
<path d="M239.446 113.41H230.466V147.509H239.446V113.41Z" fill="#E6E6E6"/>
<path d="M239.446 118.795H230.466V122.743H239.446V118.795Z" fill="#CCCCCC"/>
<path d="M239.446 136.023H230.466V139.972H239.446V136.023Z" fill="#CCCCCC"/>
<path d="M225.602 113.41H216.622V147.509H225.602V113.41Z" fill="#E6E6E6"/>
<path d="M225.602 118.795H216.622V122.743H225.602V118.795Z" fill="#CCCCCC"/>
<path d="M225.602 136.023H216.622V139.972H225.602V136.023Z" fill="#CCCCCC"/>
<path d="M247.183 113.27L239.136 117.092L254.907 147.65L262.954 143.828L247.183 113.27Z" fill="#E6E6E6"/>
<path d="M249.674 118.094L241.626 121.916L243.452 125.454L251.5 121.632L249.674 118.094Z" fill="#CCCCCC"/>
<path d="M257.642 133.535L249.595 137.357L251.421 140.896L259.468 137.074L257.642 133.535Z" fill="#CCCCCC"/>
<path d="M335.564 20.8691H299.874V55.1065H335.564V20.8691Z" fill="#E6E6E6"/>
<path d="M328.426 27.7168H307.012V48.2592H328.426V27.7168Z" fill="#CCCCCC"/>
<path d="M313.21 34.6133L317.751 42.1574L322.291 49.7016H313.21H304.129L308.67 42.1574L313.21 34.6133Z" fill="#E6E6E6"/>
<path d="M321.1 36.0547L325.641 43.5989L330.181 51.143H321.1H312.019L316.559 43.5989L321.1 36.0547Z" fill="#E6E6E6"/>
<path d="M324.293 33.8443C325.745 33.8443 326.923 32.7149 326.923 31.3216C326.923 29.9283 325.745 28.7988 324.293 28.7988C322.84 28.7988 321.663 29.9283 321.663 31.3216C321.663 32.7149 322.84 33.8443 324.293 33.8443Z" fill="#E6E6E6"/>
<path d="M155.058 20.8691H119.368V55.1065H155.058V20.8691Z" fill="#E6E6E6"/>
<path d="M147.921 27.7168H126.507V48.2592H147.921V27.7168Z" fill="#CCCCCC"/>
<path d="M132.705 34.6133L137.245 42.1574L141.786 49.7016H132.705H123.624L128.164 42.1574L132.705 34.6133Z" fill="#E6E6E6"/>
<path d="M140.595 36.0547L145.135 43.5989L149.675 51.143H140.595H131.514L136.054 43.5989L140.595 36.0547Z" fill="#E6E6E6"/>
<path d="M143.788 33.8443C145.24 33.8443 146.418 32.7149 146.418 31.3216C146.418 29.9283 145.24 28.7988 143.788 28.7988C142.336 28.7988 141.158 29.9283 141.158 31.3216C141.158 32.7149 142.336 33.8443 143.788 33.8443Z" fill="#E6E6E6"/>
<path d="M47.6464 254.336L49.9585 250.908C49.2728 249.091 48.4809 247.312 47.5864 245.581L46.0913 246.739L47.2751 244.984C46.147 242.854 45.2592 241.512 45.2592 241.512C45.2592 241.512 40.6222 248.522 39.073 255.943L42.04 260.342L38.7554 257.797C38.6384 258.662 38.5782 259.532 38.5752 260.404C38.5752 269.194 41.5677 276.32 45.2592 276.32C48.9507 276.32 51.9433 269.194 51.9433 260.404C51.874 257.608 51.3584 254.838 50.4142 252.191L47.6464 254.336Z" fill="#15CC86"/>
<path d="M64.0114 261.955L68.173 261.099C69.0274 259.349 69.7783 257.555 70.4221 255.724L68.511 255.529L70.6418 255.091C71.4143 252.819 71.776 251.268 71.776 251.268C71.776 251.268 63.3302 253.079 56.7641 257.276L55.6197 262.399L55.1731 258.371C54.4531 258.903 53.7687 259.478 53.1239 260.093C46.6449 266.308 43.5086 273.376 46.1189 275.881C48.7291 278.385 56.0975 275.376 62.5766 269.161C64.589 267.136 66.266 264.828 67.5492 262.316L64.0114 261.955Z" fill="#15CC86"/>
<path d="M65.5313 295.967C55.881 296.559 45.3659 295.933 34.1797 295.967V271.398C44.0366 272.87 54.5482 272.719 65.5313 271.398V295.967Z" fill="#3F3D56"/>
<path d="M464.157 303.68H333.867V465.772H464.157V303.68Z" fill="#E6E6E6"/>
<path d="M68.5379 312.143H61.752V465.772H68.5379V312.143Z" fill="#E6E6E6"/>
<path d="M464.157 292.613H0V305.633H464.157V292.613Z" fill="#E6E6E6"/>
<path d="M71.9312 305.633H58.3594V318.652H71.9312V305.633Z" fill="#E6E6E6"/>
<path d="M409.276 313.117L408.512 316.047H389.512L388.367 313.117H339.975V343.062H458.05V313.117H409.276Z" fill="#3F3D56"/>
<path d="M409.276 350.875L408.512 353.804H389.512L388.367 350.875H339.975V380.82H458.05V350.875H409.276Z" fill="#3F3D56"/>
<path d="M409.276 388.631L408.512 391.56H389.512L388.367 388.631H339.975V418.575H458.05V388.631H409.276Z" fill="#3F3D56"/>
<path d="M409.276 426.389L408.512 429.318H389.512L388.367 426.389H339.975V456.333H458.05V426.389H409.276Z" fill="#3F3D56"/>
<path d="M251.758 290.659H211.721L213.078 273.734H250.4L251.758 290.659Z" fill="#E6E6E6"/>
<path d="M254.472 288.707H209.685V292.613H254.472V288.707Z" fill="#E6E6E6"/>
<path d="M308.42 164.697H155.398C154.318 164.697 153.282 165.109 152.519 165.841C151.755 166.574 151.326 167.567 151.326 168.603V258.112H312.492V168.603C312.492 167.567 312.063 166.574 311.299 165.841C310.536 165.109 309.5 164.697 308.42 164.697Z" fill="#3F3D56"/>
<path d="M151.326 258.111V272.758C151.326 273.794 151.755 274.788 152.519 275.52C153.282 276.253 154.318 276.664 155.398 276.664H308.42C309.5 276.664 310.536 276.253 311.299 275.52C312.063 274.788 312.492 273.794 312.492 272.758V258.111H151.326Z" fill="#E6E6E6"/>
<path d="M304.687 172.834H159.469V250.951H304.687V172.834Z" fill="white"/>
<path d="M232.078 271.132C234.327 271.132 236.15 269.383 236.15 267.226C236.15 265.069 234.327 263.32 232.078 263.32C229.83 263.32 228.007 265.069 228.007 267.226C228.007 269.383 229.83 271.132 232.078 271.132Z" fill="#3F3D56"/>
<path d="M576.463 464.796C561.633 465.706 545.474 464.743 528.283 464.796V427.039C543.431 429.301 559.585 429.069 576.463 427.039V464.796Z" fill="#3F3D56"/>
<path d="M554.071 430.428H549.999L551.356 354.129H552.713L554.071 430.428Z" fill="#3F3D56"/>
<path d="M572.392 430.944H568.32L569.678 354.645H571.035L572.392 430.944Z" fill="#3F3D56"/>
<path d="M537.785 430.944H533.713L535.07 354.645H536.427L537.785 430.944Z" fill="#3F3D56"/>
<path d="M557.463 305.306L564.036 295.562C562.087 290.397 559.835 285.341 557.293 280.419L553.043 283.712L556.408 278.723C553.201 272.667 550.677 268.852 550.677 268.852C550.677 268.852 537.496 288.778 533.092 309.876L541.526 322.38L532.189 315.146C531.856 317.603 531.685 320.079 531.677 322.557C531.677 347.544 540.184 367.799 550.677 367.799C561.171 367.799 569.678 347.544 569.678 322.557C569.678 314.811 567.851 306.706 565.331 299.21L557.463 305.306Z" fill="#E6E6E6"/>
<path d="M575.785 306.609L582.358 296.865C580.409 291.699 578.158 286.644 575.615 281.722L571.365 285.015L574.73 280.026C571.523 273.97 569 270.154 569 270.154C569 270.154 555.818 290.081 551.414 311.179L559.848 323.683L550.511 316.448C550.179 318.906 550.008 321.381 549.999 323.86C549.999 348.846 558.506 369.102 569 369.102C579.493 369.102 588 348.846 588 323.86C588 316.113 586.173 308.009 583.653 300.513L575.785 306.609Z" fill="#15CC86"/>
<path d="M541.177 306.609L547.75 296.865C545.801 291.699 543.549 286.644 541.007 281.722L536.757 285.015L540.122 280.026C536.915 273.97 534.391 270.154 534.391 270.154C534.391 270.154 521.21 290.081 516.806 311.179L525.24 323.683L515.903 316.448C515.57 318.906 515.399 321.381 515.391 323.86C515.391 348.846 523.897 369.102 534.391 369.102C544.885 369.102 553.392 348.846 553.392 323.86C553.392 316.113 551.565 308.009 549.045 300.513L541.177 306.609Z" fill="#15CC86"/>
<path d="M245.717 194.883H206.562V197.039H245.717V194.883Z" fill="#3F3D56"/>
<path d="M267.026 202.75H206.562V204.906H267.026V202.75Z" fill="#15CC86"/>
<path d="M255.839 210.16H206.562V212.316H255.839V210.16Z" fill="#15CC86"/>
<path d="M235.329 217.541H206.562V219.697H235.329V217.541Z" fill="#3F3D56"/>
<path d="M249.979 224.924H206.562V227.08H249.979V224.924Z" fill="#3F3D56"/>
<path d="M193.51 194.117H188.716V198.717H193.51V194.117Z" fill="#3F3D56"/>
<path d="M193.51 201.527H188.716V206.127H193.51V201.527Z" fill="#15CC86"/>
<path d="M193.51 208.938H188.716V213.537H193.51V208.938Z" fill="#15CC86"/>
<path d="M193.51 216.348H188.716V220.947H193.51V216.348Z" fill="#3F3D56"/>
<path d="M193.51 223.758H188.716V228.357H193.51V223.758Z" fill="#3F3D56"/>
<path d="M297.96 190.803H277.413C276.011 183.026 276.011 175.077 277.413 167.301H297.96C295.646 174.977 295.645 183.126 297.96 190.803Z" fill="#15CC86"/>
<path d="M148.451 237.906L139.998 235.929C136.772 235.933 133.586 235.249 130.67 233.926C127.753 232.604 125.18 230.676 123.136 228.282C121.092 225.888 119.628 223.088 118.85 220.085C118.072 217.082 118 213.951 118.639 210.918C118.63 203.68 121.617 196.736 126.945 191.612C132.273 186.488 139.504 183.605 147.049 183.596H147.049C154.593 183.587 161.832 186.453 167.173 191.564C172.514 196.675 175.52 203.612 175.53 210.849V210.849C180.323 226.849 165.311 241.848 148.451 237.906Z" fill="#2F2E41"/>
<path d="M157.685 240.759C169.228 240.759 178.586 231.782 178.586 220.708C178.586 209.635 169.228 200.658 157.685 200.658C146.142 200.658 136.784 209.635 136.784 220.708C136.784 231.782 146.142 240.759 157.685 240.759Z" fill="#FFB8B8"/>
<path d="M144.053 231.17C144.053 231.17 137.692 252.092 134.057 253.835C130.422 255.579 163.137 258.194 163.137 258.194C163.137 258.194 162.228 238.144 164.046 236.4C165.863 234.657 144.053 231.17 144.053 231.17Z" fill="#FFB8B8"/>
<path d="M176.768 360.187C176.768 360.187 217.661 356.7 223.113 369.777C228.566 382.853 219.478 460.439 219.478 460.439H202.212V396.801C202.212 396.801 128.593 376.726 128.593 369.752C128.593 362.778 176.768 360.187 176.768 360.187Z" fill="#2F2E41"/>
<path d="M216.753 456.953L225.84 460.44C225.84 460.44 236.745 459.568 232.201 467.414C230.901 469.692 229.081 471.658 226.879 473.167C224.676 474.677 222.147 475.69 219.479 476.132C219.479 476.132 202.213 482.234 201.304 476.132C200.396 470.029 205.848 457.825 205.848 457.825L216.753 456.953Z" fill="#2F2E41"/>
<path d="M154.049 360.188C154.049 360.188 194.943 356.701 200.395 369.777C205.847 382.854 196.76 460.439 196.76 460.439H179.494V396.802C179.494 396.802 127.236 385.19 127.236 378.216C127.236 374.939 123.675 358.289 129.95 354.781C137.033 350.821 154.049 360.188 154.049 360.188Z" fill="#2F2E41"/>
<path d="M194.034 456.953L203.121 460.44C203.121 460.44 214.026 459.568 209.483 467.414C208.182 469.692 206.363 471.658 204.16 473.167C201.957 474.677 199.428 475.69 196.76 476.132C196.76 476.132 179.494 482.234 178.586 476.132C177.677 470.029 183.129 457.825 183.129 457.825L194.034 456.953Z" fill="#2F2E41"/>
<path d="M134.966 251.219L162.275 254.066C166.49 254.506 170.452 256.212 173.596 258.94C176.74 261.669 178.905 265.281 179.781 269.26L190.399 317.472C190.399 317.472 194.034 365.418 186.764 368.033C179.494 370.648 169.498 357.572 155.867 359.316C142.236 361.059 124.515 364.982 124.515 364.982C124.515 364.982 121.701 279.16 121.335 272.141C120.602 258.108 134.966 251.219 134.966 251.219Z" fill="#575A89"/>
<path d="M199.655 362.68L210.867 369.014C210.867 369.014 230.981 366.245 230.353 373.027C229.725 379.809 207.769 378.498 207.769 378.498L194.258 370.512L199.655 362.68Z" fill="#FFB8B8"/>
<path d="M117.115 204.401C124.572 204.401 130.617 198.603 130.617 191.45C130.617 184.297 124.572 178.498 117.115 178.498C109.659 178.498 103.614 184.297 103.614 191.45C103.614 198.603 109.659 204.401 117.115 204.401Z" fill="#2F2E41"/>
<path d="M129.573 184.486C129.571 182.57 129.127 180.679 128.271 178.948C127.415 177.217 126.169 175.69 124.623 174.477C123.077 173.264 121.27 172.395 119.332 171.933C117.394 171.471 115.373 171.427 113.415 171.805C115.143 171.022 117.024 170.6 118.934 170.567C120.844 170.533 122.74 170.889 124.496 171.611C126.253 172.333 127.829 173.405 129.121 174.755C130.413 176.105 131.392 177.703 131.992 179.443C132.592 181.183 132.801 183.025 132.603 184.848C132.406 186.671 131.807 188.433 130.846 190.018C129.886 191.602 128.586 192.973 127.032 194.039C125.478 195.106 123.705 195.843 121.832 196.203C124.148 195.157 126.107 193.499 127.477 191.424C128.848 189.349 129.575 186.943 129.573 184.486Z" fill="#2F2E41"/>
<path d="M141.155 191.832L159.357 188.617L173.355 197.033C176.796 199.102 179.547 202.075 181.28 205.598C183.014 209.122 183.658 213.048 183.136 216.912L169.116 213.503L165.977 205.952L162.238 211.831L142.69 235.964L131.714 229.259L121.93 214.549L141.155 191.832Z" fill="#2F2E41"/>
<path d="M156.145 258.634L165.232 254.275C165.232 254.275 184.315 256.891 187.95 269.095C191.585 281.3 207.942 365.859 207.942 365.859L192.494 372.833L170.684 321.4L156.145 258.634Z" fill="#575A89"/>
<path opacity="0.2" d="M163.88 292.938L172.975 326.803L189.103 364.838L188.544 366.155L169.308 327.439L163.88 292.938Z" fill="black"/>
<path d="M96.018 479.704L92.8105 478.644L123.882 390.109L128.373 391.594L96.018 479.704Z" fill="#3F3D56"/>
<path d="M214.777 479.704L217.985 478.644L186.913 390.109L182.422 391.594L214.777 479.704Z" fill="#3F3D56"/>
<path d="M149.122 497.989L152.514 498.001L153.568 394.506L148.818 394.49L149.122 497.989Z" fill="#3F3D56"/>
<path d="M88.1651 338.087L97.472 374.172C98.7753 379.225 101.489 383.842 105.321 387.528C109.154 391.213 113.96 393.827 119.225 395.09H119.225C145.181 401.315 172.355 401.147 198.225 394.602L212.121 391.086C220.194 389.043 226.266 382.391 226.84 374.4C227.073 371.575 226.54 368.74 225.292 366.171C225.238 366.061 225.184 365.951 225.129 365.842C223.317 362.271 220.521 359.244 217.044 357.087C213.568 354.931 209.543 353.728 205.404 353.607L190.684 353.152L137.076 330.368C137.076 330.368 118.638 321.384 103.481 320.378C93.471 319.714 85.7552 328.744 88.1651 338.087Z" fill="#15CC86"/>
<path d="M414.959 224.586H362.028V293.589H414.959V224.586Z" fill="#E6E6E6"/>
<path d="M408.851 232.547H368.136V285.626H408.851V232.547Z" fill="white"/>
<path d="M403.887 246.438H384.16V248.594H403.887V246.438Z" fill="#3F3D56"/>
<path d="M377.895 245.244H373.101V249.844H377.895V245.244Z" fill="#3F3D56"/>
<path d="M403.887 255.553H384.16V257.709H403.887V255.553Z" fill="#3F3D56"/>
<path d="M377.895 254.357H373.101V258.957H377.895V254.357Z" fill="#3F3D56"/>
<path d="M403.887 264.666H384.16V266.822H403.887V264.666Z" fill="#3F3D56"/>
<path d="M377.895 263.471H373.101V268.07H377.895V263.471Z" fill="#3F3D56"/>
<path d="M390.53 228.492C390.53 227.413 389.618 226.539 388.494 226.539C387.369 226.539 386.458 227.413 386.458 228.492C386.458 229.571 387.369 230.445 388.494 230.445C389.618 230.445 390.53 229.571 390.53 228.492Z" fill="#3F3D56"/>
</g>
<defs>
<clipPath id="clip0">
<rect width="588" height="498" fill="white"/>
</clipPath>
</defs>
</svg>
