<svg width="48" height="48" viewBox="0 0 48 48" fill="none" xmlns="http://www.w3.org/2000/svg">
<path fill-rule="evenodd" clip-rule="evenodd" d="M32.7482 39.8788L44.4454 22.333C44.9049 21.6437 44.7187 20.7124 44.0294 20.2528C43.783 20.0886 43.4935 20.0009 43.1973 20.0009H34.0001V8.95508C34.0001 8.12665 33.3285 7.45508 32.5001 7.45508C31.9986 7.45508 31.5302 7.70573 31.252 8.12303L19.5548 25.6689C19.0953 26.3582 19.2816 27.2895 19.9708 27.749C20.2172 27.9133 20.5068 28.0009 20.8029 28.0009H30.0001V39.0468C30.0001 39.8752 30.6717 40.5468 31.5001 40.5468C32.0016 40.5468 32.47 40.2961 32.7482 39.8788Z" fill="#0AE88D"/>
<path opacity="0.3" fill-rule="evenodd" clip-rule="evenodd" d="M9 10H19C20.6569 10 22 11.3431 22 13C22 14.6569 20.6569 16 19 16H9C7.34315 16 6 14.6569 6 13C6 11.3431 7.34315 10 9 10ZM9 34H19C20.6569 34 22 35.3431 22 37C22 38.6569 20.6569 40 19 40H9C7.34315 40 6 38.6569 6 37C6 35.3431 7.34315 34 9 34ZM5 22H13C14.6569 22 16 23.3431 16 25C16 26.6569 14.6569 28 13 28H5C3.34315 28 2 26.6569 2 25C2 23.3431 3.34315 22 5 22Z" fill="#0AE88D"/>
</svg>
