<svg width="20" height="20" viewBox="0 0 20 20" fill="none" xmlns="http://www.w3.org/2000/svg">
<g clip-path="url(#clip0)">
<path d="M19.9617 3.80693C19.2242 4.13109 18.4367 4.35193 17.6075 4.45276C18.4525 3.94359 19.1025 3.14109 19.41 2.18359C18.6175 2.64609 17.7392 2.98276 16.8042 3.17026C16.0575 2.37109 14.9933 1.87109 13.8117 1.87109C11.5475 1.87109 9.71167 3.70693 9.71167 5.96859C9.71167 6.29359 9.74917 6.60609 9.8175 6.90526C6.40917 6.74443 3.38833 5.10776 1.36667 2.63359C1.01083 3.23526 0.811667 3.93443 0.811667 4.69609C0.811667 6.12109 1.53667 7.37359 2.635 8.10943C1.9625 8.08776 1.33 7.90276 0.778333 7.59609V7.64693C0.778333 9.63443 2.18917 11.2919 4.06667 11.6694C3.7225 11.7619 3.35917 11.8119 2.98667 11.8119C2.725 11.8119 2.47417 11.7869 2.22333 11.7403C2.74917 13.3678 4.26083 14.5544 6.06 14.5878C4.66 15.6869 2.88583 16.3419 0.975 16.3419C0.65 16.3419 0.325833 16.3228 0 16.2861C1.82417 17.4478 3.97333 18.1269 6.2975 18.1269C13.8425 18.1269 17.9633 11.8803 17.9633 6.47193C17.9633 6.29776 17.9633 6.12193 17.9508 5.94693C18.7517 5.37276 19.4508 4.64693 20.0008 3.82359L19.9617 3.80693Z" fill="white"/>
</g>
<defs>
<clipPath id="clip0">
<rect width="20" height="20" fill="white"/>
</clipPath>
</defs>
</svg>
